<svg height="960" viewBox="0 0 960 960" width="960" xmlns="http://www.w3.org/2000/svg"><g fill="none" fill-rule="evenodd"><rect height="215" rx="42" stroke="#000" stroke-linejoin="round" stroke-width="20" width="96" x="433" y="234"/><circle cx="481" cy="283" fill="#000" r="24"/><circle cx="481" cy="394" fill="#000" r="24"/><path d="m793.445711 112.290035 56.517149 56.476648 19.901134-16.508598 12.699326 16.057961c20.829873 26.338822 39.018577 54.676348 54.269296 84.602574l2.180482 4.278724v452.605312l-2.180482 4.278724c-14.399977 28.25683-31.420609 55.09988-50.813873 80.183617l-12.660531 16.37545-15.931099-13.215314-7.464252-6.191816-56.517212 56.47671 22.862397 20.977797-18.478139 14.549436c-26.097605 20.5489-54.146091 38.509644-83.748527 53.595356l-4.278724 2.180482h-452.605312l-4.278724-2.180482c-30.657096-15.623178-59.645598-34.328925-86.52495-55.797119l-18.24675-14.573446 17.205346-15.789404 3.22824-2.962566-56.517225-56.476723-20.4596157 16.974061-12.6366455-16.565197c-21.9187959-28.733034-40.7334653-59.723453-56.0870814-92.458758l-1.8927226-4.035457v-423.296014l1.8927226-4.035457c16.1500139-34.433297 36.1277363-66.932257 59.5145591-96.900957l12.6792424-16.247628 15.8598401 13.161083 1.129778.937531 57.25578-57.214749c-.010216.010209-.020209.020637-.029973.031278-.37339.406938-.346194 1.039518.060744 1.412908l13.521649-14.7365189.015192-.0163634-12.227635-15.6483528c30.039492-23.4728808 62.625638-43.5186227 97.157421-59.7148285l4.035457-1.8927226h423.296014l4.035457 1.8927226c33.457156 15.6921812 65.090124 34.9990526 94.351947 57.5382971l18.836265 14.508842-17.520252 16.0733355zm-610.558961-14.0469153 13.592646-14.6406052.101914.0946188-13.607839 14.6569685z" stroke="#000" stroke-linejoin="round" stroke-width="40"/><circle cx="484" cy="484" r="420" stroke="#000" stroke-linejoin="round" stroke-width="20"/><g fill="#000" fill-rule="nonzero"><path d="m66.1647844 398.095665-.4729677 2.640133h46.6561263c5.73342 0 10.423628 4.686262 10.423628 10.414856 0 5.634684-4.537692 10.260929-10.142514 10.411095l-.281114.003762h-49.8196848c-.3180521 2.478719-.6122503 4.966972-.8861727 7.461182l-.2672963 2.496065h50.9731538c5.73342 0 10.423628 4.686262 10.423628 10.414857 0 5.634683-4.537692 10.260928-10.142514 10.411094l-.281114.003762h-52.6439876c-.139943 2.491431-.2608028 4.978094-.3625795 7.470716l-.0954156 2.495006h53.1104637c5.73342 0 10.423629 4.686262 10.423629 10.414856 0 5.634684-4.537692 10.260929-10.142514 10.411095l-.281115.003762h-53.356424c.0339256 3.267672.1058477 6.52992.2114241 9.786745l.0854245 2.441602h53.0510944c5.73342 0 10.423628 4.686262 10.423628 10.414856 0 5.634684-4.537692 10.260929-10.142514 10.411095l-.281114.003762h-51.7873672c.2099144 2.49143.4436827 4.982861.6977268 7.470716l.2606702 2.486531h50.8289702c5.73342 0 10.423628 4.686262 10.423628 10.414857 0 5.634683-4.537692 10.260928-10.142514 10.411094l-.281114.003762h-48.0979626c.3880236 2.497786.7999011 4.990806 1.2320544 7.479058l.4387794 2.486664h46.4271288c5.73342 0 10.423628 4.686262 10.423628 10.414856 0 5.634684-4.537692 10.260929-10.142514 10.411095l-.281114.003762h-42.169471c.5788548 2.497786 1.1767928 4.990805 1.793814 7.479058l.6233821 2.486663h39.7522749c5.73342 0 10.423628 4.686262 10.423628 10.414857 0 5.634683-4.537692 10.260929-10.142514 10.411094l-.281114.00426h-33.7680997c-13.3588078-41.053198-20.5798433-84.876222-20.5798433-130.385809 0-30.180933 8.6457562-82.741145 8.1647844-80.102819zm819.4392546 189.658216c-1.886149 7.017603-3.949133 13.962764-6.183882 20.830412l-32.914617-.000497c-5.73342 0-10.423628-4.686262-10.423628-10.414857 0-5.634683 4.537691-10.260929 10.142514-10.411094l.281114-.003964zm-39.098499-30.795233 46.139585.000775c-1.325875 7.005982-2.825337 13.95057-4.493743 20.829124h-41.645842c-5.73342 0-10.423628-4.686448-10.423628-10.415043 0-5.634683 4.537691-10.260928 10.142514-10.411094zm50.792135-30.79572c-.793517 6.996927-1.758548 13.941845-2.890787 20.830447l-47.901348-.000449c-5.73342 0-10.423628-4.686261-10.423628-10.414856 0-5.634684 4.537691-10.260929 10.142514-10.411095l.281114-.003762zm-50.792135-94.64017h50.9363c1.690398 15.325922 2.55816 30.899486 2.55816 46.675726 0 12.811059-.572221 25.488469-1.692498 38.008065h-51.801962c-5.73342 0-10.423628-4.686845-10.423628-10.41544 0-5.634683 4.537691-10.260928 10.142514-10.411094l.281114-.003762h53.093501c.122132-3.254113.211696-6.51365.264348-9.77861l.032501-2.449737h-53.39035c-5.73342 0-10.423628-4.686262-10.423628-10.414857 0-5.634683 4.537691-10.260928 10.142514-10.411094l.281114-.003762h53.144389c-.082693-2.497786-.194011-4.990806-.32322-7.479058l-.134775-2.486664h-52.686394c-5.73342 0-10.423628-4.686261-10.423628-10.414856 0-5.634684 4.537691-10.260929 10.142514-10.411095zm0-32.286903h46.101407c1.492894 7.867667 2.766871 15.812611 3.815355 23.828481l-49.916762.001118c-6.573077 0-11.924834-5.347254-11.924834-11.9148 0-6.466506 5.188354-11.749979 11.622343-11.911017z"/><path d="m463 846h-42.683465c-18.924114 0-34.316535-15.480623-34.316535-34.503809 0-19.023187 15.392421-34.496191 34.316535-34.496191h42.683465z"/><path d="m542.654151 846h-44.654151v-69h44.654151c18.940278 0 34.345849 15.473004 34.345849 34.496191.007582 19.023186-15.405571 34.503809-34.345849 34.503809"/></g></g></svg>