<?xml version="1.0" encoding="utf-8"?>
<!-- Generator: Adobe Illustrator 21.0.0, SVG Export Plug-In . SVG Version: 6.00 Build 0)  -->
<svg version="1.1" id="Layer_1" xmlns="http://www.w3.org/2000/svg" xmlns:xlink="http://www.w3.org/1999/xlink" x="0px" y="0px"
	 viewBox="0 0 1417.3 934.4" style="enable-background:new 0 0 1417.3 934.4;" xml:space="preserve">
<style type="text/css">
	#pair {
		animation: pair 2s infinite;
	}

	@keyframes pair {
		0%, 20%, 80%, 100% {
			fill: rgba(255,255,255,0);
		}
		50% {
			fill: #0074CC;
		}
	}
</style>
<g>
	<g id="XMLID_1_">
		<path d="M1272.8,435.1c0.6-9.6,1.4-19,2.4-28.2h-4.9C1271.4,416.1,1272.2,425.5,1272.8,435.1z M1272.8,510.2
			c-0.5,6.9-1,13.7-1.6,20.5h3.3C1273.8,524,1273.2,517.1,1272.8,510.2z M1278.1,561.1c-1.3-8.7-2.4-17.7-3.3-27h-4
			c-1,9.2-2.2,18.2-3.4,27H1278.1z M1275.6,403.4c1-9.2,2.2-18.3,3.5-27H1266c1.5,8.8,2.8,17.8,3.9,27H1275.6z M1277.5,406.8
			c-1.6,14.5-2.7,29.6-3.3,45h24.5v-45H1277.5z M1276.7,530.7h22v-45H1274C1274.3,501.1,1275.3,516.2,1276.7,530.7z M1281.5,376.4
			c-1.3,8.7-2.6,17.7-3.6,27h20.8v-27H1281.5z M1280.2,561.1h18.4v-27H1277C1278,543.4,1279.1,552.4,1280.2,561.1z M1279.7,373
			c5.9-38.1,13.7-69.6,19-88.5v-18.9c0-79.3-40.1-139.4-64-168.1c-30.5-36.7-68.1-62.6-97.1-68l-33.4,52.9
			c24.7,20,130.4,114.6,161.3,290.6H1279.7z M1298.8,660.7c-5.6-20.2-14.2-54.7-20.2-96.2h-11.8
			c-29.1,181.3-137.9,278.4-162.7,298.4l32.9,42.9c29.1-5,66.9-31.1,97.8-68.1c23.9-28.7,64-88.8,64-168.1V660.7z M1298.7,293.2
			c-5,19.1-11.6,47-16.7,79.8h16.7V293.2z M1298.7,652v-87.5h-17.9C1286.1,600.6,1293.2,631.4,1298.7,652z M1403.7,411.5v53.9
			c0,17.5-14.2,31.7-31.7,31.7h-59.6v172.5c0,28.6-4.9,54.8-12.4,78.1c21,11.9,34.3,34.2,34.3,58.7c0,37.2-30.3,67.5-67.5,67.5
			c-13.2,0-25.7-3.7-36.6-10.8c-34.2,35.2-73.2,57.2-103.1,57.2H291.3c-29.9,0-68.9-21.9-103.1-57.2c-10.9,7.1-23.4,10.8-36.6,10.8
			c-37.2,0-67.5-30.3-67.5-67.5c0-24.4,13.3-46.8,34.3-58.7c-7.5-23.3-12.4-49.5-12.4-78.1V497.1H46.4c-17.5,0-31.7-14.2-31.7-31.7
			v-53.9c0-17.5,14.2-31.7,31.7-31.7H106V265.6c0-28.6,5-54.8,12.4-78.1c-21-11.9-34.3-34.2-34.3-58.7c0-37.2,30.3-67.5,67.5-67.5
			c13.2,0,25.7,3.7,36.6,10.8c34.2-35.2,73.2-57.2,103.1-57.2h835.8c29.9,0,68.9,21.9,103.1,57.2c10.9-7.1,23.4-10.8,36.6-10.8
			c37.2,0,67.5,30.3,67.5,67.5c0,24.4-13.3,46.8-34.3,58.7c7.5,23.3,12.4,49.5,12.4,78.1v114.2h59.6
			C1389.4,379.8,1403.7,394.1,1403.7,411.5z M1400.2,465.4v-53.9c0-15.6-12.7-28.3-28.3-28.3h-59.6v50.2c2.4-11.1,12.2-19.4,24-19.4
			h19c13.5,0,24.5,11,24.5,24.5v1.9c0,13.5-11,24.5-24.5,24.5h-19c-11.8,0-21.7-8.3-24-19.4v48.2h59.6
			C1387.5,493.7,1400.2,481,1400.2,465.4z M1376.4,440.4v-1.9c0-11.6-9.5-21.1-21.1-21.1h-19c-11.6,0-21.1,9.5-21.1,21.1v1.9
			c0,11.7,9.5,21.1,21.1,21.1h19C1366.9,461.5,1376.4,452,1376.4,440.4z M1297.7,180.9c18.3-10.8,29.7-30.6,29.7-52.1
			c0-33.5-27.3-60.7-60.7-60.7c-11.4,0-22.2,3.1-31.7,9.1c3.5,3.7,6.9,7.6,10.2,11.6C1260.8,107.6,1283.2,139.3,1297.7,180.9z
			 M1327.4,806.5c0-21.5-11.5-41.3-29.8-52c-14.5,41.5-36.8,73.3-52.5,92.1c-3.3,4-6.7,7.9-10.2,11.6c9.6,5.9,20.4,9,31.8,9
			C1300.2,867.2,1327.4,839.9,1327.4,806.5z M1298.7,482.2v-27h-24.6c-0.1,2.9-0.2,5.7-0.2,8.6c0.1,2.9,0.1,5.8,0.1,8.8
			s-0.1,5.9-0.1,8.8c0,0.3,0,0.6,0,0.8H1298.7z M1267,482.2c0.1-3.2,0.1-6.4,0.1-9.6c0-5.8-0.1-11.6-0.3-17.4h-105.4
			c-7.4,0-13.5,6.1-13.5,13.5c0,7.4,6.1,13.5,13.5,13.5H1267z M1267,485.8h-105.6c-9.3,0-16.9-7.6-16.9-16.9
			c0-9.3,7.6-16.9,16.9-16.9h105.3c-0.5-15.5-1.7-30.5-3.3-45h-102c-9.3,0-16.9-7.6-16.9-16.9c0-9.3,7.6-16.9,16.9-16.9h97.1
			c-30.8-173.5-135.1-266.3-158.9-285.5c-1.7-1.3-3.8-2.1-6-2.1H320.5c-2.2,0-4.3,0.7-6,2.1c-23.8,19.2-128.1,112-158.9,285.5h101.1
			c9.3,0,16.9,7.6,16.9,16.9c0,9.3-7.6,16.9-16.9,16.9h-106c-1.1,10-2,20.2-2.6,30.7c0.3,4.7,0.5,9.4,0.7,14.2h108
			c9.3,0,16.9,7.6,16.9,16.9c0,9.3-7.6,16.9-16.9,16.9H149c-0.2,7.4-0.5,14.8-0.9,22c0.4,7.8,1,15.5,1.8,23h106.8
			c9.3,0,16.9,7.6,16.9,16.9c0,9.3-7.6,16.9-16.9,16.9H154.3c29,178.5,136.1,273.8,160.2,293.2c1.7,1.3,3.8,2.1,6,2.1h773.1
			c2.2,0,4.3-0.7,6-2.1c24.1-19.4,131.2-114.7,160.3-293.1h-98.4c-9.3,0-16.9-7.6-16.9-16.9s7.6-16.9,16.9-16.9h102.8
			C1265.7,516.3,1266.7,501.3,1267,485.8z M1263.9,534.1h-102.5c-7.4,0-13.5,6.1-13.5,13.5c0,7.4,6.1,13.5,13.5,13.5h99
			C1261.7,552.3,1262.9,543.3,1263.9,534.1z M1161.4,403.4H1263c-1.1-9.2-2.4-18.2-3.9-27h-97.7c-7.4,0-13.5,6.1-13.5,13.5
			S1154,403.4,1161.4,403.4z M1098.1,79.2l32-50.6c-1-0.1-2-0.1-3-0.1H291.3c-1,0-2,0-3,0.1l31.6,50c0.2-0.1,0.4-0.1,0.6-0.1h773.1
			C1095.1,78.5,1096.6,78.8,1098.1,79.2z M1129.1,906.6l-31.2-40.6c-1.4,0.4-2.8,0.6-4.2,0.6H320.6c-0.1,0-0.3,0-0.4,0l-30.8,40
			c0.6,0.1,1.3,0.1,1.9,0.1h835.9C1127.8,906.7,1128.5,906.6,1129.1,906.6z M312.9,80.5l-32.1-50.9c-29.1,5.3-66.6,31.2-97.1,67.9
			c-23.9,28.7-64,88.8-64,168.1v10.6c5.1,17.4,14.5,52.8,21.3,96.8h7.7c31-176.7,137.3-271.3,161.5-290.8
			C311,81.6,311.9,81,312.9,80.5z M281.4,905.7l31.5-41c-0.9-0.5-1.9-1-2.7-1.7c-24.5-19.7-133.6-116.8-162.8-298.5h-5.2
			c-6.9,47.6-17.1,86.1-22.5,104.5v0.7c0,79.3,40.1,139.4,64,168.1C214.4,874.7,252.3,900.8,281.4,905.7z M270.2,389.9
			c0-7.4-6.1-13.5-13.5-13.5H155c-1.5,8.8-2.8,17.8-3.9,27h105.6C264.1,403.4,270.2,397.3,270.2,389.9z M270.2,468.8
			c0-7.4-6.1-13.5-13.5-13.5H148.8c0.2,5.7,0.3,11.5,0.3,17.4c0,3.2,0,6.4-0.1,9.6h107.7C264.1,482.3,270.2,476.2,270.2,468.8z
			 M270.2,547.6c0-7.4-6.1-13.5-13.5-13.5H150.2c1,9.2,2.2,18.2,3.5,27h103C264.1,561.1,270.2,555,270.2,547.6z M173.3,88.7
			c3.3-4,6.7-7.9,10.2-11.6c-9.6-5.9-20.4-9-31.8-9c-33.5,0-60.7,27.3-60.7,60.7c0,21.5,11.4,41.3,29.8,52
			C135.3,139.3,157.6,107.5,173.3,88.7z M183.3,858c-3.5-3.7-6.9-7.6-10.2-11.6c-15.6-18.8-38-50.5-52.5-92.1
			c-18.3,10.8-29.7,30.6-29.7,52.1c0,33.5,27.3,60.7,60.7,60.7C163,867.1,173.9,864,183.3,858z M148.1,376.5h-6.5
			c1.1,7.5,2.2,15.3,3.1,23.3C145.6,391.8,146.8,384.1,148.1,376.5z M142.7,561.1h4.2c-0.8-5.1-1.5-10.3-2.2-15.6
			C144,550.8,143.4,556,142.7,561.1z M140.5,451.8c0.2-4.8,0.4-9.5,0.7-14.3c-0.6-10.4-1.5-20.7-2.6-30.7h-18.9v45H140.5z
			 M141.2,507.7c-0.4-7.2-0.7-14.6-0.9-22h-20.6v45h19.7C140.1,523.2,140.7,515.5,141.2,507.7z M140.4,455.3h-20.7h-0.1v27h20.6
			c-0.1-3.2-0.1-6.4-0.1-9.6C140.1,466.8,140.2,461,140.4,455.3z M139,534.1h-19.3v27h16C136.9,552.4,138.1,543.4,139,534.1z
			 M119.7,403.4h18.5c-1.1-9.3-2.3-18.3-3.6-27h-14.9V403.4z M135.3,564.5h-15.6v78.4C124.8,622.9,130.8,595.7,135.3,564.5z
			 M119.7,373h14.4c-4.4-28-9.8-52.4-14.4-70.7V373z M106,493.7v-48.2c-2.4,11-12.2,19.4-24,19.4H63c-13.5,0-24.5-11-24.5-24.5v-1.9
			c0-13.5,11-24.5,24.5-24.5h19c11.8,0,21.7,8.3,24,19.4v-50.2H46.4c-15.6,0-28.3,12.7-28.3,28.3v53.9c0,15.6,12.7,28.3,28.3,28.3
			H106z M103.1,440.4v-1.9c0-11.6-9.4-21.1-21.1-21.1H63c-11.6,0-21.1,9.5-21.1,21.1v1.9c0,11.6,9.5,21.1,21.1,21.1h19
			C93.6,461.5,103.1,452,103.1,440.4z"/>
		<path d="M1116.8,758c0,19.6-15.7,35.5-35.1,35.5h-24.9c-5.6,0-10.2-4.6-10.2-10.3v-50.3c0-5.7,4.5-10.3,10.2-10.3h24.9
			C1101,722.6,1116.8,738.5,1116.8,758z M1113.4,758.2c0-17.7-14.2-32.1-31.7-32.1h-24.9c-3.7,0-6.8,3.1-6.8,6.9v50.3
			c0,3.8,3,6.9,6.8,6.9h24.9C1099.1,790.2,1113.4,775.9,1113.4,758.2z"/>
		<path d="M1037,733v50.3c0,5.7-4.5,10.3-10.2,10.3h-24.9c-19.3,0-35.1-15.9-35.1-35.5c0-19.6,15.7-35.5,35.1-35.5h24.9
			C1032.5,722.6,1037.1,727.3,1037,733z M1033.6,783.3v-50.4c0-3.8-3-6.9-6.8-6.9h-24.9c-17.5,0-31.7,14.4-31.7,32.1
			c0,17.7,14.2,32.1,31.7,32.1h24.9C1030.5,790.2,1033.6,787.1,1033.6,783.3z"/>
		<path d="M858.5,722.6c19.4,0,35.1,15.9,35.1,35.4c0,19.6-15.7,35.5-35.1,35.5h-24.9c-5.6,0-10.2-4.6-10.2-10.3v-50.3
			c0-5.7,4.5-10.3,10.2-10.3H858.5z M890.2,758.2c0-17.7-14.2-32.1-31.7-32.1h-24.9c-3.7,0-6.8,3.1-6.8,6.9v50.3
			c0,3.8,3,6.9,6.8,6.9h24.9C876,790.2,890.2,775.9,890.2,758.2z"/>
		<path d="M879.9,162.3v137c0,21.8-17.7,39.6-39.6,39.6c-21.8,0-39.6-17.8-39.6-39.6v-137c0-21.8,17.7-39.6,39.6-39.6
			C862.1,122.7,879.9,140.4,879.9,162.3z M873.1,299.3v-137c0-18.1-14.7-32.8-32.8-32.8c-18.1,0-32.8,14.7-32.8,32.8v137
			c0,18.1,14.7,32.8,32.8,32.8C858.4,332.1,873.1,317.4,873.1,299.3z"/>
		<path d="M858.7,360c1.9,0,3.4,1.5,3.4,3.4s-1.5,3.4-3.4,3.4h-7.9v28.5h7.9c1.9,0,3.4,1.5,3.4,3.4c0,1.9-1.5,3.4-3.4,3.4h-50.9
			c-1.9,0-3.4-1.5-3.4-3.4c0-1.9,1.5-3.4,3.4-3.4h8v-28.5h-8c-1.9,0-3.4-1.5-3.4-3.4s1.5-3.4,3.4-3.4H858.7z M843.9,395.2v-28.5
			h-7.3v28.5H843.9z M829.9,395.3v-28.5h-7.2v28.5H829.9z"/>
		<path d="M840.3,233.4c14.3,0,26,17.8,26,39.6s-11.7,39.6-26,39.6s-25.9-17.8-26-39.6C814.3,251.2,826,233.4,840.3,233.4z
			 M840.3,309.2c12.5,0,22.6-16.2,22.6-36.2s-10.2-36.2-22.6-36.2c-12.4,0-22.5,16.2-22.6,36.2C817.7,293,827.9,309.2,840.3,309.2z"
			/>
		<circle cx="840.3" cy="169" r="20.1"/>
		<path d="M813.9,733v50.3c0,5.7-4.6,10.3-10.2,10.3h-24.9c-19.3,0-35.1-15.9-35.1-35.5c0-19.6,15.7-35.5,35.1-35.5h24.9
			C809.3,722.6,813.9,727.3,813.9,733z M810.5,783.3v-50.4c0-3.8-3-6.9-6.8-6.9h-24.9c-17.5,0-31.7,14.4-31.7,32.1
			c0,17.7,14.2,32.1,31.7,32.1h24.9C807.4,790.2,810.5,787.1,810.5,783.3z"/>
		<path d="M748.8,162.3v137c0,21.8-17.7,39.6-39.6,39.6c-21.8,0-39.6-17.7-39.6-39.6v-137c0-21.8,17.7-39.6,39.6-39.6
			C731,122.7,748.8,140.4,748.8,162.3z M742,299.3v-137c0-18.1-14.7-32.8-32.8-32.8c-18.1,0-32.8,14.7-32.8,32.8v137
			c0,18.1,14.7,32.8,32.8,32.8C727.3,332.1,742,317.4,742,299.3z"/>
		<path d="M709.2,233.4c14.3,0,26,17.7,26,39.6c0,21.8-11.7,39.6-26,39.6s-26-17.8-26-39.6S694.9,233.4,709.2,233.4z M731.8,273
			c0-20-10.1-36.2-22.6-36.2S686.6,253,686.6,273s10.2,36.2,22.6,36.2C721.6,309.2,731.7,293,731.8,273z"/>
		<circle cx="709.2" cy="169" r="20.1"/>
		<path d="M718.6,360c1.9,0,3.4,1.5,3.4,3.4s-1.5,3.4-3.4,3.4h-7.7v28.5h7.7c1.9,0,3.4,1.5,3.4,3.4c0,1.9-1.5,3.4-3.4,3.4h-37.4
			c-1.9,0-3.4-1.5-3.4-3.4c0-1.9,1.5-3.4,3.4-3.4h7.9v-28.5h-7.9c-1.9,0-3.4-1.5-3.4-3.4s1.5-3.4,3.4-3.4H718.6z M704.1,395.2v-28.5
			H696v28.5H704.1z"/>
		<path d="M670.5,758c0,19.6-15.7,35.5-35.1,35.5h-24.9c-5.6,0-10.2-4.6-10.2-10.3v-50.3c0-5.7,4.5-10.3,10.2-10.3h24.9
			C654.7,722.6,670.5,738.5,670.5,758z M667.1,758.2c0-17.7-14.2-32.1-31.7-32.1h-24.9c-3.7,0-6.8,3.1-6.8,6.9v50.3
			c0,3.8,3,6.9,6.8,6.9h24.9C652.8,790.2,667.1,775.9,667.1,758.2z"/>
		<path d="M617.6,162.3v137c0,21.8-17.7,39.6-39.6,39.6c-21.8,0-39.6-17.8-39.6-39.6v-137c0-21.8,17.7-39.6,39.6-39.6
			C599.8,122.7,617.6,140.4,617.6,162.3z M610.8,299.3v-137c0-18.1-14.7-32.8-32.8-32.8s-32.8,14.7-32.8,32.8v137
			c0,18.1,14.7,32.8,32.8,32.8S610.8,317.4,610.8,299.3z"/>
		<path d="M578,233.4c14.3,0,26,17.8,26,39.6s-11.7,39.6-26,39.6s-26-17.8-26-39.6S563.7,233.4,578,233.4z M578,309.2
			c12.5,0,22.6-16.2,22.6-36.2s-10.2-36.2-22.6-36.2S555.4,253,555.4,273S565.6,309.2,578,309.2z"/>
		<circle cx="578" cy="169" r="20.1"/>
		<path d="M590.7,733v50.3c0,5.7-4.5,10.3-10.2,10.3h-24.9c-19.3,0-35.1-15.9-35.1-35.5c0-19.6,15.7-35.5,35.1-35.5h24.9
			C586.2,722.6,590.8,727.3,590.7,733z M587.3,783.3v-50.4c0-3.8-3-6.9-6.8-6.9h-24.9c-17.5,0-31.7,14.4-31.7,32.1
			c0,17.7,14.2,32.1,31.7,32.1h24.9C584.2,790.2,587.3,787.1,587.3,783.3z"/>
		<path d="M575.9,360c1.9,0,3.4,1.5,3.4,3.4s-1.5,3.4-3.4,3.4h-7.6v28.5h7.6c1.9,0,3.4,1.5,3.4,3.4c0,1.9-1.5,3.4-3.4,3.4h-22.2
			c-1.9,0-3.4-1.5-3.4-3.4c0-1.9,1.5-3.4,3.4-3.4h7.8v-28.5h-7.8c-1.9,0-3.4-1.5-3.4-3.4s1.5-3.4,3.4-3.4H575.9z"/>
		<path d="M447.3,758c0,19.6-15.7,35.5-35.1,35.5h-24.9c-5.6,0-10.2-4.6-10.2-10.3v-50.3c0-5.7,4.5-10.3,10.2-10.3h24.9
			C431.5,722.6,447.3,738.5,447.3,758z M443.9,758.2c0-17.7-14.2-32.1-31.7-32.1h-24.9c-3.7,0-6.8,3.1-6.8,6.9v50.3
			c0,3.8,3,6.9,6.8,6.9h24.9C429.6,790.2,443.9,775.9,443.9,758.2z"/>
		<path d="M367.5,733v50.3c0,5.7-4.5,10.3-10.2,10.3h-24.9c-19.3,0-35.1-15.9-35.1-35.5c0-19.6,15.7-35.5,35.1-35.5h24.9
			C363,722.6,367.6,727.3,367.5,733z M364.1,783.3v-50.4c0-3.8-3-6.9-6.8-6.9h-24.9c-17.4,0-31.7,14.4-31.7,32.1
			c0,17.7,14.2,32.1,31.7,32.1h24.9C361,790.2,364.1,787.1,364.1,783.3z"/>
	</g>
</g>
<path id="pair" d="M840.3,238.3c-11.5,0-21,15.6-21.1,34.7c0,19.1,9.5,34.7,21.1,34.7s21.1-15.6,21.1-34.7
	C861.4,253.9,851.9,238.3,840.3,238.3z"/>
<path id="pair" d="M709.2,238.3c-11.6,0-21.1,15.6-21.1,34.7c0,19.1,9.5,34.7,21.1,34.7c11.5,0,21-15.6,21.1-34.7
	C730.3,253.9,720.8,238.3,709.2,238.3z"/>
<path id="pair" d="M578,238.3c-11.6,0-21.1,15.6-21.1,34.7c0,19.1,9.5,34.7,21.1,34.7s21.1-15.6,21.1-34.7
	C599.1,253.9,589.6,238.3,578,238.3z"/>
</svg>
