<svg height="960" viewBox="0 0 960 960" width="960" xmlns="http://www.w3.org/2000/svg"><g fill="none" fill-rule="evenodd"><g stroke="#000" stroke-linejoin="round"><rect height="824" rx="57" stroke-width="40" width="824" x="68" y="68"/><rect height="476" rx="52" stroke-width="20" width="436" x="262" y="210"/><path d="m211 169.346245c89.359996-7.564163 179.026662-11.346245 269-11.346245s179.973338 3.782082 270 11.346245v40.653755h-539z" stroke-width="20"/><path d="m262 281c101.206057-1.333333 176.907718-2 227.104983-2s119.828937.666667 208.895017 2" stroke-width="20"/><path d="m262 615 216.39619 4 219.60381-4" stroke-width="20"/><path d="m13 313h55v338h-55z" stroke-width="20"/><path d="m892 313h55v338h-55z" stroke-width="20"/><path d="m659.25 611v-330" stroke-width="20"/><path d="m305.25 611v-330" stroke-width="20"/></g><path d="m310.282 595.5 14.492 24.5h-19.774v-24.5zm126 0 14.493 24.5h-63.551l14.493-24.5zm126 0 14.493 24.5h-63.551l14.493-24.5zm96.718 0v24.5h-19.776l14.493-24.5zm-159.422-35 17.303 29.249-17.6 29.751h-34.563l-17.6-29.752 17.303-29.248zm125.295 0 17.155 29-17.747 30h-33.563l-17.6-29.752 17.303-29.248zm-251.295 0 17.303 29.249-17.6 29.751h-33.563l-17.747-30 17.155-29zm188.704-36 17.598 29.749-17.303 29.251h-35.155l-17.303-29.251 17.598-29.749zm96.718 0v59h-5.874l-17.155-29.001 17.746-29.999zm-222.718 0 17.598 29.749-17.303 29.251h-35.155l-17.303-29.251 17.598-29.749zm-126 0 17.746 29.999-17.155 29.001h-5.873v-59zm63.296-35 17.303 29.249-17.6 29.751h-33.563l-17.747-30.001 17.155-28.999zm126 0 17.303 29.249-17.6 29.751h-34.563l-17.6-29.752 17.303-29.248zm125.295 0 17.155 28.999-17.747 30.001h-33.563l-17.6-29.752 17.303-29.248zm-188.591-36 17.598 29.749-17.303 29.251h-35.155l-17.303-29.251 17.598-29.749zm126 0 17.598 29.749-17.303 29.251h-35.155l-17.303-29.251 17.598-29.749zm96.718 0v59h-5.874l-17.155-29 17.746-30zm-348.718 0 17.746 29.999-17.155 29.001h-5.873v-59zm63.296-35 17.303 29.249-17.6 29.751h-33.563l-17.747-30 17.155-29zm126 0 17.303 29.249-17.6 29.751h-34.563l-17.6-29.752 17.303-29.248zm125.295 0 17.155 29-17.747 30h-33.563l-17.6-29.752 17.303-29.248zm-62.591-36 17.598 29.749-17.303 29.251h-35.155l-17.303-29.251 17.598-29.749zm96.718 0v59h-5.874l-17.155-29 17.746-30zm-222.718 0 17.598 29.749-17.303 29.251h-35.155l-17.303-29.251 17.598-29.749zm-126 0 17.746 29.999-17.155 29.001h-5.873v-59zm314.591-35 17.155 29-17.747 30h-33.563l-17.6-29.752 17.303-29.248zm-251.295 0 17.303 29.249-17.6 29.751h-33.563l-17.747-30 17.155-29zm126 0 17.303 29.249-17.6 29.751h-34.563l-17.6-29.752 17.303-29.248zm62.704-36 17.598 29.749-17.303 29.251h-35.155l-17.303-29.251 17.598-29.749zm96.718 0v59h-5.874l-17.155-29.001 17.746-29.999zm-222.718 0 17.598 29.749-17.303 29.251h-35.155l-16.951-28.655 17.95-30.345zm-124.704 0 13.901 23.5 3.082 5.209.115.195-17.803 30.096h-5.873v-59zm316.07-31.5 14.733 24.904-18.1 30.596h-33.563l-17.6-29.752 15.232-25.748zm-126 0 15.233 25.749-17.6 29.751h-34.563l-17.6-29.752 15.232-25.748zm-125.704 0 15.084 25.5-17.451 29.5h-34.155l-16.828-28.448-.623-1.053 15.084-25.499zm283.056 19.5h-5.874l-11.535-19.5h17.409zm-335.889-19.5-11.534 19.5h-6.577v-19.5zm251.001 0-11.535 19.5h-35.155l-11.535-19.5zm-126 0-11.535 19.5h-34.155l-11.535-19.5z" fill="#000"/></g></svg>