<?xml version="1.0" encoding="UTF-8"?>
<svg width="960px" height="960px" viewBox="0 0 960 960" version="1.1" xmlns="http://www.w3.org/2000/svg" xmlns:xlink="http://www.w3.org/1999/xlink">
    <title>nl.klikaanklikuit/drivers/ACDB-9000AZ/assets/learnmode</title>
    <style type="text/css">
    	#pair {
    		animation: pair 2s infinite;
    	}

    	@keyframes pair {
    		0%, 20%, 60%, 100% {
    			fill: rgba(255,255,255,0);
    		}
    		40% {
    			fill: #0074CC;
    		}
    	}
    </style>
    <g id="nl.klikaanklikuit/drivers/ACDB-9000AZ/assets/learnmode" stroke="none" stroke-width="1" fill="none" fill-rule="evenodd">
        <path d="M212.745561,169.281076 L222.80738,862.704687 C221.79262,875.865568 232.307876,886.935507 254.353149,895.914504 C287.421057,909.383 395.421742,945.110453 443.636454,945.110453 C491.851165,945.110453 487.650657,941.210578 509.424779,936.632017 C523.940861,933.579643 545.576812,928.247102 574.332632,920.634396 C576.074858,898.949873 578.341817,867.129707 581.13351,825.173895 C585.321049,762.240177 609.324065,558.770713 615.062242,531.729423 C618.887693,513.701897 620.542893,503.409016 620.027842,500.850779 L602.563042,155.059508 C602.154017,143.047905 600.510316,134.80888 597.63194,130.342435 C593.314376,123.642766 585.764886,119.504215 580.048759,119.504215 C576.238008,119.504215 573.591996,119.504215 572.110722,119.504215 C569.752339,84.9992278 568.573148,66.4141309 568.573148,63.748924 C568.573148,59.7511136 570.720599,51.2573913 562.672233,47.2595713 C557.306655,44.5943579 524.176377,34.087816 463.281398,15.7399456 C430.135847,14.0540827 405.794,15.7544374 390.255858,20.8410097 C374.717715,25.927582 345.698803,42.7434391 303.199121,71.2885811 L212.745561,169.281076 Z" id="Path-42" stroke="#000000" stroke-width="20"></path>
        <path d="M463.281398,15.7399456 C473.800597,183.254168 479.060197,299.650119 479.060197,364.9278 C479.060197,462.84432 455.391998,745.284826 463.281398,945.110453" id="Path-43" stroke="#000000" stroke-width="10"></path>
        <path d="M239.081436,296.362601 C239.988131,296.004025 240.854399,296.05594 241.64504,296.47349 C242.587846,296.971401 243.412477,297.933253 244.119351,299.229852 C245.668189,302.070841 246.600133,306.468365 246.600133,311.732862 L246.600133,311.732862 L246.600133,452.133185 C246.600133,457.397682 245.668189,461.795206 244.119351,464.636195 C243.412477,465.932794 242.587846,466.894646 241.64504,467.392557 C240.854399,467.810107 239.988131,467.862022 239.081436,467.503446 C236.811542,466.605757 234.830946,463.83568 233.355908,460.22019 C231.791333,456.385238 230.827216,451.558899 230.827216,446.651635 L230.827216,446.651635 L230.827216,317.214412 C230.827216,312.307148 231.791333,307.480809 233.355908,303.645856 C234.830946,300.030367 236.811542,297.26029 239.081436,296.362601 Z" id="Rectangle" stroke="#000000" stroke-width="2" fill="#000000"></path>
        <ellipse id="Oval" stroke="#000000" stroke-width="5" cx="521.008556" cy="221.056834" rx="22.4097349" ry="26.9387776"></ellipse>
        <ellipse id="oval" fill="#000000" cx="521.008556" cy="221.056834" rx="15.3290676" ry="18.1161708"></ellipse>
        <ellipse id="pair" fill="#0074CC" cx="521.008556" cy="221.056834" rx="15.3290676" ry="18.1161708"></ellipse>
        <ellipse id="Oval" stroke="#000000" stroke-width="5" cx="526.669859" cy="332.018381" rx="22.4097349" ry="26.9387776"></ellipse>
        <ellipse id="Oval" fill="#000000" cx="526.669859" cy="332.018381" rx="15.3290676" ry="18.1161708"></ellipse>
        <ellipse id="Oval" stroke="#000000" stroke-width="5" cx="526.669859" cy="447.50897" rx="22.4097349" ry="26.9387776"></ellipse>
        <ellipse id="Oval" stroke="#000000" stroke-width="5" cx="560.63768" cy="222.189095" rx="6.55808541" ry="11.0871281"></ellipse>
        <ellipse id="Oval" fill="#000000" cx="526.669859" cy="447.50897" rx="15.3290676" ry="18.1161708"></ellipse>
        <path d="M572.712492,353.531333 C576.667306,353.531333 580.638765,353.531333 584.62687,353.531333" id="Path-44" stroke="#000000" stroke-width="5" stroke-linecap="round"></path>
        <path d="M568.77522,342.208727 C574.036958,342.208727 579.320841,342.208727 584.62687,342.208727" id="Path-44" stroke="#000000" stroke-width="5" stroke-linecap="round"></path>
        <path d="M561.981656,330.88612 C569.498424,330.88612 577.046828,330.88612 584.62687,330.88612" id="Path-44" stroke="#000000" stroke-width="5" stroke-linecap="round"></path>
        <path d="M559.717982,437.402538 C560.154447,437.066437 560.737305,436.915105 561.326821,437.048539 L561.326821,437.048539 L577.672238,442.064725 C578.111476,442.199683 578.466419,442.475429 578.698549,442.827131 C578.93032,443.17829 579.039935,443.604779 578.986762,444.037226 C579.008272,444.611043 579.14067,444.731342 579.262563,444.85662 C580.335111,445.958958 581,447.863841 581,450 C581,451.718639 580.566176,453.280631 579.840802,454.40899 C579.241739,455.340866 578.439248,456 577.5,456 C576.560752,456 575.758261,455.340866 575.159198,454.40899 C574.433824,453.280631 574,451.718639 574,450 C574,448.094828 574.535072,446.384479 575.405845,445.234952 L575.405845,445.234952 L562.801039,441.362608 L562.801039,457.651612 L577.45196,460.344659 C577.89835,460.426672 578.279888,460.653924 578.552794,460.969014 C578.825511,461.283886 578.990154,461.686192 578.999338,462.114783 C580.350024,463.823133 581,465.55751 581,467.5 C581,469.069346 580.573277,470.496389 579.859788,471.526984 C579.255866,472.399317 578.440053,473 577.5,473 C576.559947,473 575.744134,472.399317 575.140212,471.526984 C574.426723,470.496389 574,469.069346 574,467.5 C574,466.02031 574.381306,464.669675 575.021328,463.650009 L575.021328,463.650009 L560.547264,460.991431 C560.119491,460.912838 559.746899,460.698766 559.474122,460.398144 C559.211559,460.108778 559.041548,459.739146 559.006685,459.33568 L559.006685,459.33568 L559,438.845513 C559,438.247428 559.287735,437.73385 559.717982,437.402538 Z" id="Combined-Shape" stroke="#000000" stroke-width="2"></path>
        <polyline id="Path-46" stroke="#000000" stroke-width="10" points="607.580429 244.024447 663.198622 255.241329 689.532033 285.999388 654.493824 353.531333 613.244552 364.376323"></polyline>
        <line x1="613.684963" y1="352.965203" x2="654.475203" y2="352.965203" id="Path-47" stroke="#000000" stroke-width="10"></line>
        <line x1="607.580429" y1="277.849741" x2="689.532033" y2="285.999388" id="Path-48" stroke="#000000" stroke-width="10"></line>
        <path d="M685.863923,295.174211 L771.76861,300.080505 C779.488658,300.521421 785.389559,307.13719 784.948643,314.857238 C784.922844,315.308952 784.875164,315.75915 784.805772,316.206247 C783.455768,324.904371 775.817267,331.220688 767.020379,330.913084 L668.768678,327.477481 L668.768678,327.477481" id="Path-49" stroke="#000000" stroke-width="10"></path>
    </g>
</svg>