<svg height="960" viewBox="0 0 960 960" width="960" xmlns="http://www.w3.org/2000/svg"><g fill="none" fill-rule="evenodd"><g fill="#000" transform="translate(416 201)"><path d="m76.7654845 57.0709026 27.8783675 9.908927c8.999778 3.1970601 19.037219-1.3744542 22.311347-10.1599409 3.274129-8.7860989-1.407586-18.5854369-10.401094-21.7861703l-38.9609971-13.8480086c-.849568-.3220325-1.792557-.3593785-2.2051147 1.0083412-3.2057866 10.6313572-3.2170724 21.7910682.1674056 33.4001552.2821443.9673219.4733755 1.1797654 1.2100857 1.4766964"/><path d="m51.0891897 11.1396659-27.8164004-10.10112003c-8.9676716-3.25464608-18.96930563 1.39921111-22.23175381 10.34294363-3.26244818 8.9462255 1.40256533 18.9202013 10.36773791 22.1785869l39.5660869 14.3691814c.5635251.1707723 1.0414594.0405117 1.2138906-.4799076 3.9434265-11.8911131 3.5604543-24.068301-.0393593-35.2806876-.2467765-.7697219-.2092915-.728587-1.0602019-1.0289967"/><path d="m76.7654845 169.070903 27.8783675 9.908927c8.999778 3.19706 19.037219-1.374455 22.311347-10.159941 3.274129-8.786099-1.407586-18.585437-10.401094-21.786171l-38.9609971-13.848008c-.849568-.322033-1.792557-.359379-2.2051147 1.008341-3.2057866 10.631357-3.2170724 21.791068.1674056 33.400155.2821443.96671.4733755 1.179153 1.2100857 1.476697"/><path d="m51.0891897 123.139666-27.8164004-10.10112c-8.9676716-3.254646-18.96930563 1.399211-22.23175381 10.342944-3.26244818 8.946225 1.40256533 18.920201 10.36773791 22.178586l39.5660869 14.369182c.5635251.170772 1.0414594.040511 1.2138906-.479908 3.9434265-11.891113 3.5604543-24.068301-.0393593-35.280687-.2467765-.770346-.2092915-.728587-1.0602019-1.028997"/><path d="m76.7654845 286.070851 27.8783675 9.908913c8.999778 3.197055 19.037219-1.37384 22.311347-10.159927 3.274129-8.786086-1.407586-18.58541-10.401094-21.786139l-38.9609971-13.847989c-.849568-.322032-1.792557-.359377-2.2051147 1.00834-3.2057866 10.631342-3.2170724 21.791037.1674056 33.400108.2821443.96732.4733755 1.179763 1.2100857 1.476694"/><path d="m51.0891897 239.139666-27.8164004-10.10112c-8.9676716-3.254646-18.96930563 1.399211-22.23175381 10.342944-3.26244818 8.946225 1.40256533 18.920201 10.36773791 22.178586l39.5660869 14.369182c.5635251.170772 1.0414594.040511 1.2138906-.479908 3.9434265-11.891113 3.5604543-24.068301-.0393593-35.280687-.2467765-.769722-.2092915-.728587-1.0602019-1.028997"/></g><rect height="918" rx="9" stroke="#000" stroke-linejoin="round" stroke-width="40" width="294" x="333" y="21"/><g fill="#000"><circle cx="480" cy="78" r="13"/><circle cx="522.5" cy="591.5" r="21.5"/></g></g></svg>