<svg height="960" viewBox="0 0 960 960" width="960" xmlns="http://www.w3.org/2000/svg"><g fill="none" fill-rule="evenodd"><g stroke="#000" stroke-linejoin="round"><path d="m55 910h260v42h-260z" stroke-width="20"/><path d="m645 910h260v42h-260z" stroke-width="20"/><path d="m335 918.5h-299v-226h6v-601.821l.4870285.4883283 66.0760525-66.1796246-.486081-.4877037h743.412244l-.485474.4877037 66.076053 66.1796246-.000823 601.1516717 4.921.000037v226.180963h-298.831402l-.000598-53.837h-288.168z" stroke-width="40"/><path d="m335.470428 26h280v105c0 18.225397-14.774604 33-33 33h-214c-18.225397 0-33-14.774603-33-33z" stroke-width="20"/></g><circle cx="258.470428" cy="131" fill="#000" r="19"/><circle cx="146.470428" cy="131" fill="#000" r="16"/><path d="m35.470428 693h290v226h-290z" stroke="#000" stroke-linejoin="round" stroke-width="20"/><path d="m633.470428 693h287v226h-287z" stroke="#000" stroke-linejoin="round" stroke-width="20"/><g fill="#000"><ellipse cx="840.029572" cy="805.5" rx="29.5" ry="29"/><ellipse cx="701.029572" cy="805.5" rx="29.5" ry="29"/></g><g fill="#000"><ellipse cx="255.029572" cy="805.5" rx="29.5" ry="29"/><ellipse cx="116.029572" cy="805.5" rx="29.5" ry="29"/></g></g></svg>