<svg height="960" viewBox="0 0 960 960" width="960" xmlns="http://www.w3.org/2000/svg"><g fill="none" fill-rule="evenodd" transform="matrix(.70710678 .70710678 -.70710678 .70710678 93.400667 -92.361309)"><circle cx="316.197872" cy="132.600505" fill="#000" r="10"/><g stroke="#000" stroke-linejoin="round"><rect height="261" rx="30" stroke-width="30" width="1077" x="143.272078" y=".686292"/><rect height="105" rx="5" stroke-linecap="square" stroke-width="15" width="43" x="108.021682" y="84.343146"/><path d="m-7.354473 113.636039h111v45h-111z" stroke-linecap="square" stroke-width="15"/></g><rect fill="#000" height="50" rx="4" width="34" x="258.892786" y="106.893398"/><g transform="matrix(.70710678 -.70710678 .70710678 .70710678 372.244511 130.482006)"><g fill="#000"><path d="m15.739873 36.5978727-.0005225 38.323-13.36038035.0009979v20.7400459l13.36038035-.0000438.0005225 38.3240413c-5.5049561-8.470371-9.19439533-15.367838-11.06831753-20.692401-1.87392221-5.324563-3.39399053-14.3578554-4.56020496-27.0998783 1.61087985-13.2423329 3.4018771-22.769536 5.37299174-28.5816093 1.97111465-5.8120734 5.38962495-12.8167909 10.25553075-21.0141527z" stroke="#000" stroke-linejoin="round" stroke-width="10"/><path d="m114.914809 86.1423005c0-6.6405678 5.382314-12.0234523 12.021704-12.0234523 6.639863 0 12.022177 5.3828845 12.022177 12.0234523 0 6.6400932-5.382314 12.0229777-12.022177 12.0229777-6.63939 0-12.021704-5.3828845-12.021704-12.0229777z" fill-rule="nonzero"/><path d="m35.007331 86.1423005c0-6.6405678 5.3822076-12.0234523 12.0219404-12.0234523s12.0219404 5.3828845 12.0219404 12.0234523c0 6.6400932-5.3822076 12.0229777-12.0219404 12.0229777s-12.0219404-5.3828845-12.0219404-12.0229777z" fill-rule="nonzero"/></g><ellipse cx="87.40805" cy="86.567148" rx="86.557971" ry="85.965987" stroke="#000" stroke-width="15"/><path d="m173.854671 36.5978727-.000523 38.323-13.36038.0009979v20.7400459l13.36038-.0000438.000523 38.3240413c-5.504956-8.470371-9.194396-15.367838-11.068318-20.692401s-3.39399-14.3578554-4.560205-27.0998783c1.61088-13.2423329 3.401877-22.769536 5.372992-28.5816093 1.971115-5.8120734 5.389625-12.8167909 10.255531-21.0141527z" fill="#000" stroke="#000" stroke-linejoin="round" stroke-width="10" transform="matrix(-1 0 0 1 332.080818 0)"/></g><g transform="matrix(.70710678 -.70710678 .70710678 .70710678 571.031936 130.482006)"><g fill="#000"><path d="m15.739873 36.5978727-.0005225 38.323-13.36038035.0009979v20.7400459l13.36038035-.0000438.0005225 38.3240413c-5.5049561-8.470371-9.19439533-15.367838-11.06831753-20.692401-1.87392221-5.324563-3.39399053-14.3578554-4.56020496-27.0998783 1.61087985-13.2423329 3.4018771-22.769536 5.37299174-28.5816093 1.97111465-5.8120734 5.38962495-12.8167909 10.25553075-21.0141527z" stroke="#000" stroke-linejoin="round" stroke-width="10"/><path d="m114.914809 86.1423005c0-6.6405678 5.382314-12.0234523 12.021704-12.0234523 6.639863 0 12.022177 5.3828845 12.022177 12.0234523 0 6.6400932-5.382314 12.0229777-12.022177 12.0229777-6.63939 0-12.021704-5.3828845-12.021704-12.0229777z" fill-rule="nonzero"/><path d="m35.007331 86.1423005c0-6.6405678 5.3822076-12.0234523 12.0219404-12.0234523s12.0219404 5.3828845 12.0219404 12.0234523c0 6.6400932-5.3822076 12.0229777-12.0219404 12.0229777s-12.0219404-5.3828845-12.0219404-12.0229777z" fill-rule="nonzero"/></g><ellipse cx="87.40805" cy="86.567148" rx="86.557971" ry="85.965987" stroke="#000" stroke-width="15"/><path d="m173.854671 36.5978727-.000523 38.323-13.36038.0009979v20.7400459l13.36038-.0000438.000523 38.3240413c-5.504956-8.470371-9.194396-15.367838-11.068318-20.692401s-3.39399-14.3578554-4.560205-27.0998783c1.61088-13.2423329 3.401877-22.769536 5.372992-28.5816093 1.971115-5.8120734 5.389625-12.8167909 10.255531-21.0141527z" fill="#000" stroke="#000" stroke-linejoin="round" stroke-width="10" transform="matrix(-1 0 0 1 332.080818 0)"/></g><g transform="matrix(.70710678 -.70710678 .70710678 .70710678 769.81936 130.482006)"><g fill="#000"><path d="m15.739873 36.5978727-.0005225 38.323-13.36038035.0009979v20.7400459l13.36038035-.0000438.0005225 38.3240413c-5.5049561-8.470371-9.19439533-15.367838-11.06831753-20.692401-1.87392221-5.324563-3.39399053-14.3578554-4.56020496-27.0998783 1.61087985-13.2423329 3.4018771-22.769536 5.37299174-28.5816093 1.97111465-5.8120734 5.38962495-12.8167909 10.25553075-21.0141527z" stroke="#000" stroke-linejoin="round" stroke-width="10"/><path d="m114.914809 86.1423005c0-6.6405678 5.382314-12.0234523 12.021704-12.0234523 6.639863 0 12.022177 5.3828845 12.022177 12.0234523 0 6.6400932-5.382314 12.0229777-12.022177 12.0229777-6.63939 0-12.021704-5.3828845-12.021704-12.0229777z" fill-rule="nonzero"/><path d="m35.007331 86.1423005c0-6.6405678 5.3822076-12.0234523 12.0219404-12.0234523s12.0219404 5.3828845 12.0219404 12.0234523c0 6.6400932-5.3822076 12.0229777-12.0219404 12.0229777s-12.0219404-5.3828845-12.0219404-12.0229777z" fill-rule="nonzero"/></g><ellipse cx="87.40805" cy="86.567148" rx="86.557971" ry="85.965987" stroke="#000" stroke-width="15"/><path d="m173.854671 36.5978727-.000523 38.323-13.36038.0009979v20.7400459l13.36038-.0000438.000523 38.3240413c-5.504956-8.470371-9.194396-15.367838-11.068318-20.692401s-3.39399-14.3578554-4.560205-27.0998783c1.61088-13.2423329 3.401877-22.769536 5.372992-28.5816093 1.971115-5.8120734 5.389625-12.8167909 10.255531-21.0141527z" fill="#000" stroke="#000" stroke-linejoin="round" stroke-width="10" transform="matrix(-1 0 0 1 332.080818 0)"/></g><g transform="matrix(.70710678 -.70710678 .70710678 .70710678 968.606785 130.482006)"><g fill="#000"><path d="m15.739873 36.5978727-.0005225 38.323-13.36038035.0009979v20.7400459l13.36038035-.0000438.0005225 38.3240413c-5.5049561-8.470371-9.19439533-15.367838-11.06831753-20.692401-1.87392221-5.324563-3.39399053-14.3578554-4.56020496-27.0998783 1.61087985-13.2423329 3.4018771-22.769536 5.37299174-28.5816093 1.97111465-5.8120734 5.38962495-12.8167909 10.25553075-21.0141527z" stroke="#000" stroke-linejoin="round" stroke-width="10"/><path d="m114.914809 86.1423005c0-6.6405678 5.382314-12.0234523 12.021704-12.0234523 6.639863 0 12.022177 5.3828845 12.022177 12.0234523 0 6.6400932-5.382314 12.0229777-12.022177 12.0229777-6.63939 0-12.021704-5.3828845-12.021704-12.0229777z" fill-rule="nonzero"/><path d="m35.007331 86.1423005c0-6.6405678 5.3822076-12.0234523 12.0219404-12.0234523s12.0219404 5.3828845 12.0219404 12.0234523c0 6.6400932-5.3822076 12.0229777-12.0219404 12.0229777s-12.0219404-5.3828845-12.0219404-12.0229777z" fill-rule="nonzero"/></g><ellipse cx="87.40805" cy="86.567148" rx="86.557971" ry="85.965987" stroke="#000" stroke-width="15"/><path d="m173.854671 36.5978727-.000523 38.323-13.36038.0009979v20.7400459l13.36038-.0000438.000523 38.3240413c-5.504956-8.470371-9.194396-15.367838-11.068318-20.692401s-3.39399-14.3578554-4.560205-27.0998783c1.61088-13.2423329 3.401877-22.769536 5.372992-28.5816093 1.971115-5.8120734 5.389625-12.8167909 10.255531-21.0141527z" fill="#000" stroke="#000" stroke-linejoin="round" stroke-width="10" transform="matrix(-1 0 0 1 332.080818 0)"/></g></g></svg>