<svg height="960" viewBox="0 0 960 960" width="960" xmlns="http://www.w3.org/2000/svg"><g fill="none" fill-rule="evenodd"><circle cx="480" cy="310" r="21" stroke="#000" stroke-linecap="round" stroke-linejoin="round" stroke-width="12.5"/><circle cx="480" cy="182" fill="#000" r="20"/><path d="m483 262v24c-19.882251 0-36 16.117749-36 36s16.117749 36 36 36v24c-33.137085 0-60-26.862915-60-60s26.862915-60 60-60z" fill="#000" transform="matrix(.92050485 -.39073113 .39073113 .92050485 -89.804122 202.598638)"/><g stroke="#000" stroke-linejoin="round"><path d="m480 22c94.992977 0 172 77.007023 172 172v526h-17v209.436508l-59.907179 9.563492h-189.105169l-60.987652-9.563492v-209.436508h-17v-526c0-94.992977 77.007023-172 172-172z" stroke-width="40"/><path d="m480.5 110c49.98177 0 90.5 40.51823 90.5 90.5v504.5h-181v-504.5c0-49.98177 40.51823-90.5 90.5-90.5z" stroke-width="20"/><path d="m383 705h194v228h-194z" stroke-width="20"/><circle cx="480" cy="826" r="25" stroke-width="20"/><path d="m325.093489 716 57.780484-11h97.626027" stroke-width="20"/><path d="m481 716 57.780484-11h97.626027" stroke-width="20" transform="matrix(-1 0 0 1 1117.406512 0)"/></g></g></svg>