<svg height="960" viewBox="0 0 960 960" width="960" xmlns="http://www.w3.org/2000/svg"><g fill="none" fill-rule="evenodd"><g fill="#000"><path d="m615 69v428h-270v-428zm-188 379h-57c-3.313708 0-6 2.686292-6 6v18c0 3.313708 2.686292 6 6 6h57c3.313708 0 6-2.686292 6-6v-18c0-3.313708-2.686292-6-6-6zm82 0h-57c-3.313708 0-6 2.686292-6 6v18c0 3.313708 2.686292 6 6 6h57c3.313708 0 6-2.686292 6-6v-18c0-3.313708-2.686292-6-6-6zm81 0h-57c-3.313708 0-6 2.686292-6 6v18c0 3.313708 2.686292 6 6 6h57c3.313708 0 6-2.686292 6-6v-18c0-3.313708-2.686292-6-6-6zm6.052632-361.0485651h-233.052632v291.9470201h233.052632z"/><rect height="30" rx="6" width="69" x="363" y="532"/><rect height="30" rx="6" width="69" x="446" y="532"/><rect height="30" rx="6" width="68" x="528" y="532"/><rect height="30" rx="6" width="69" x="363" y="597"/><rect height="30" rx="6" width="69" x="446" y="597"/><rect height="30" rx="6" width="68" x="528" y="597"/></g><path d="m619.377967 20 36.622033 5.7083978v904.0389782l-35.615937 9.252624h-279.700063l-36.684-9.058769v-904.3638406l37.643266-5.5773904z" stroke="#000" stroke-linejoin="round" stroke-width="40"/></g></svg>