<svg height="960" viewBox="0 0 960 960" width="960" xmlns="http://www.w3.org/2000/svg"><g fill="none" fill-rule="evenodd"><path d="m277.33049 939h405.33902c17.648187 0 33.778251-7.214891 45.54371-18.796691 11.575693-11.771665 18.78678-27.910238 18.78678-45.567735v-789.2711479c0-17.6574975-7.211087-33.7960704-18.78678-45.5677353-11.765459-11.5817994-27.895523-18.7966908-45.54371-18.7966908h-405.33902c-17.648187 0-33.778251 7.2148914-45.54371 18.7966908-11.575693 11.7716649-18.78678 27.9102378-18.78678 45.5677353v789.2711479c0 17.657497 7.211087 33.79607 18.78678 45.567735 11.765459 11.5818 27.895523 18.796691 45.54371 18.796691z" stroke="#000" stroke-linejoin="round" stroke-width="40"/><circle cx="477.999904" cy="763.643877" fill="#000" r="11.944174"/><g transform="translate(257 74)"><g fill="#000"><path d="m47.945 100.35-.000152 94.775h-33.449848v51.29h33.449848l.000152 94.775c-13.7820614-20.947174-23.0188429-38.004566-27.7103446-51.172175-4.6915016-13.167609-8.4971041-35.506884-11.41680745-67.017825 4.03295585-32.748204 8.51684875-56.308916 13.45167885-70.682136 4.93483-14.37322 13.4933211-31.695841 25.6754732-51.967864z" fill-rule="evenodd" stroke="#000" stroke-linejoin="round" stroke-width="10"/><path d="m291.015 221.885572c0-16.011529 12.979043-28.990572 28.989428-28.990572 16.011529 0 28.990572 12.979043 28.990572 28.990572 0 16.010385-12.979043 28.989428-28.990572 28.989428-16.010385 0-28.989428-12.979043-28.989428-28.989428z" fill-rule="nonzero"/><path d="m95.89 221.885572c0-16.011529 12.978787-28.990572 28.99-28.990572s28.99 12.979043 28.99 28.990572c0 16.010385-12.978787 28.989428-28.99 28.989428s-28.99-12.979043-28.99-28.989428z" fill-rule="nonzero"/></g><circle cx="223" cy="223" r="212.965" stroke="#000" stroke-width="15"/><path d="m436.067152 100.35-.000152 94.775h-33.449848v51.29h33.449848l.000152 94.775c-13.782061-20.947174-23.018843-38.004566-27.710345-51.172175-4.691501-13.167609-8.497104-35.506884-11.416807-67.017825 4.032956-32.748204 8.516849-56.308916 13.451679-70.682136s13.493321-31.695841 25.675473-51.967864z" fill="#000" fill-rule="evenodd" stroke="#000" stroke-linejoin="round" stroke-width="10" transform="matrix(-1 0 0 1 833.007152 0)"/></g></g></svg>