<svg height="960" viewBox="0 0 960 960" width="960" xmlns="http://www.w3.org/2000/svg"><g fill="none" fill-rule="evenodd"><g stroke="#000"><path d="m477.289512 675.530265c-73.229929 0-120.400989-3.557731-141.513179-10.673193-4.474008-1.507883-7.486821-5.702618-7.486821-10.423895l.000771-21.257384c-1.610057-7.740241-11.774888-16.296429-30.494492-25.668563l-1.733876-.859551c-27.209226-13.352687-29.186163-7.818255-55.180614-29.37156l-2.542924-2.129821c-8.56024-7.239423-13.933271-12.720672-15.138288-29.769034l-.039929-.607935-1.16016-55.576455.042405-10.739321c.151766-30.968781.524506-50.694898 1.11822-59.17835.989522-14.139088 32.071121-79.930353 37.189964-93.804238l.84085-2.256141c1.694762-4.512095 6.453715-16.809018 14.276861-36.890768 4.507751-11.571244 6.820805-23.880881 6.820827-36.299154l.000385-211.4952502 7.451082-.6182165c80.294545-6.6076235 142.123021-9.9114353 185.485426-9.9114353h2.061938 2.065046 2.677914c43.665958.1376015 105.423051 3.507806 185.271277 10.1147415l4.987317.4149103.000385 211.4567932c.000023 12.454182 2.326471 24.798776 6.859647 36.398645l2.902011 7.425909c5.439651 13.964429 9.218328 23.765704 11.33603 29.403825l.84085 2.256141c5.118843 13.873885 36.200442 79.66515 37.189965 93.804238l.077852 1.19775c.612343 10.114987.973267 33.021628 1.082772 68.719921l-1.160624 55.598695c-1.160625 18.099925-6.888968 23.39178-16.064305 31.101782l-1.656372 1.382768c-26.536002 22.002332-28.043336 15.776515-56.91449 30.231111l-1.2353.6236c-17.728079 9.024674-27.462197 17.286892-29.202355 24.786653l-.056837.25831.000771 21.257384c0 4.721277-3.012812 8.916012-7.486821 10.423895-20.901068 7.044308-67.342435 10.601683-139.324099 10.673193z" stroke-linejoin="round" stroke-width="40"/><g transform="translate(358 690)"><g stroke-linecap="round"><path d="m12 35c37.1991009 7.4243379 147.974242 19 214 19" stroke-width="18"/><path d="m17 88c42.001312 7.4794051 144.572823 18 207 18" stroke-width="18"/><path d="m0 0c7.41838643 21.7140578 11.1275797 47.9733168 11.1275797 78.7777771v70.2854759c38.4095277 58.221621 71.6306371 89.943304 99.6633283 95.165048 1.235323.230108 5.851803.771699 9.709092.771699 4.76668 0 8.919458-.600195 10.620359-.950402 27.840545-5.732224 60.757899-37.394339 98.752061-94.986345 0-16.052523 0-39.481016 0-70.2854759 0-30.8044603 3.709194-57.0637193 11.12758-78.7777771" stroke-linejoin="round" stroke-width="30"/></g><path d="m234 145-11.944558 16.929136c-14.708998 33.170334-28.24792 49.934857-40.616764 50.29357-17.867999.518196-36.693938.777294-56.477817.777294-.844425 0-1.665124-.051128-2.462099-.150511-.793816.09934-1.614847.150511-2.459623.150511-19.783879 0-38.6098178-.259098-56.4778169-.777294-12.3688445-.358713-25.9077659-17.123236-40.6167643-50.29357l-11.9445578-16.929136c32.3662569 2.153041 68.7126367 3.229561 109.039139 3.229561.844776 0 1.665807.051171 2.463093.150635.793505-.099507 1.614204-.150635 2.458629-.150635 40.326502 0 76.672882-1.07652 109.039139-3.229561z" fill="#000" stroke-width="2"/></g><path d="m228 489c112.521361 4.710456 196.583176 7.065683 252.185445 7.065683 55.602268 0 138.044254-2.355227 247.325957-7.065683" stroke-linejoin="round" stroke-width="20"/><path d="m401 144c25.289584-2.238315 50.719421-3.357473 76.289512-3.357473s51.140254 1.119158 76.710488 3.357473v207h-153z" stroke-linejoin="round" stroke-width="20"/><path d="m384.429446 351c5.780443-35.438803 9.796201-65.598021 12.047274-90.477653 2.251073-24.879631 3.540736-63.38708 3.86899-115.522347l.860343 206z" stroke-linejoin="round" stroke-width="20"/><path d="m554 351c5.780443-35.438803 9.796201-65.598021 12.047274-90.477653 2.251073-24.879631 3.540737-63.38708 3.86899-115.522347l.860343 206z" stroke-linejoin="round" stroke-width="20" transform="matrix(-1 0 0 1 1124.776608 0)"/></g><circle cx="519" cy="334" fill="#000" r="14"/></g></svg>