<svg height="960" viewBox="0 0 960 960" width="960" xmlns="http://www.w3.org/2000/svg"><g fill="none" fill-rule="evenodd"><g stroke="#000" stroke-linejoin="round"><path d="m25 250.463038 112.99344-116.492162 113.071947-110.970876h458.869226l113.071947 110.970876 112.99344 116.492162v459.073924l-112.99344 116.492162-113.071947 110.970876h-458.869226l-113.071947-110.970876-112.99344-116.492162z" stroke-width="40"/><path d="m762 393.461095c0 19.024976-15.477995 34.538905-34.458904 34.538905h-490.082192c-18.980909 0-34.458904-15.513929-34.458904-34.538905v-230.749279l74.538764-74.711816h408.944914l75.516322 75.691643z" stroke-width="20"/><rect height="105" rx="52.5" stroke-width="20" width="435" x="257" y="776"/></g><g fill="#000"><circle cx="331" cy="830" r="30"/><circle cx="403" cy="830" r="30"/><circle cx="475" cy="830" r="30"/><circle cx="547" cy="830" r="30"/><circle cx="619" cy="830" r="30"/></g></g></svg>