<svg height="960" viewBox="0 0 960 960" width="960" xmlns="http://www.w3.org/2000/svg"><g fill="none" fill-rule="evenodd"><rect height="917" rx="13" stroke="#000" stroke-linejoin="round" stroke-width="40" width="500" x="230" y="21"/><g fill="#000"><ellipse cx="487" cy="854" rx="17" ry="18"/><path d="m588.802111 724.032478c-4.817659-10.278744-13.57233-18.753294-25.072549-22.918402l-131.02997-47.455422c-11.500219-4.165108-23.663513-3.268166-33.992989 1.515522-10.298394 4.783688-18.794051 13.443813-22.990077 24.836001l-.010361.020619-.031081.103097c-4.185665 11.454046-3.294657 23.557601 1.523002 33.836344 4.817659 10.278744 13.57233 18.753295 25.072549 22.918402l131.01961 47.445112c11.510579 4.175418 23.673873 3.278476 34.003349-1.515521 10.329476-4.793998 18.845854-13.495362 23.031519-24.949408l.134688-.381457v-.01031c4.030256-11.32002 3.108167-23.27924-1.65769-33.444577z"/><path d="m588.802111 536.032478c-4.817659-10.278744-13.57233-18.753294-25.072549-22.918402l-131.02997-47.455422c-11.500219-4.165108-23.663513-3.268166-33.992989 1.515522-10.298394 4.783688-18.794051 13.443813-22.990077 24.836001l-.010361.020619-.031081.103097c-4.185665 11.454046-3.294657 23.557601 1.523002 33.836344 4.817659 10.278744 13.57233 18.753295 25.072549 22.918402l131.01961 47.445112c11.510579 4.175418 23.673873 3.278476 34.003349-1.515521 10.329476-4.793998 18.845854-13.495362 23.031519-24.949408l.134688-.381457v-.01031c4.030256-11.32002 3.108167-23.27924-1.65769-33.444577z"/></g></g></svg>