<svg height="960" viewBox="0 0 960 960" width="960" xmlns="http://www.w3.org/2000/svg"><g fill="none" fill-rule="evenodd"><g stroke="#000" stroke-linejoin="round"><path d="m688.171322 37.5682231c-9.777427-9.461732-23.069234-15.3405159-37.428738-16.553663l-345.394399-.0145601-.253687.0320322c-14.408962 1.7932213-27.619892 7.7995516-37.199489 16.9130061-10.398261 9.8932933-15.895009 22.5867839-15.895009 36.7094935v395.9157682c0 2.744287.211794 5.502551.630145 8.201993 10.601327 149.41511 23.223424 279.65807 37.517179 387.134866l.033748.255676.065749.249851c3.175743 12.083131 10.579217 23.698592 22.004446 34.524897 11.158741 10.57354 26.50681 20.71785 45.617129 30.151626l.644109.317993.71335.081536c46.201307 5.264931 80.237853 7.511262 113.808918 7.511262h.008146c38.206091 0 77.859246-3.056455 128.555936-9.909601l.667383-.08969.604543-.298773c19.052716-9.405239 33.253957-18.901915 43.416569-29.031664 9.950818-9.918337 16.379691-20.797057 19.655513-33.257586l.065167-.250434.034329-.255675c14.139565-106.321889 26.752934-236.950983 37.486923-388.241434.311873-2.337769.470718-4.723877.470718-7.096008v-395.9146032c0-14.038261-5.621846-27.2087404-15.828678-37.0863087z" stroke-width="40"/><g stroke-width="20" transform="translate(255 488)"><path d="m0 0c67.5013814 148.827823 101.252072 296.20922 101.252072 442.144193"/><path d="m342.755218 0c67.501381 148.827823 101.252072 296.20922 101.252072 442.144193" transform="matrix(-1 0 0 1 786.762508 0)"/></g><circle cx="478" cy="304" r="184" stroke-width="20"/><circle cx="478" cy="705" r="36" stroke-width="20"/></g><rect fill="#000" height="37" rx="6" width="25" x="467" y="769"/><g transform="translate(327 153)"><g fill="#000"><path d="m32.465 67.95-.0001702 64.175h-22.6498298v34.73l22.6498298-.001.0001702 64.176c-9.3322478-14.183961-15.5867501-25.734034-18.7635069-34.650217-3.1767567-8.916184-5.75364446-24.042778-7.73066332-45.379783 2.73083556-22.174793 5.76701422-38.128459 9.10853592-47.860998 3.3415216-9.7325389 9.1367331-21.4622063 17.3856343-35.189002z" fill-rule="evenodd" stroke="#000" stroke-linejoin="round" stroke-width="10"/><path d="m197.055 150.245387c0-10.841887 8.7885-19.630387 19.629613-19.630387 10.841887 0 19.630387 8.7885 19.630387 19.630387 0 10.841113-8.7885 19.629613-19.630387 19.629613-10.841113 0-19.629613-8.7885-19.629613-19.629613z" fill-rule="nonzero"/><path d="m64.93 150.245387c0-10.841887 8.7883264-19.630387 19.63-19.630387s19.63 8.7885 19.63 19.630387c0 10.841113-8.7883264 19.629613-19.63 19.629613s-19.63-8.7885-19.63-19.629613z" fill-rule="nonzero"/></g><circle cx="151" cy="151" r="144.205" stroke="#000" stroke-width="15"/><path d="m295.27417 67.95-.00017 64.175h-22.64983v34.73l22.64983-.001.00017 64.176c-9.332248-14.183961-15.58675-25.734034-18.763507-34.650217-3.176756-8.916184-5.753644-24.042778-7.730663-45.379783 2.730836-22.174793 5.767014-38.128459 9.108536-47.860998 3.341522-9.7325389 9.136733-21.4622063 17.385634-35.189002z" fill="#000" fill-rule="evenodd" stroke="#000" stroke-linejoin="round" stroke-width="10" transform="matrix(-1 0 0 1 564.05417 0)"/></g><rect height="452" rx="44" stroke="#000" stroke-linejoin="round" stroke-width="20" width="452" x="252" y="78"/></g></svg>