<svg height="960" viewBox="0 0 960 960" width="960" xmlns="http://www.w3.org/2000/svg"><g fill="none" fill-rule="evenodd"><g fill="#000"><rect height="21.345654" rx="10.672827" width="60.83868" x="404" y="474.81606"/><rect height="21.345654" rx="10.672827" width="60.83868" x="404" y="410.067575"/><rect height="21.345654" rx="10.672827" width="60.83868" x="404" y="345.378383"/><rect height="21.345654" rx="10.672827" width="60.83868" x="404" y="280.689192"/><rect height="21.345654" rx="10.672827" width="60.83868" x="404" y="216"/><rect height="21.345654" rx="10.672827" width="60.83868" x="494.455163" y="474.81606"/><rect height="21.345654" rx="10.672827" width="60.83868" x="494.455163" y="410.067575"/><rect height="21.345654" rx="10.672827" width="60.83868" x="494.455163" y="345.378383"/><rect height="21.345654" rx="10.672827" width="60.83868" x="494.455163" y="280.689192"/><rect height="21.345654" rx="10.672827" width="60.83868" x="494.455163" y="216"/><path d="m508.073987 534.465305c6.95809 0 12.54835 5.395707 12.54835 12.036578 0 6.700163-5.59026 12.09587-12.54835 12.09587h-56.318895c-6.958089 0-12.548349-5.395707-12.548349-12.09587 0-6.640871 5.59026-12.036578 12.548349-12.036578zm-56.318895 2.036578c-5.522847 0-10 4.477152-10 10 0 5.522847 4.477153 10 10 10 5.522848 0 10-4.477153 10-10 0-5.522848-4.477152-10-10-10z"/></g><rect height="918" rx="39" stroke="#000" stroke-linejoin="round" stroke-width="40" width="290" x="335" y="21"/></g></svg>