<svg height="960" viewBox="0 0 960 960" width="960" xmlns="http://www.w3.org/2000/svg"><g fill="none" fill-rule="evenodd" stroke="#000"><path d="m636 791c-23.196576 7.968913-76.806086 10.882368-151.391055 11-74.58383-.117632-131.412369-3.031087-154.608945-11" stroke-width="20"/><path d="m657 549c-26.456226 7.968913-87.599099 10.882368-172.664961 11-85.064565-.117632-149.878813-3.031087-176.335039-11" stroke-width="20"/><path d="m386.261811 851-.439115-.010695c-14.316236-.689938-39.74065-34.579881-54.470275-49.501261l-1.300844-1.303705c-2.36723-2.421718-2.81531-3.763632-2.922567-7.976486l-.088364-3.241931c-1.496429-52.492432-5.552373-83.134585-5.552373-186.858977 0-24.580762-7.083058-42.536042-23.900308-53.91071-31.044691-23.34092-109.404165-23.34092-166.745867-459.4473139-12.653354-4.2428867-20.667481-9.4959609-21.259494-18.9683795l-.017983-.3401c-.042456-.9628262-.105291-1.9018474-.17373-2.818339l-.139972-1.8033213c-.057787-.7391822-.112037-1.463014-.155672-2.173857-.064863-1.0662645-.095247-2.1018281-.095247-3.1090525.015053-.3601447.028025-.716747.049253-1.0709877.076657-1.2929786.26535-2.5422674.628583-3.7537706.185155-.6175596.416304-1.224492.701702-1.8231588 1.872777-3.9344333 6.221213-7.3680806 15.228692-10.9672919 41.623921-16.6320985 303.770805-20.2574709 356.996844-20.8713883 53.226038-.6139175 310.579014 4.4056108 351.786696 20.8713883l.964257.3920165c8.356198 3.4575768 12.459759 6.7839124 14.264435 10.5752754.285398.5986668.516547 1.2055992.701702 1.8231588.363233 1.2115032.551926 2.460792.628583 3.7537706.021228.3542407.0342.710843.049253 1.0709877 0 1.0072244-.030384 2.042788-.095247 3.1090525-.02909.4738953-.062898.9535635-.099326 1.4397041l-.196318 2.5374742c-.045626.6109944-.088761 1.232002-.125028 1.8634006l-.048702.9549384c-.419841 9.6873022-8.473488 15.0150823-21.277477 19.3084795-57.341702 436.1063939-130.240168 436.1063939-161.284859 459.4473139-16.81725 11.374668-23.900308 29.329948-23.900308 53.91071 0 104.782804-4.13914 134.984286-5.597375 188.472814l-.043362 1.628094c-.107257 4.212854-.555337 5.554768-2.922567 7.976486l-1.300844 1.303705c-14.729625 14.92138-40.154038 48.811323-54.470275 49.501261l-.439115.010695z" stroke-width="40"/><g stroke-linejoin="round"><path d="m480.871093 290.633692c-25.493378.14737-55.043327 6.410597-88.649849 18.789679-4.626767 1.704286-9.519054 2.576629-14.450296 2.576629-22.838763 0-41.396482-18.311779-41.765352-41.040853l-.005596-.690097v-249.26905h143.586502 146.413498v249.26905c0 23.047367-18.70149 41.73095-41.770948 41.73095-4.931242 0-9.823529-.872343-14.450296-2.576629l-2.422321-.88422c-32.595876-11.789514-61.330706-17.757955-86.20449-17.905324z" stroke-width="20"/><path d="m421.5 854v85.020432" stroke-linecap="round" stroke-width="40"/><path d="m539.5 854v85.020432" stroke-linecap="round" stroke-width="40"/></g></g></svg>