<svg height="960" viewBox="0 0 960 960" width="960" xmlns="http://www.w3.org/2000/svg"><g fill="none" fill-rule="evenodd" stroke="#000" stroke-linejoin="round"><rect height="917" rx="37" stroke-width="40" width="917" x="20" y="23"/><path d="m177 216c8.867941 77.847122 13.301911 166.175452 13.301911 264.984989 0 98.809538-4.43397 186.481208-13.301911 263.015011" stroke-linecap="round" stroke-width="20"/><path d="m179.368554 818c-22.703776 0-42.011992-16.56441-45.4649-39.004082-19.269103-125.225591-28.903654-224.390897-28.903654-297.495918s9.634551-172.270326 28.903653-297.495917c3.452908-22.439672 22.761124-39.004082 45.4649-39.004083h597.262894c22.703776.000001 42.011992 16.564411 45.4649 39.004083 19.269102 125.225591 28.903653 224.390896 28.903653 297.495917s-9.634551 172.270327-28.903654 297.495918c-3.452908 22.439672-22.761124 39.004082-45.4649 39.004082z" stroke-width="40" transform="matrix(-1 0 0 1 956 0)"/><g stroke-linecap="round" stroke-width="20"><path d="m765.698089 216c8.867941 77.847122 13.301911 166.175452 13.301911 264.984989 0 98.809538-4.43397 186.481208-13.301911 263.015011" transform="matrix(-1 0 0 1 1544.698088 0)"/><path d="m251 482 457.399122-1.5"/></g></g></svg>