<?xml version="1.0" standalone="no"?><!-- Generator: Gravit.io --><svg xmlns="http://www.w3.org/2000/svg" xmlns:xlink="http://www.w3.org/1999/xlink" style="isolation:isolate" viewBox="0 0 848.558 781.305" width="848.558" height="781.305">
<style type="text/css">
	#pair {
		animation: pair 2s infinite;
	}

	@keyframes pair {
		0%, 20%, 80%, 100% {
			fill: rgba(255,255,255,0);
		}
		50% {
			fill: #0074CC;
		}
	}
</style>
	<g>
		<g id="Group"><g id="Group"><path d=" M 507.614 377.649 C 505.894 377.649 473.293 398.665 467.846 401.131 C 467.787 408.815 467.747 416.488 467.691 424.161 C 467.748 431.834 467.788 439.507 467.846 447.193 C 473.293 449.657 505.894 470.674 507.614 470.674 C 509.54 470.757 543.233 447.569 547.716 445.69 C 547.716 438.501 547.698 431.33 547.643 424.161 C 547.698 416.992 547.716 409.822 547.716 402.632 C 543.233 400.754 509.54 377.564 507.614 377.649 Z " fill="rgb(0,0,0)"/><path d=" M 341.45 470.674 C 343.17 470.674 375.771 449.658 381.218 447.193 C 381.276 439.507 381.317 431.834 381.373 424.161 C 381.316 416.488 381.276 408.815 381.218 401.131 C 375.771 398.665 343.17 377.649 341.45 377.649 C 339.524 377.565 305.831 400.754 301.348 402.632 C 301.348 409.822 301.366 416.992 301.421 424.161 C 301.366 431.33 301.348 438.501 301.348 445.69 C 305.831 447.571 339.524 470.759 341.45 470.674 Z " fill="rgb(0,0,0)"/><path d=" M 284.628 527.241 C 287.352 529.12 304.952 542.074 306.127 542.074 C 306.754 542.114 321.672 533.716 323.685 532.631 C 328.21 530.081 332.819 527.452 337.427 524.692 C 338.185 524.234 339.023 523.773 339.858 523.313 C 340.697 522.855 341.618 522.646 341.576 521.476 C 340.739 506.687 340.404 487.844 339.858 473.558 C 334.453 470.8 301.266 448.447 299.714 448.407 C 298.836 448.447 268.705 463.906 262.377 466.454 C 261.582 466.915 260.827 467.373 260.073 467.833 C 260.659 482.289 261.708 496.827 263.426 511.324 C 265.982 513.788 280.565 524.15 284.628 527.241 Z " fill="rgb(0,0,0)"/><path d=" M 509.207 473.557 C 508.661 487.843 508.326 506.686 507.489 521.475 C 507.447 522.645 508.368 522.854 509.207 523.312 C 510.042 523.773 510.881 524.232 511.638 524.691 C 516.246 527.451 520.855 530.08 525.38 532.63 C 527.393 533.715 542.311 542.113 542.938 542.073 C 544.112 542.073 561.712 529.12 564.437 527.24 C 568.5 524.149 583.082 513.787 585.639 511.322 C 587.357 496.824 588.406 482.285 588.992 467.831 C 588.238 467.371 587.482 466.912 586.688 466.452 C 580.36 463.904 550.229 448.444 549.351 448.405 C 547.799 448.446 514.612 470.798 509.207 473.557 Z " fill="rgb(0,0,0)"/><path d=" M 422.537 475.019 C 415.916 470.799 409.254 466.535 402.59 462.361 C 400.286 460.857 383.775 450.117 382.854 450.075 C 382.728 450.075 345.935 471.551 343.001 473.888 C 342.792 487.091 343.672 508.521 344.636 522.475 C 348.828 525.151 384.194 548.506 385.199 548.545 C 385.535 548.589 421.069 525.985 422.621 524.398 C 422.452 507.938 422.452 491.437 422.537 475.019 Z " fill="rgb(0,0,0)"/><path d=" M 466.211 450.077 C 465.289 450.118 448.778 460.857 446.475 462.362 C 439.811 466.537 433.149 470.799 426.528 475.02 C 426.613 491.438 426.613 507.939 426.445 524.401 C 427.997 525.988 463.531 548.591 463.867 548.547 C 464.871 548.508 500.238 525.153 504.43 522.478 C 505.394 508.525 506.273 487.094 506.065 473.891 C 503.129 471.552 466.336 450.077 466.211 450.077 Z " fill="rgb(0,0,0)"/><path d=" M 382.854 398.246 C 383.776 398.206 400.286 387.467 402.59 385.962 C 409.254 381.786 415.916 377.525 422.537 373.304 C 422.452 356.886 422.452 340.385 422.62 323.924 C 421.068 322.335 385.534 299.732 385.198 299.776 C 384.193 299.816 348.827 323.172 344.635 325.845 C 343.671 339.799 342.792 361.229 343 374.433 C 345.935 376.772 382.728 398.246 382.854 398.246 Z " fill="rgb(0,0,0)"/><path d=" M 339.858 374.768 C 340.404 360.481 340.739 341.638 341.576 326.85 C 341.618 325.679 340.697 325.471 339.858 325.013 C 339.023 324.553 338.184 324.092 337.427 323.634 C 332.819 320.874 328.21 318.245 323.685 315.695 C 321.672 314.61 306.754 306.212 306.127 306.252 C 304.953 306.252 287.353 319.205 284.628 321.084 C 280.565 324.176 265.982 334.537 263.426 337.001 C 261.708 351.499 260.659 366.038 260.073 380.492 C 260.827 380.953 261.583 381.411 262.377 381.871 C 268.705 384.42 298.836 399.879 299.714 399.919 C 301.265 399.879 334.453 377.525 339.858 374.768 Z " fill="rgb(0,0,0)"/><path d=" M 549.351 399.918 C 550.229 399.879 580.36 384.419 586.688 381.871 C 587.483 381.41 588.238 380.952 588.992 380.492 C 588.406 366.035 587.357 351.497 585.639 337.001 C 583.082 334.536 568.499 324.174 564.437 321.083 C 561.713 319.203 544.113 306.251 542.938 306.251 C 542.311 306.21 527.393 314.608 525.38 315.694 C 520.855 318.244 516.246 320.872 511.638 323.632 C 510.88 324.09 510.042 324.552 509.207 325.011 C 508.368 325.469 507.447 325.679 507.489 326.848 C 508.326 341.637 508.661 360.48 509.207 374.766 C 514.612 377.525 547.799 399.879 549.351 399.918 Z " fill="rgb(0,0,0)"/><path d=" M 384.591 424.162 C 384.543 431.852 384.503 439.548 384.446 447.235 C 389.724 449.698 422.745 472.052 424.336 471.843 L 424.532 471.722 L 424.728 471.843 C 426.319 472.052 459.34 449.698 464.618 447.235 C 464.561 439.548 464.521 431.852 464.473 424.162 C 464.521 416.471 464.561 408.775 464.618 401.089 C 459.34 398.624 426.319 376.271 424.728 376.48 L 424.532 376.601 L 424.336 376.48 C 422.745 376.271 389.724 398.624 384.446 401.089 C 384.503 408.775 384.543 416.471 384.591 424.162 Z " fill="rgb(0,0,0)"/><path d=" M 426.527 373.304 C 433.148 377.525 439.81 381.788 446.474 385.963 C 448.778 387.467 465.289 398.206 466.21 398.248 C 466.335 398.248 503.129 376.772 506.063 374.435 C 506.272 361.232 505.392 339.801 504.428 325.848 C 500.236 323.173 464.87 299.818 463.865 299.779 C 463.529 299.735 427.995 322.338 426.443 323.926 C 426.612 340.386 426.612 356.886 426.527 373.304 Z " fill="rgb(0,0,0)"/><path d=" M 597.152 236.255 L 251.912 236.255 C 229.055 236.255 210.46 254.851 210.46 277.708 L 210.46 297.411 L 210.46 301.486 L 210.46 546.926 L 210.46 551.179 L 210.46 570.704 C 210.46 593.56 229.055 612.156 251.912 612.156 L 597.153 612.156 C 620.009 612.156 638.605 593.56 638.605 570.704 L 638.605 551.179 L 638.605 546.926 L 638.605 301.486 L 638.605 297.41 L 638.605 277.708 C 638.604 254.851 620.009 236.255 597.152 236.255 Z  M 214.711 301.495 L 248.858 300.117 L 248.858 548.311 C 237.508 547.942 226.048 547.533 214.711 547.092 L 214.711 301.495 Z  M 634.353 570.704 C 634.353 591.217 617.665 607.904 597.153 607.904 L 251.912 607.904 C 231.4 607.904 214.712 591.216 214.712 570.704 L 214.712 551.35 L 253.111 552.9 L 253.111 552.698 C 309.552 554.489 366.934 555.401 423.71 555.401 L 425.356 555.401 C 482.131 555.401 539.512 554.489 595.955 552.698 L 595.955 552.9 L 634.353 551.35 L 634.353 570.704 Z  M 258.522 464.487 C 260.408 464.74 292.298 447.819 298.165 445.646 C 298.165 438.492 298.182 431.325 298.244 424.16 C 298.182 416.996 298.165 409.831 298.165 402.674 C 292.298 400.501 260.408 383.582 258.522 383.833 C 258.167 383.862 256.115 385.139 253.11 387.124 L 253.11 384.035 L 256.929 381.409 C 257.6 366.286 258.815 351.163 260.7 335.953 C 269.417 328.725 298.665 308.839 305.034 303.618 C 305.409 301.931 305.801 300.243 306.201 298.554 C 307.096 298.535 307.991 298.516 308.886 298.496 C 308.586 299.799 308.294 301.102 308.009 302.405 C 308.009 303.657 314.881 306.833 316.221 307.501 C 324.982 312.391 333.991 317.53 343.169 322.877 C 356.455 314.364 369.659 305.891 382.781 297.42 C 384.591 297.405 386.399 297.399 388.209 297.386 C 389.048 298.05 390.169 298.641 390.98 299.229 C 401.751 306.246 412.772 313.393 423.919 320.578 C 424.007 320.6 424.222 320.534 424.532 320.393 C 424.841 320.534 425.056 320.598 425.145 320.578 C 436.292 313.393 447.313 306.247 458.084 299.229 C 458.894 298.642 460.016 298.049 460.855 297.386 C 462.665 297.399 464.473 297.405 466.283 297.42 C 479.405 305.891 492.609 314.364 505.895 322.877 C 515.073 317.53 524.082 312.391 532.843 307.501 C 534.183 306.833 541.055 303.659 541.055 302.405 C 540.77 301.102 540.478 299.799 540.178 298.496 C 541.073 298.515 541.968 298.535 542.863 298.554 C 543.263 300.243 543.655 301.932 544.03 303.618 C 550.399 308.839 579.647 328.725 588.364 335.953 C 590.249 351.161 591.465 366.285 592.135 381.409 L 595.954 384.035 L 595.954 387.124 C 592.949 385.14 590.897 383.862 590.542 383.833 C 588.656 383.582 556.766 400.501 550.899 402.674 C 550.899 409.829 550.881 416.996 550.82 424.16 C 550.882 431.326 550.899 438.492 550.899 445.646 C 556.766 447.819 588.656 464.74 590.542 464.487 C 590.897 464.459 592.948 463.183 595.954 461.198 L 595.954 464.285 L 592.135 466.913 C 591.464 482.035 590.249 497.159 588.364 512.369 C 579.647 519.596 550.398 539.482 544.03 544.703 C 543.648 546.42 543.25 548.137 542.843 549.856 C 541.948 549.876 541.053 549.895 540.158 549.914 C 540.465 548.58 540.764 547.249 541.055 545.915 C 541.055 544.663 534.183 541.488 532.843 540.82 C 524.082 535.93 515.073 530.791 505.895 525.444 C 492.562 533.987 479.313 542.49 466.145 550.991 C 464.417 551.004 462.691 551.01 460.963 551.022 C 460.116 550.322 458.93 549.705 458.084 549.093 C 447.313 542.075 436.292 534.929 425.145 527.744 C 425.057 527.722 424.841 527.788 424.532 527.929 C 424.223 527.788 424.008 527.723 423.919 527.744 C 412.772 534.929 401.751 542.074 390.98 549.093 C 390.134 549.705 388.948 550.322 388.101 551.022 C 386.373 551.01 384.647 551.004 382.919 550.991 C 369.752 542.49 356.502 533.987 343.169 525.444 C 333.991 530.792 324.982 535.931 316.221 540.82 C 314.881 541.488 308.009 544.663 308.009 545.915 C 308.301 547.249 308.599 548.58 308.906 549.914 C 308.011 549.895 307.116 549.875 306.221 549.856 C 305.813 548.137 305.416 546.42 305.034 544.703 C 298.665 539.482 269.417 519.596 260.7 512.369 C 258.814 497.16 257.599 482.035 256.929 466.913 L 253.11 464.285 L 253.11 461.198 C 256.115 463.183 258.167 464.461 258.522 464.487 Z  M 634.353 547.091 C 623.021 547.531 611.561 547.941 600.207 548.31 L 600.207 300.117 L 634.353 301.495 L 634.353 547.091 Z  M 634.353 297.064 C 622.268 296.594 610.116 296.163 598.194 295.78 L 595.954 295.69 L 595.954 295.713 C 539.498 293.922 482.116 293.01 425.354 293.01 L 423.709 293.01 C 366.947 293.01 309.565 293.922 253.109 295.713 L 253.109 295.69 L 250.869 295.78 C 238.953 296.162 226.8 296.594 214.71 297.064 L 214.71 277.708 C 214.71 257.195 231.398 240.507 251.91 240.507 L 597.151 240.507 C 617.664 240.507 634.351 257.195 634.351 277.708 L 634.351 297.064 L 634.353 297.064 Z " fill="rgb(0,0,0)"/><g id="Group"><path d=" M 740.066 153.248 L 108.491 153.248 C 80.747 153.248 58.176 167.894 58.176 185.898 L 58.176 595.407 C 58.176 613.411 80.747 628.057 108.491 628.057 L 740.066 628.057 C 767.81 628.057 790.381 613.411 790.381 595.407 L 790.381 185.898 C 790.382 167.895 767.811 153.248 740.066 153.248 Z  M 786.13 595.407 C 786.13 611.889 765.466 625.298 740.067 625.298 L 108.491 625.298 C 83.092 625.298 62.428 611.889 62.428 595.407 L 62.428 185.898 C 62.428 169.416 83.092 156.007 108.491 156.007 L 740.066 156.007 C 765.465 156.007 786.129 169.416 786.129 185.898 L 786.129 595.407 L 786.13 595.407 Z " fill="rgb(0,0,0)"/><path d=" M 815.185 288.057 L 815.185 185.898 C 815.185 159.02 781.486 137.152 740.066 137.152 L 108.491 137.152 C 67.071 137.152 33.373 159.02 33.373 185.898 L 33.373 288.057 L 0 288.057 L 0 493.248 L 33.373 493.248 L 33.373 595.407 C 33.373 622.285 67.071 644.152 108.491 644.152 L 740.066 644.152 C 781.486 644.152 815.184 622.285 815.184 595.407 L 815.184 493.248 L 848.557 493.248 L 848.557 288.057 L 815.185 288.057 Z  M 33.373 490.489 L 4.252 490.489 L 4.252 290.816 L 33.373 290.816 L 33.373 490.489 Z  M 806.681 595.407 C 806.681 619.243 776.798 638.634 740.067 638.634 L 108.491 638.634 C 71.76 638.634 41.877 619.243 41.877 595.407 L 41.877 185.898 C 41.877 162.062 71.76 142.671 108.491 142.671 L 740.066 142.671 C 776.797 142.671 806.68 162.062 806.68 185.898 L 806.68 595.407 L 806.681 595.407 Z  M 844.306 490.489 L 815.185 490.489 L 815.185 290.816 L 844.306 290.816 L 844.306 490.489 Z " fill="rgb(0,0,0)"/></g>
		</g><path d=" M 670.825 181.779 C 592.132 174.413 510.755 170.678 428.957 170.678 C 347.163 170.678 262.643 174.412 177.745 181.777 L 175.803 181.945 L 175.803 235.252 L 178.057 235.116 C 186.301 234.619 194.54 234.152 202.774 233.702 L 647.497 233.702 C 655.183 234.152 662.853 234.618 670.49 235.115 L 672.754 235.262 L 672.754 181.957 L 670.825 181.779 Z  M 180.054 185.846 C 264.179 178.603 347.909 174.931 428.957 174.931 C 509.956 174.931 590.538 178.599 668.501 185.833 L 668.501 230.727 C 590.53 225.701 509.952 223.153 428.957 223.153 C 347.905 223.153 264.176 225.705 180.054 230.737 L 180.054 185.846 L 180.054 185.846 Z " fill="rgb(0,0,0)"/>
		<path id="pair" d=" M 344.382 325.847 C 343.418 339.799 342.539 361.231 342.747 374.434 C 345.681 376.772 382.475 398.246 382.6 398.246 C 383.522 398.206 400.032 387.467 402.336 385.962 C 409 381.786 415.662 377.525 422.283 373.304 C 422.198 356.886 422.198 340.385 422.366 323.924 C 420.814 322.335 385.28 299.732 384.945 299.776 C 383.941 299.817 348.574 323.172 344.382 325.847 Z  M 263.172 337.001 C 261.454 351.498 260.405 366.037 259.819 380.492 C 260.573 380.952 261.329 381.41 262.123 381.871 C 268.451 384.419 298.582 399.878 299.46 399.918 C 301.012 399.879 334.2 377.526 339.604 374.767 C 340.15 360.48 340.484 341.637 341.322 326.849 C 341.364 325.678 340.443 325.47 339.604 325.011 C 338.769 324.551 337.93 324.09 337.173 323.632 C 332.565 320.872 327.956 318.243 323.431 315.693 C 321.418 314.608 306.5 306.21 305.873 306.25 C 304.699 306.25 287.099 319.203 284.374 321.082 C 280.312 324.174 265.729 334.536 263.172 337.001 Z  M 344.382 522.477 C 343.418 508.524 342.539 487.093 342.747 473.89 C 345.681 471.552 382.475 450.077 382.6 450.077 C 383.522 450.119 400.032 460.858 402.336 462.362 C 409 466.537 415.662 470.799 422.283 475.02 C 422.198 491.438 422.198 507.939 422.366 524.401 C 420.814 525.988 385.28 548.591 384.945 548.548 C 383.941 548.507 348.574 525.152 344.382 522.477 Z  M 263.172 511.323 C 261.454 496.826 260.405 482.287 259.819 467.832 C 260.573 467.372 261.329 466.913 262.123 466.453 C 268.451 463.905 298.582 448.446 299.46 448.405 C 301.012 448.446 334.2 470.799 339.604 473.557 C 340.15 487.843 340.484 506.686 341.322 521.475 C 341.364 522.645 340.443 522.854 339.604 523.312 C 338.769 523.771 337.93 524.232 337.173 524.691 C 332.565 527.451 327.956 530.08 323.431 532.63 C 321.418 533.716 306.5 542.113 305.873 542.073 C 304.699 542.073 287.099 529.12 284.374 527.24 C 280.312 524.15 265.729 513.788 263.172 511.323 Z  M 301.168 424.162 C 301.113 416.993 301.095 409.822 301.095 402.633 C 305.578 400.754 339.271 377.566 341.197 377.649 C 342.917 377.649 375.518 398.666 380.965 401.131 C 381.023 408.816 381.064 416.489 381.119 424.162 C 381.062 431.835 381.023 439.508 380.965 447.194 C 375.518 449.659 342.917 470.676 341.196 470.676 C 339.27 470.759 305.577 447.571 301.095 445.692 C 301.095 438.501 301.113 431.331 301.168 424.162 Z  M 504.176 325.847 C 505.14 339.799 506.019 361.231 505.811 374.434 C 502.876 376.772 466.083 398.246 465.958 398.246 C 465.035 398.206 448.525 387.467 446.222 385.962 C 439.558 381.786 432.895 377.525 426.275 373.304 C 426.359 356.886 426.359 340.385 426.191 323.924 C 427.744 322.335 463.278 299.732 463.614 299.776 C 464.618 299.817 499.984 323.172 504.176 325.847 Z  M 585.386 337.001 C 587.103 351.498 588.153 366.037 588.738 380.492 C 587.985 380.952 587.228 381.41 586.435 381.871 C 580.107 384.419 549.976 399.878 549.098 399.918 C 547.546 399.879 514.358 377.526 508.954 374.767 C 508.408 360.48 508.073 341.637 507.236 326.849 C 507.194 325.678 508.115 325.47 508.954 325.011 C 509.789 324.551 510.628 324.09 511.385 323.632 C 515.993 320.872 520.602 318.243 525.127 315.693 C 527.14 314.608 542.058 306.21 542.685 306.25 C 543.859 306.25 561.459 319.203 564.184 321.082 C 568.247 324.174 582.829 334.536 585.386 337.001 Z  M 504.176 522.477 C 505.14 508.524 506.019 487.093 505.811 473.89 C 502.876 471.552 466.083 450.077 465.958 450.077 C 465.035 450.119 448.525 460.858 446.222 462.362 C 439.558 466.537 432.895 470.799 426.275 475.02 C 426.359 491.438 426.359 507.939 426.191 524.401 C 427.744 525.988 463.278 548.591 463.614 548.548 C 464.618 548.507 499.984 525.152 504.176 522.477 Z  M 585.386 511.323 C 587.103 496.826 588.153 482.287 588.738 467.832 C 587.985 467.372 587.228 466.913 586.435 466.453 C 580.107 463.905 549.976 448.446 549.098 448.405 C 547.546 448.446 514.358 470.799 508.954 473.557 C 508.408 487.843 508.073 506.686 507.236 521.475 C 507.194 522.645 508.115 522.854 508.954 523.312 C 509.789 523.771 510.628 524.232 511.385 524.691 C 515.993 527.451 520.602 530.08 525.127 532.63 C 527.14 533.716 542.058 542.113 542.685 542.073 C 543.859 542.073 561.459 529.12 564.184 527.24 C 568.247 524.15 582.829 513.788 585.386 511.323 Z  M 467.438 424.162 C 467.495 416.489 467.535 408.816 467.593 401.131 C 473.04 398.666 505.641 377.649 507.36 377.649 C 509.286 377.565 542.979 400.754 547.462 402.632 C 547.462 409.822 547.444 416.992 547.39 424.161 C 547.444 431.33 547.462 438.501 547.462 445.69 C 542.979 447.569 509.286 470.757 507.36 470.674 C 505.64 470.674 473.039 449.657 467.592 447.193 C 467.534 439.508 467.494 431.835 467.438 424.162 Z  M 424.279 471.722 L 424.083 471.843 C 422.492 472.052 389.47 449.698 384.193 447.235 C 384.25 439.548 384.29 431.852 384.338 424.162 C 384.29 416.471 384.249 408.775 384.193 401.089 C 389.471 398.624 422.492 376.271 424.083 376.48 L 424.279 376.601 L 424.475 376.48 C 426.066 376.271 459.087 398.624 464.365 401.089 C 464.308 408.776 464.268 416.471 464.22 424.162 C 464.268 431.852 464.308 439.548 464.365 447.235 C 459.087 449.698 426.066 472.052 424.475 471.843 L 424.279 471.722 Z  M 305.99 298.381 C 288.263 298.82 270.553 299.361 252.858 300 L 252.858 384.038 L 256.677 381.41 C 257.348 366.289 258.563 351.165 260.448 335.954 C 269.165 328.727 298.413 308.842 304.782 303.621 C 305.171 301.875 305.575 300.129 305.99 298.381 Z  M 382.992 297.101 C 358.19 297.314 333.416 297.716 308.675 298.316 C 308.36 299.681 308.055 301.044 307.757 302.409 C 307.757 303.661 314.629 306.836 315.969 307.505 C 324.73 312.394 333.739 317.534 342.917 322.881 C 356.282 314.317 369.566 305.792 382.766 297.27 L 382.992 297.101 Z  M 461.005 297.063 C 448.771 296.972 436.529 296.926 424.279 296.928 C 412.029 296.926 399.787 296.972 387.553 297.063 C 388.395 297.867 389.785 298.549 390.728 299.232 C 401.499 306.25 412.52 313.395 423.667 320.581 C 423.755 320.602 423.97 320.537 424.28 320.395 C 424.589 320.537 424.804 320.602 424.893 320.581 C 436.04 313.395 447.061 306.251 457.832 299.232 C 458.773 298.549 460.163 297.867 461.005 297.063 Z  M 539.882 298.315 C 515.141 297.716 490.368 297.313 465.566 297.1 L 465.792 297.269 C 478.992 305.791 492.275 314.316 505.641 322.88 C 514.819 317.532 523.827 312.393 532.589 307.504 C 533.929 306.835 540.801 303.661 540.801 302.408 C 540.503 301.044 540.197 299.679 539.882 298.315 Z  M 595.7 384.038 L 595.7 300 C 578.005 299.361 560.296 298.819 542.569 298.381 C 542.984 300.129 543.388 301.875 543.777 303.621 C 550.146 308.843 579.393 328.729 588.111 335.956 C 589.996 351.165 591.212 366.289 591.882 381.412 L 595.7 384.038 Z  M 595.7 461.198 L 595.7 443.193 L 595.7 405.131 L 595.7 387.126 C 592.696 385.142 590.643 383.864 590.288 383.836 C 588.402 383.583 556.513 400.504 550.645 402.677 C 550.645 409.832 550.627 416.998 550.566 424.163 C 550.629 431.328 550.645 438.494 550.645 445.649 C 556.512 447.822 588.402 464.742 590.288 464.49 C 590.644 464.461 592.696 463.183 595.7 461.198 Z  M 542.569 549.943 C 560.296 549.504 578.006 548.963 595.7 548.324 L 595.7 464.285 L 591.882 466.913 C 591.21 482.035 589.996 497.159 588.111 512.369 C 579.394 519.596 550.145 539.482 543.777 544.703 C 543.388 546.449 542.983 548.195 542.569 549.943 Z  M 465.566 551.223 C 490.368 551.011 515.141 550.608 539.882 550.009 C 540.198 548.644 540.503 547.281 540.801 545.915 C 540.801 544.663 533.929 541.488 532.589 540.82 C 523.828 535.93 514.819 530.791 505.641 525.444 C 492.275 534.008 478.992 542.533 465.792 551.055 L 465.566 551.223 Z  M 387.553 551.261 C 399.787 551.352 412.029 551.398 424.279 551.396 C 436.529 551.398 448.771 551.352 461.005 551.261 C 460.163 550.457 458.773 549.775 457.831 549.092 C 447.06 542.074 436.039 534.928 424.892 527.743 C 424.804 527.721 424.588 527.787 424.279 527.928 C 423.97 527.787 423.755 527.722 423.666 527.743 C 412.519 534.928 401.498 542.073 390.727 549.092 C 389.785 549.775 388.395 550.457 387.553 551.261 Z  M 308.675 550.009 C 333.416 550.608 358.19 551.011 382.992 551.223 L 382.766 551.054 C 369.566 542.532 356.283 534.007 342.917 525.443 C 333.739 530.791 324.73 535.93 315.969 540.819 C 314.629 541.488 307.757 544.662 307.757 545.914 C 308.056 547.28 308.361 548.643 308.675 550.009 Z  M 252.857 464.285 L 252.857 548.324 C 270.552 548.963 288.262 549.504 305.989 549.943 C 305.574 548.195 305.17 546.449 304.781 544.702 C 298.412 539.481 269.164 519.595 260.447 512.368 C 258.561 497.159 257.346 482.034 256.676 466.912 L 252.857 464.285 Z  M 252.857 443.193 L 252.857 461.198 C 255.862 463.182 257.914 464.46 258.269 464.488 C 260.155 464.74 292.045 447.82 297.912 445.647 C 297.912 438.492 297.929 431.326 297.991 424.161 C 297.929 416.996 297.912 409.831 297.912 402.675 C 292.045 400.502 260.154 383.582 258.268 383.834 C 257.913 383.861 255.861 385.139 252.856 387.124 L 252.856 405.129 L 252.856 443.193 L 252.857 443.193 Z " fill-rule="evenodd" fill="rgb(0,0,0)"/></g>
		</g>
		</svg>
