<svg height="960" viewBox="0 0 960 960" width="960" xmlns="http://www.w3.org/2000/svg"><g fill="none" fill-rule="evenodd"><path d="m898 480.101115c0 110.577382-42.916275 211.128705-112.997369 285.898706h-610.005262c-70.081094-74.770001-112.997369-175.321324-112.997369-285.898706 0-110.67834 42.994677-211.312307 113.189393-286.10344h609.621214c70.194716 74.791133 113.189393 175.4251 113.189393 286.10344z" stroke="#000" stroke-linejoin="round" stroke-width="20"/><rect height="150" rx="32" stroke="#000" stroke-linejoin="round" stroke-width="20" width="64" x="353" y="246"/><circle cx="385" cy="281" fill="#000" r="16"/><ellipse cx="385" cy="352" fill="#000" rx="16" ry="28"/><rect height="150" rx="32" stroke="#000" stroke-linejoin="round" stroke-width="20" width="64" x="448" y="246"/><circle cx="480" cy="281" fill="#000" r="16"/><ellipse cx="480" cy="352" fill="#000" rx="16" ry="28"/><rect height="150" rx="32" stroke="#000" stroke-linejoin="round" stroke-width="20" width="64" x="544" y="246"/><circle cx="576" cy="281" fill="#000" r="16"/><ellipse cx="576" cy="352" fill="#000" rx="16" ry="28"/><path d="m855.957291 159.131759c4.109564-.749901 8.303998-1.131759 12.542709-1.131759 38.38379 0 69.5 31.11621 69.5 69.5 0 12.499327-3.325194 24.515798-9.444723 34.998758 6.847416 21.099029 10.444723 43.371297 10.444723 66.412389l-.000949 13.953204-.000549 3.897026c-.004895 31.693083-.021786 75.775388-.050673 132.227066.030091 58.828407.047165 104.209625.051222 136.148666l.000949 13.953104c0 23.274681-3.670889 45.765507-10.653184 67.056547 6.250918 10.563322 9.653184 22.710235 9.653184 35.35324 0 38.38379-31.11621 69.5-69.5 69.5-4.605533 0-9.157599-.450833-13.604113-1.334674-22.483058 16.764034-46.367642 26.448121-66.955684 26.333653-19.003562-.107989-121.946408-.178825-308.61115-.212113v-.000608l-4.235406.001618c-183.137926.033697-284.2208.104197-303.036303.211117-20.58578.114455-44.469981-9.569544-66.95354-26.333683-4.446295.883861-8.9983076 1.33469-13.603804 1.33469-38.3837901 0-69.5-31.11621-69.5-69.5 0-12.643097 3.4022992-24.790022 9.6533313-35.353865-6.9823662-21.290123-10.6533313-43.781237-10.6533313-67.057282l.0009487-13.953135.0004003-2.91069c.0046934-31.762623.0216343-76.174053.0508225-133.214472-.0300912-58.826974-.0471653-104.208291-.051223-136.147665l-.0009485-13.953104c0-23.038766 3.5968874-45.310544 10.4433499-66.412989-6.1184667-10.481831-9.4433499-22.498134-9.4433499-34.996798 0-38.38379 31.1162099-69.5 69.5-69.5 4.2401809 0 8.4356291.38213 12.54577 1.132859 22.785151-17.251984 47.099867-27.248119 68.014027-27.131838 18.81305.106906 119.895924.177406 303.036327.211104l5.209242.001608 4.600987-.001609c183.137926-.033697 284.2208-.104197 303.03385-.211103l.002453-.000014c20.911634-.116266 45.227013 9.879719 68.014635 27.130752z" stroke="#000" stroke-linejoin="round" stroke-width="40"/><g fill="#000" fill-rule="nonzero"><g transform="translate(334.616361 668.498732)"><path d="m97.3489555 57.5012684h-19.7109818c-7.1098263-1.8268239-12.2543348-8.6159661-12.2543348-16.1889817v-25.5688925c0-7.68594663 5.2408476-14.50166075 12.4855486-16.24212576h19.479768c15.4592155 0 28.0346835 13.00698656 28.0346835 28.99667846.00642 15.9896919-12.575468 29.0033215-28.0346835 29.0033215"/><path d="m32.3489555 57.5012684h-19.7109818c-7.10982633-1.8268239-12.25433479-8.6159661-12.25433479-16.1889817v-25.5688925c0-7.68594663 5.24084757-14.50166075 12.48554859-16.24212576h19.479768c15.4592158 0 28.0346834 13.00698656 28.0346834 28.99667846.0064202 15.9896919-12.5754676 29.0033215-28.0346834 29.0033215" transform="matrix(-1 0 0 1 60.767278 0)"/></g><g transform="translate(171.616361 668.498732)"><path d="m97.3489555 57.5012684h-19.7109818c-7.1098263-1.8268239-12.2543348-8.6159661-12.2543348-16.1889817v-25.5688925c0-7.68594663 5.2408476-14.50166075 12.4855486-16.24212576h19.479768c15.4592155 0 28.0346835 13.00698656 28.0346835 28.99667846.00642 15.9896919-12.575468 29.0033215-28.0346835 29.0033215"/><path d="m32.3489555 57.5012684h-19.7109818c-7.10982633-1.8268239-12.25433479-8.6159661-12.25433479-16.1889817v-25.5688925c0-7.68594663 5.24084757-14.50166075 12.48554859-16.24212576h19.479768c15.4592158 0 28.0346834 13.00698656 28.0346834 28.99667846.0064202 15.9896919-12.5754676 29.0033215-28.0346834 29.0033215" transform="matrix(-1 0 0 1 60.767278 0)"/></g><g transform="translate(497.616361 668.498732)"><path d="m97.3489555 57.5012684h-19.7109818c-7.1098263-1.8268239-12.2543348-8.6159661-12.2543348-16.1889817v-25.5688925c0-7.68594663 5.2408476-14.50166075 12.4855486-16.24212576h19.479768c15.4592155 0 28.0346835 13.00698656 28.0346835 28.99667846.00642 15.9896919-12.575468 29.0033215-28.0346835 29.0033215"/><path d="m32.3489555 57.5012684h-19.7109818c-7.10982633-1.8268239-12.25433479-8.6159661-12.25433479-16.1889817v-25.5688925c0-7.68594663 5.24084757-14.50166075 12.48554859-16.24212576h19.479768c15.4592158 0 28.0346834 13.00698656 28.0346834 28.99667846.0064202 15.9896919-12.5754676 29.0033215-28.0346834 29.0033215" transform="matrix(-1 0 0 1 60.767278 0)"/></g><g transform="translate(661.616361 668.498732)"><path d="m97.3489555 57.5012684h-19.7109818c-7.1098263-1.8268239-12.2543348-8.6159661-12.2543348-16.1889817v-25.5688925c0-7.68594663 5.2408476-14.50166075 12.4855486-16.24212576h19.479768c15.4592155 0 28.0346835 13.00698656 28.0346835 28.99667846.00642 15.9896919-12.575468 29.0033215-28.0346835 29.0033215"/><path d="m32.3489555 57.5012684h-19.7109818c-7.10982633-1.8268239-12.25433479-8.6159661-12.25433479-16.1889817v-25.5688925c0-7.68594663 5.24084757-14.50166075 12.48554859-16.24212576h19.479768c15.4592158 0 28.0346834 13.00698656 28.0346834 28.99667846.0064202 15.9896919-12.5754676 29.0033215-28.0346834 29.0033215" transform="matrix(-1 0 0 1 60.767278 0)"/></g></g></g></svg>