<svg height="960" viewBox="0 0 960 960" width="960" xmlns="http://www.w3.org/2000/svg"><g fill="none" fill-rule="evenodd"><g stroke="#000" stroke-linejoin="round"><rect height="920" rx="57" stroke-width="40" width="920" x="20" y="20"/><rect height="736" rx="25" stroke-width="20" width="736" x="112" y="112"/><rect height="386" rx="52" stroke-width="20" width="476" x="242" y="287"/><path d="m242 356.69162c110.491016-1.877917 193.137784-2.816875 247.940303-2.816875 54.802518 0 130.822417.938958 228.059697 2.816875" stroke-width="20"/><path d="m242 601.757956 236.249051 4.484672 239.750949-4.484672" stroke-width="20"/><path d="m285.071825 601.764964v-247.890219" stroke-width="20"/><path d="m675.728759 601.764964v-247.890219" stroke-width="20"/></g><path d="m309.578 555.5 17.302 29.249-10.205 17.251h-31.675v-46.5zm62.704 35 6.803 11.5h-48.171l6.803-11.5zm63.296-35 17.302 29.249-10.205 17.251h-49.351l-10.205-17.251 17.302-29.249zm62.704 35 6.802 11.5h-48.17l6.803-11.5zm62.591-35 17.155 28.999-10.353 17.501h-48.351l-10.205-17.251 17.302-29.249zm62.705 35 6.803 11.5h-47.467l6.803-11.5zm52.422-35v46.5h-31.677l-10.352-17.5 17.155-29zm-177.718-36 17.598 29.749-17.303 29.251h-35.155l-17.303-29.251 17.598-29.749zm125 0 17.598 29.749-17.303 29.251h-34.451l-17.155-29.001 17.746-29.999zm-251 0 17.598 29.749-17.303 29.251h-35.155l-17.303-29.251 17.598-29.749zm63.296-35 17.302 29.249-17.599 29.751h-34.563l-17.599-29.751 17.302-29.249zm240.422 0v59h-24.282l-17.599-29.751 17.302-29.249zm-115.127 0 17.155 28.999-17.747 30.001h-33.563l-17.599-29.751 17.302-29.249zm-251.295 0 17.302 29.249-17.599 29.751h-24.281v-59zm62.704-36 17.598 29.749-17.303 29.251h-35.155l-17.303-29.251 17.598-29.749zm126 0 17.598 29.749-17.303 29.251h-35.155l-17.303-29.251 17.598-29.749zm125 0 17.598 29.749-17.303 29.251h-34.451l-17.155-29.001 17.746-29.999zm-187.704-35 17.302 29.249-17.599 29.751h-34.563l-17.599-29.751 17.302-29.249zm125.295 0 17.155 29-17.747 30h-33.563l-17.599-29.751 17.302-29.249zm115.127 0v59h-24.282l-17.599-29.751 17.302-29.249zm-366.422 0 17.302 29.249-17.599 29.751h-24.281v-59zm188.704-36 17.598 29.749-17.303 29.251h-35.155l-17.303-29.251 17.598-29.749zm125.296 0 17.45 29.499-17.451 29.501h-34.451l-17.155-29.001 17.746-29.999zm-251.296 0 17.598 29.749-17.303 29.251h-35.155l-17.303-29.251 17.598-29.749zm303.718 24h-24.282l-17.747-30 12.127-20.5h29.902zm-110.098-50.5 12.126 20.499-17.747 30.001h-33.563l-17.599-29.751 12.274-20.749zm-125.296 0 12.274 20.749-17.599 29.751h-34.563l-17.599-29.751 12.273-20.749zm-126 0 12.274 20.749-17.599 29.751h-24.281v-50.5zm192.548 0-8.577 14.5h-35.155l-8.577-14.5zm125 0-8.577 14.5h-34.451l-8.577-14.5zm-251 0-8.577 14.5h-35.155l-8.577-14.5z" fill="#000"/></g></svg>