<svg height="960" viewBox="0 0 960 960" width="960" xmlns="http://www.w3.org/2000/svg"><g fill="none" fill-rule="evenodd"><g fill="#000" fill-rule="nonzero" transform="translate(397.764045 597)"><path d="m8.34046989.80347299c-4.23517875 0-7.68098059 3.44580184-7.68098059 7.6809806 0 4.23517871 3.44580184 7.68196121 7.68098059 7.68196121 4.23517871 0 7.68098061-3.4467825 7.68098061-7.68196121 0-4.23517876-3.4467824-7.6809806-7.68098061-7.6809806z"/><path d="m8.34046989 29.9888458c-4.23517875 0-7.68098059 3.4467825-7.68098059 7.6819612 0 4.2351788 3.44580184 7.6809806 7.68098059 7.6809806 4.23517871 0 7.68098061-3.4458018 7.68098061-7.6809806 0-4.2351787-3.4467824-7.6819612-7.68098061-7.6819612z"/><path d="m8.34046989 59.1751993c-4.23517875 0-7.68098059 3.4467824-7.68098059 7.6819611 0 4.2351788 3.44580184 7.6809806 7.68098059 7.6809806 4.23517871 0 7.68098061-3.4458018 7.68098061-7.6809806 0-4.2351787-3.4467824-7.6819611-7.68098061-7.6819611z"/><path d="m8.34046989 88.3625333c-4.23517875 0-7.68098059 3.4458018-7.68098059 7.6809806 0 4.2351791 3.44580184 7.6809801 7.68098059 7.6809801 4.23517871 0 7.68098061-3.445801 7.68098061-7.6809801 0-4.2351788-3.4467824-7.6809806-7.68098061-7.6809806z"/><path d="m8.34046989 117.547906c-4.23517875 0-7.68098059 3.445802-7.68098059 7.680981 0 4.235178 3.44580184 7.68098 7.68098059 7.68098 4.23517871 0 7.68098061-3.445802 7.68098061-7.68098 0-4.235179-3.4467824-7.680981-7.68098061-7.680981z"/><path d="m8.34046989 146.73426c-4.23517875 0-7.68098059 3.445801-7.68098059 7.68098s3.44580184 7.680981 7.68098059 7.680981c4.23517871 0 7.68098061-3.445802 7.68098061-7.680981s-3.4467824-7.68098-7.68098061-7.68098z"/><path d="m8.34046989 175.920613c-4.23517875 0-7.68098059 3.445802-7.68098059 7.680981 0 4.235178 3.44580184 7.68098 7.68098059 7.68098 4.23517871 0 7.68098061-3.445802 7.68098061-7.68098 0-4.235179-3.4467824-7.680981-7.68098061-7.680981z"/><path d="m8.34046989 205.105986c-4.23517875 0-7.68098059 3.445802-7.68098059 7.68098 0 4.235179 3.44580184 7.681962 7.68098059 7.681962 4.23517871 0 7.68098061-3.446783 7.68098061-7.681962 0-4.235178-3.4467824-7.68098-7.68098061-7.68098z"/><path d="m8.34046989 234.292339c-4.23517875 0-7.68098059 3.445802-7.68098059 7.680981s3.44580184 7.681961 7.68098059 7.681961c4.23517871 0 7.68098061-3.446782 7.68098061-7.681961s-3.4467824-7.680981-7.68098061-7.680981z"/><path d="m8.34046989 263.478693c-4.23517875 0-7.68098059 3.446782-7.68098059 7.681961s3.44580184 7.68098 7.68098059 7.68098c4.23517871 0 7.68098061-3.445801 7.68098061-7.68098s-3.4467824-7.681961-7.68098061-7.681961z"/><path d="m37.5258427.80347299c-4.2351787 0-7.6809806 3.44580184-7.6809806 7.6809806 0 4.23517871 3.4458019 7.68196121 7.6809806 7.68196121 4.2351788 0 7.6809806-3.4467825 7.6809806-7.68196121 0-4.23517876-3.4448212-7.6809806-7.6809806-7.6809806z"/><path d="m37.5258427 29.9888458c-4.2351787 0-7.6809806 3.4467825-7.6809806 7.6819612 0 4.2351788 3.4458019 7.6809806 7.6809806 7.6809806 4.2351788 0 7.6809806-3.4458018 7.6809806-7.6809806 0-4.2351787-3.4448212-7.6819612-7.6809806-7.6819612z"/><path d="m37.5258427 59.1751993c-4.2351787 0-7.6809806 3.4467824-7.6809806 7.6819611 0 4.2351788 3.4458019 7.6809806 7.6809806 7.6809806 4.2351788 0 7.6809806-3.4458018 7.6809806-7.6809806 0-4.2351787-3.4448212-7.6819611-7.6809806-7.6819611z"/><path d="m37.5258427 88.3625333c-4.2351787 0-7.6809806 3.4458018-7.6809806 7.6809806 0 4.2351791 3.4458019 7.6809801 7.6809806 7.6809801 4.2351788 0 7.6809806-3.445801 7.6809806-7.6809801 0-4.2351788-3.4448212-7.6809806-7.6809806-7.6809806z"/><path d="m37.5258427 117.547906c-4.2351787 0-7.6809806 3.445802-7.6809806 7.680981 0 4.235178 3.4458019 7.68098 7.6809806 7.68098 4.2351788 0 7.6809806-3.445802 7.6809806-7.68098 0-4.235179-3.4448212-7.680981-7.6809806-7.680981z"/><path d="m37.5258427 146.73426c-4.2351787 0-7.6809806 3.445801-7.6809806 7.68098s3.4458019 7.680981 7.6809806 7.680981c4.2351788 0 7.6809806-3.445802 7.6809806-7.680981s-3.4448212-7.68098-7.6809806-7.68098z"/><path d="m37.5258427 175.920613c-4.2351787 0-7.6809806 3.445802-7.6809806 7.680981 0 4.235178 3.4458019 7.68098 7.6809806 7.68098 4.2351788 0 7.6809806-3.445802 7.6809806-7.68098 0-4.235179-3.4448212-7.680981-7.6809806-7.680981z"/><path d="m37.5258427 205.105986c-4.2351787 0-7.6809806 3.445802-7.6809806 7.68098 0 4.235179 3.4458019 7.681962 7.6809806 7.681962 4.2351788 0 7.6809806-3.446783 7.6809806-7.681962 0-4.235178-3.4448212-7.68098-7.6809806-7.68098z"/><path d="m37.5258427 234.292339c-4.2351787 0-7.6809806 3.445802-7.6809806 7.680981s3.4458019 7.681961 7.6809806 7.681961c4.2351788 0 7.6809806-3.446782 7.6809806-7.681961s-3.4448212-7.680981-7.6809806-7.680981z"/><path d="m37.5258427 263.478693c-4.2351787 0-7.6809806 3.446782-7.6809806 7.681961s3.4458019 7.68098 7.6809806 7.68098c4.2351788 0 7.6809806-3.445801 7.6809806-7.68098s-3.4448212-7.681961-7.6809806-7.681961z"/><path d="m66.7121961.80347299c-4.2351787 0-7.6809805 3.44580184-7.6809805 7.6809806 0 4.23517871 3.4458018 7.68196121 7.6809805 7.68196121 4.2351788 0 7.6809806-3.4467825 7.6809806-7.68196121 0-4.23517876-3.4458018-7.6809806-7.6809806-7.6809806z"/><path d="m66.7121961 29.9888458c-4.2351787 0-7.6809805 3.4467825-7.6809805 7.6819612 0 4.2351788 3.4458018 7.6809806 7.6809805 7.6809806 4.2351788 0 7.6809806-3.4458018 7.6809806-7.6809806 0-4.2351787-3.4458018-7.6819612-7.6809806-7.6819612z"/><path d="m66.7121961 59.1751993c-4.2351787 0-7.6809805 3.4467824-7.6809805 7.6819611 0 4.2351788 3.4458018 7.6809806 7.6809805 7.6809806 4.2351788 0 7.6809806-3.4458018 7.6809806-7.6809806 0-4.2351787-3.4458018-7.6819611-7.6809806-7.6819611z"/><path d="m66.7121961 88.3625333c-4.2351787 0-7.6809805 3.4458018-7.6809805 7.6809806 0 4.2351791 3.4458018 7.6809801 7.6809805 7.6809801 4.2351788 0 7.6809806-3.445801 7.6809806-7.6809801 0-4.2351788-3.4458018-7.6809806-7.6809806-7.6809806z"/><path d="m66.7121961 117.547906c-4.2351787 0-7.6809805 3.445802-7.6809805 7.680981 0 4.235178 3.4458018 7.68098 7.6809805 7.68098 4.2351788 0 7.6809806-3.445802 7.6809806-7.68098 0-4.235179-3.4458018-7.680981-7.6809806-7.680981z"/><path d="m66.7121961 146.73426c-4.2351787 0-7.6809805 3.445801-7.6809805 7.68098s3.4458018 7.680981 7.6809805 7.680981c4.2351788 0 7.6809806-3.445802 7.6809806-7.680981s-3.4458018-7.68098-7.6809806-7.68098z"/><path d="m66.7121961 175.920613c-4.2351787 0-7.6809805 3.445802-7.6809805 7.680981 0 4.235178 3.4458018 7.68098 7.6809805 7.68098 4.2351788 0 7.6809806-3.445802 7.6809806-7.68098 0-4.235179-3.4458018-7.680981-7.6809806-7.680981z"/><path d="m66.7121961 205.105986c-4.2351787 0-7.6809805 3.445802-7.6809805 7.68098 0 4.235179 3.4458018 7.681962 7.6809805 7.681962 4.2351788 0 7.6809806-3.446783 7.6809806-7.681962 0-4.235178-3.4458018-7.68098-7.6809806-7.68098z"/><path d="m66.7121961 234.292339c-4.2351787 0-7.6809805 3.445802-7.6809805 7.680981s3.4458018 7.681961 7.6809805 7.681961c4.2351788 0 7.6809806-3.446782 7.6809806-7.681961s-3.4458018-7.680981-7.6809806-7.680981z"/><path d="m66.7121961 263.478693c-4.2351787 0-7.6809805 3.446782-7.6809805 7.681961s3.4458018 7.68098 7.6809805 7.68098c4.2351788 0 7.6809806-3.445801 7.6809806-7.68098s-3.4458018-7.681961-7.6809806-7.681961z"/><path d="m95.8985496.80347299c-4.2351788 0-7.6809806 3.44580184-7.6809806 7.6809806 0 4.23517871 3.4458018 7.68196121 7.6809806 7.68196121 4.2351784 0 7.6819614-3.4467825 7.6819614-7.68196121 0-4.23517876-3.446783-7.6809806-7.6819614-7.6809806z"/><path d="m95.8985496 29.9888458c-4.2351788 0-7.6809806 3.4467825-7.6809806 7.6819612 0 4.2351788 3.4458018 7.6809806 7.6809806 7.6809806 4.2351784 0 7.6819614-3.4458018 7.6819614-7.6809806 0-4.2351787-3.446783-7.6819612-7.6819614-7.6819612z"/><path d="m95.8985496 59.1751993c-4.2351788 0-7.6809806 3.4467824-7.6809806 7.6819611 0 4.2351788 3.4458018 7.6809806 7.6809806 7.6809806 4.2351784 0 7.6819614-3.4458018 7.6819614-7.6809806 0-4.2351787-3.446783-7.6819611-7.6819614-7.6819611z"/><path d="m95.8985496 88.3625333c-4.2351788 0-7.6809806 3.4458018-7.6809806 7.6809806 0 4.2351791 3.4458018 7.6809801 7.6809806 7.6809801 4.2351784 0 7.6819614-3.445801 7.6819614-7.6809801 0-4.2351788-3.446783-7.6809806-7.6819614-7.6809806z"/><path d="m95.8985496 117.547906c-4.2351788 0-7.6809806 3.445802-7.6809806 7.680981 0 4.235178 3.4458018 7.68098 7.6809806 7.68098 4.2351784 0 7.6819614-3.445802 7.6819614-7.68098 0-4.235179-3.446783-7.680981-7.6819614-7.680981z"/><path d="m95.8985496 146.73426c-4.2351788 0-7.6809806 3.445801-7.6809806 7.68098s3.4458018 7.680981 7.6809806 7.680981c4.2351784 0 7.6819614-3.445802 7.6819614-7.680981s-3.446783-7.68098-7.6819614-7.68098z"/><path d="m95.8985496 175.920613c-4.2351788 0-7.6809806 3.445802-7.6809806 7.680981 0 4.235178 3.4458018 7.68098 7.6809806 7.68098 4.2351784 0 7.6819614-3.445802 7.6819614-7.68098 0-4.235179-3.446783-7.680981-7.6819614-7.680981z"/><path d="m95.8985496 205.105986c-4.2351788 0-7.6809806 3.445802-7.6809806 7.68098 0 4.235179 3.4458018 7.681962 7.6809806 7.681962 4.2351784 0 7.6819614-3.446783 7.6819614-7.681962 0-4.235178-3.446783-7.68098-7.6819614-7.68098z"/><path d="m95.8985496 234.292339c-4.2351788 0-7.6809806 3.445802-7.6809806 7.680981s3.4458018 7.681961 7.6809806 7.681961c4.2351784 0 7.6819614-3.446782 7.6819614-7.681961s-3.446783-7.680981-7.6819614-7.680981z"/><path d="m95.8985496 263.478693c-4.2351788 0-7.6809806 3.446782-7.6809806 7.681961s3.4458018 7.68098 7.6809806 7.68098c4.2351784 0 7.6819614-3.445801 7.6819614-7.68098s-3.446783-7.681961-7.6819614-7.681961z"/><path d="m125.083922.80347299c-4.235178 0-7.68098 3.44580184-7.68098 7.6809806 0 4.23517871 3.445802 7.68196121 7.68098 7.68196121 4.235179 0 7.681962-3.4467825 7.681962-7.68196121 0-4.23517876-3.445802-7.6809806-7.681962-7.6809806z"/><path d="m125.083922 29.9888458c-4.235178 0-7.68098 3.4467825-7.68098 7.6819612 0 4.2351788 3.445802 7.6809806 7.68098 7.6809806 4.235179 0 7.681962-3.4458018 7.681962-7.6809806 0-4.2351787-3.445802-7.6819612-7.681962-7.6819612z"/><path d="m125.083922 59.1751993c-4.235178 0-7.68098 3.4467824-7.68098 7.6819611 0 4.2351788 3.445802 7.6809806 7.68098 7.6809806 4.235179 0 7.681962-3.4458018 7.681962-7.6809806 0-4.2351787-3.445802-7.6819611-7.681962-7.6819611z"/><path d="m125.083922 88.3625333c-4.235178 0-7.68098 3.4458018-7.68098 7.6809806 0 4.2351791 3.445802 7.6809801 7.68098 7.6809801 4.235179 0 7.681962-3.445801 7.681962-7.6809801 0-4.2351788-3.445802-7.6809806-7.681962-7.6809806z"/><path d="m125.083922 117.547906c-4.235178 0-7.68098 3.445802-7.68098 7.680981 0 4.235178 3.445802 7.68098 7.68098 7.68098 4.235179 0 7.681962-3.445802 7.681962-7.68098 0-4.235179-3.445802-7.680981-7.681962-7.680981z"/><path d="m125.083922 146.73426c-4.235178 0-7.68098 3.445801-7.68098 7.68098s3.445802 7.680981 7.68098 7.680981c4.235179 0 7.681962-3.445802 7.681962-7.680981s-3.445802-7.68098-7.681962-7.68098z"/><path d="m125.083922 175.920613c-4.235178 0-7.68098 3.445802-7.68098 7.680981 0 4.235178 3.445802 7.68098 7.68098 7.68098 4.235179 0 7.681962-3.445802 7.681962-7.68098 0-4.235179-3.445802-7.680981-7.681962-7.680981z"/><path d="m125.083922 205.105986c-4.235178 0-7.68098 3.445802-7.68098 7.68098 0 4.235179 3.445802 7.681962 7.68098 7.681962 4.235179 0 7.681962-3.446783 7.681962-7.681962 0-4.235178-3.445802-7.68098-7.681962-7.68098z"/><path d="m125.083922 234.292339c-4.235178 0-7.68098 3.445802-7.68098 7.680981s3.445802 7.681961 7.68098 7.681961c4.235179 0 7.681962-3.446782 7.681962-7.681961s-3.445802-7.680981-7.681962-7.680981z"/><path d="m125.083922 263.478693c-4.235178 0-7.68098 3.446782-7.68098 7.681961s3.445802 7.68098 7.68098 7.68098c4.235179 0 7.681962-3.445801 7.681962-7.68098s-3.445802-7.681961-7.681962-7.681961z"/><path d="m154.270276.80347299c-4.235179 0-7.680981 3.44580184-7.680981 7.6809806 0 4.23517871 3.445802 7.68196121 7.680981 7.68196121s7.681961-3.4467825 7.681961-7.68196121c0-4.23517876-3.446782-7.6809806-7.681961-7.6809806z"/><path d="m154.270276 29.9888458c-4.235179 0-7.680981 3.4467825-7.680981 7.6819612 0 4.2351788 3.445802 7.6809806 7.680981 7.6809806s7.681961-3.4458018 7.681961-7.6809806c0-4.2351787-3.446782-7.6819612-7.681961-7.6819612z"/><path d="m154.270276 59.1751993c-4.235179 0-7.680981 3.4467824-7.680981 7.6819611 0 4.2351788 3.445802 7.6809806 7.680981 7.6809806s7.681961-3.4458018 7.681961-7.6809806c0-4.2351787-3.446782-7.6819611-7.681961-7.6819611z"/><path d="m154.270276 88.3625333c-4.235179 0-7.680981 3.4458018-7.680981 7.6809806 0 4.2351791 3.445802 7.6809801 7.680981 7.6809801s7.681961-3.445801 7.681961-7.6809801c0-4.2351788-3.446782-7.6809806-7.681961-7.6809806z"/><path d="m154.270276 117.547906c-4.235179 0-7.680981 3.445802-7.680981 7.680981 0 4.235178 3.445802 7.68098 7.680981 7.68098s7.681961-3.445802 7.681961-7.68098c0-4.235179-3.446782-7.680981-7.681961-7.680981z"/><path d="m154.270276 146.73426c-4.235179 0-7.680981 3.445801-7.680981 7.68098s3.445802 7.680981 7.680981 7.680981 7.681961-3.445802 7.681961-7.680981-3.446782-7.68098-7.681961-7.68098z"/><path d="m154.270276 175.920613c-4.235179 0-7.680981 3.445802-7.680981 7.680981 0 4.235178 3.445802 7.68098 7.680981 7.68098s7.681961-3.445802 7.681961-7.68098c0-4.235179-3.446782-7.680981-7.681961-7.680981z"/><path d="m154.270276 205.105986c-4.235179 0-7.680981 3.445802-7.680981 7.68098 0 4.235179 3.445802 7.681962 7.680981 7.681962s7.681961-3.446783 7.681961-7.681962c0-4.235178-3.446782-7.68098-7.681961-7.68098z"/><path d="m154.270276 234.292339c-4.235179 0-7.680981 3.445802-7.680981 7.680981s3.445802 7.681961 7.680981 7.681961 7.681961-3.446782 7.681961-7.681961-3.446782-7.680981-7.681961-7.680981z"/><path d="m154.270276 263.478693c-4.235179 0-7.680981 3.446782-7.680981 7.681961s3.445802 7.68098 7.680981 7.68098 7.681961-3.445801 7.681961-7.68098-3.446782-7.681961-7.681961-7.681961z"/></g><g stroke="#000" stroke-linejoin="round"><path d="m224.137911 26.3896324c86.755488-3.5929986 172.209507-5.3896324 256.362089-5.3896324s169.606601 1.7966338 256.362089 5.3896324c24.107827.9984311 43.137911 20.8329632 43.137911 44.9614571v806.8744145c.000004 23.089333-17.474912 42.432149-40.445691 44.768948-111.385386 11.331145-196.529867 17.005548-255.6517 17.005548-59.227368 0-146.583562-5.695859-262.30492-17.071349-23.036775-2.26453-40.597689-21.636336-40.597689-44.784145v-806.7934151c-.000001-24.1284944 19.030083-43.9630272 43.137911-44.9614585z" stroke-width="40"/><rect height="416" rx="50" stroke-width="20" width="100" x="428" y="151"/><path d="m338.648977 11.500143v938" stroke-width="40"/><path d="m621.351023 15.500143.351023 929.499857" stroke-width="40" transform="matrix(-1 0 0 1 1243.702046 0)"/></g></g></svg>