<svg enable-background="new 0 0 547.66 1429.57" viewBox="0 0 547.66 1429.57" xmlns="http://www.w3.org/2000/svg"><path clip-rule="evenodd" d="m223.99 384.29-5.59 8.35h5.59z" fill-rule="evenodd"/><path clip-rule="evenodd" d="m295.04 491.6c-6.5 2.83-13.68 4.39-21.22 4.39-29.43 0-53.28-23.85-53.28-53.28 0-13.28 4.86-25.43 12.9-34.76 5.21-6.04 11.75-10.91 19.17-14.13l-15.1-34.8c-16.01 6.96-29.63 18.38-39.3 32.69-9.84 14.56-15.58 32.11-15.58 51 0 50.37 40.83 91.2 91.21 91.2 12.91 0 25.19-2.68 36.32-7.52zm-81.02-98.94 10.58-15.56h3.94v15.54h3.04v4.1h-3.04v4.92h-4.54v-4.92h-9.97v-4.08zm-5.71 60.77c-1.57 1.51-3.51 2.27-5.85 2.27-2.21 0-4.04-.64-5.49-1.92-1.46-1.28-2.3-2.94-2.53-5.01l4.54-.55c.14 1.16.53 2.05 1.16 2.66s1.39.92 2.29.92c.96 0 1.77-.37 2.43-1.1.65-.73.99-1.72.99-2.98 0-1.18-.31-2.12-.95-2.81-.63-.69-1.4-1.04-2.31-1.04-.6 0-1.31.12-2.14.35l.52-3.8c1.26.03 2.23-.24 2.89-.83.67-.58 1-1.36 1-2.33 0-.83-.24-1.48-.74-1.97-.49-.49-1.14-.73-1.95-.73-.8 0-1.49.28-2.05.84-.57.56-.91 1.37-1.04 2.44l-4.3-.73c.3-1.49.75-2.68 1.36-3.58.6-.89 1.45-1.59 2.53-2.1s2.3-.76 3.64-.76c2.3 0 4.14.73 5.53 2.21 1.15 1.21 1.72 2.57 1.72 4.09 0 2.15-1.17 3.88-3.52 5.16 1.4.3 2.52.97 3.36 2.02s1.26 2.31 1.26 3.79c0 2.14-.78 3.97-2.35 5.49m20.03 45.51v4.34h-16.43c.18-1.65.71-3.21 1.6-4.68s2.65-3.43 5.26-5.87c2.11-1.97 3.4-3.31 3.88-4.01.64-.97.97-1.92.97-2.87 0-1.05-.28-1.85-.84-2.41s-1.33-.84-2.32-.84c-.98 0-1.75.3-2.33.89-.57.59-.9 1.57-1 2.94l-4.68-.47c.28-2.58 1.15-4.44 2.62-5.57 1.47-1.12 3.3-1.68 5.5-1.68 2.41 0 4.31.65 5.69 1.96 1.38 1.3 2.07 2.92 2.07 4.87 0 1.1-.2 2.15-.59 3.15s-1.02 2.04-1.88 3.13c-.56.73-1.59 1.77-3.07 3.13-1.49 1.36-2.42 2.26-2.82 2.71-.4.44-.72.88-.96 1.3h9.33zm51.09 28.7h-4.68v-17.7c-1.71 1.6-3.72 2.79-6.05 3.56v-4.27c1.22-.4 2.55-1.16 3.98-2.28 1.43-1.11 2.41-2.42 2.95-3.9h3.8z" fill-rule="evenodd"/><path d="m467.45 80.21c-51.72-51.72-120.48-80.21-193.62-80.21s-141.91 28.49-193.63 80.21c-51.72 51.71-80.2 120.48-80.2 193.62v823.98h20.01v306.67c0 5.24 2.9 9.07 7.76 10.23l.3.07 98 14.7.52.08h294.48l106.58-15.99v-315.77h20.01v-823.97c0-73.14-28.49-141.91-80.21-193.62m-343.88 1334.58-89.39-13.41v-310.55l89.39-6.7zm293.43.61h-286.34v-331.8l3.26-.24h279.81l3.26.24v331.8zm-279.67-339.13v-802.44c0-75.26 61.23-136.5 136.5-136.5s136.5 61.23 136.5 136.5v802.45zm376.15 325.11-89.39 13.41v-330.66l89.39 6.7zm20-317.74h-20.01v.09l-96.06-7.2v-802.7c0-79.17-64.41-143.58-143.58-143.58s-143.58 64.41-143.58 143.58v802.69l-96.07 7.2v-.09h-20.01v-809.8c0-69.36 27.01-134.56 76.05-183.6s114.25-76.05 183.6-76.05 134.56 27.01 183.6 76.05 76.05 114.25 76.05 183.6v809.81z"/><path d="m273.83 279.35c17.01 0 30.86-13.84 30.86-30.86s-13.84-30.86-30.86-30.86-30.86 13.84-30.86 30.86 13.84 30.86 30.86 30.86m0-58.17c15.06 0 27.31 12.25 27.31 27.31s-12.25 27.31-27.31 27.31-27.31-12.25-27.31-27.31c-.01-15.06 12.25-27.31 27.31-27.31"/><path d="m280.95 399.93v-.04l-1.55-.2c-.16-.02-.32-.03-.47-.04-.63-.07-1.26-.13-1.89-.18-.23-.02-.46-.04-.69-.05-.84-.05-1.68-.08-2.53-.08-.04 0-.08 0-.13 0-.08 0-.16.01-.25.01-.8.01-1.58.04-2.37.09-.27.02-.53.04-.8.06-.61.05-1.22.11-1.82.19-.18.02-.37.03-.56.06l-1.53.21v.04c-20.38 3.54-35.93 21.35-35.93 42.73 0 23.92 19.46 43.38 43.38 43.38s43.38-19.46 43.38-43.38c.02-21.51-15.7-39.39-36.24-42.8m-11.03 3.14c.54-.05 1.09-.09 1.64-.12.12-.01.25-.02.37-.02.6-.03 1.21-.04 1.81-.05.24 0 .48.01.72.01.42.01.84.01 1.25.03.26.01.52.03.78.05.31.02.61.04.92.07v8.2h-7.49zm3.91 79.48c-21.97 0-39.84-17.87-39.84-39.84 0-19.42 13.97-35.63 32.38-39.13v11.2h14.58v-11.26c18.58 3.37 32.71 19.65 32.71 39.19 0 21.97-17.87 39.84-39.83 39.84"/><path d="m273.83 1213.83c-21.05 0-38.17 17.12-38.17 38.17s17.12 38.17 38.17 38.17 38.17-17.12 38.17-38.17-17.12-38.17-38.17-38.17m0 72.8c-19.1 0-34.63-15.54-34.63-34.63s15.54-34.63 34.63-34.63 34.63 15.54 34.63 34.63-15.54 34.63-34.63 34.63"/><path d="m266.54 466.68h14.58v-47.93h-14.58zm3.54-44.38h7.49v40.84h-7.49z"/><path d="m278.95 382.39v-24.59h-3.8c-.54 1.49-1.51 2.79-2.95 3.91-1.43 1.12-2.75 1.88-3.98 2.28v4.27c2.32-.77 4.34-1.96 6.05-3.56v17.7h4.68z"/><path d="m327.21 483.74h-3.94l-10.57 15.56v4.08h9.97v4.92h4.54v-4.92h3.04v-4.1h-3.04zm-4.54 15.54h-5.59l5.59-8.35z"/><path d="m351.3 441.64c2.35-1.28 3.52-3 3.52-5.16 0-1.52-.57-2.89-1.72-4.09-1.39-1.48-3.23-2.21-5.53-2.21-1.34 0-2.56.26-3.64.76-1.08.51-1.93 1.21-2.53 2.1-.61.89-1.06 2.08-1.36 3.58l4.3.73c.12-1.07.47-1.88 1.04-2.44.56-.56 1.25-.84 2.05-.84.81 0 1.46.24 1.95.73s.73 1.15.73 1.97c0 .97-.33 1.75-1 2.33-.67.59-1.63.87-2.89.83l-.52 3.8c.83-.23 1.54-.35 2.14-.35.91 0 1.68.35 2.31 1.04s.95 1.63.95 2.81c0 1.25-.33 2.24-.99 2.98-.66.73-1.47 1.1-2.43 1.1-.89 0-1.66-.31-2.29-.92s-1.02-1.5-1.16-2.66l-4.54.55c.23 2.07 1.08 3.73 2.53 5.01s3.28 1.92 5.49 1.92c2.33 0 4.28-.76 5.85-2.27s2.35-3.35 2.35-5.49c0-1.48-.42-2.74-1.26-3.79s-1.95-1.72-3.35-2.02"/><path d="m327.77 397.29c1.48-1.36 2.51-2.4 3.07-3.13.86-1.09 1.49-2.14 1.88-3.13.39-1 .59-2.05.59-3.15 0-1.94-.69-3.56-2.07-4.87-1.38-1.3-3.28-1.96-5.69-1.96-2.2 0-4.04.56-5.51 1.68-1.47 1.13-2.34 2.98-2.62 5.57l4.68.47c.09-1.37.42-2.35 1-2.94s1.36-.89 2.33-.89c.98 0 1.76.28 2.32.84s.84 1.37.84 2.41c0 .95-.33 1.91-.97 2.87-.48.7-1.77 2.04-3.88 4.01-2.62 2.44-4.38 4.4-5.27 5.87s-1.42 3.03-1.6 4.68h16.43v-4.34h-9.32c.25-.42.56-.86.96-1.3.4-.43 1.34-1.33 2.83-2.69"/><path clip-rule="evenodd" d="m273.83 221.08c15.14 0 27.42 12.28 27.42 27.42s-12.28 27.42-27.42 27.42-27.42-12.28-27.42-27.42c0-15.15 12.27-27.42 27.42-27.42" fill-rule="evenodd"/></svg>