<svg height="960" viewBox="0 0 960 960" width="960" xmlns="http://www.w3.org/2000/svg"><g fill="none" fill-rule="evenodd"><g stroke="#000" stroke-linejoin="round"><path d="m366.328251 861c-5.748019 21.869686-25.654416 38-49.328251 38h-170c-45.287349 0-82-36.712651-82-82v-713c0-45.2873495 36.712651-82 82-82h666c45.287349 0 82 36.7126505 82 82v675c0 45.287349-36.712651 82-82 82z" stroke-width="40"/><rect height="56" rx="28" stroke-width="20" width="171" x="139" y="894"/><rect height="56" rx="28" stroke-width="20" width="170" x="581" y="855"/><path d="m137 690h159c14.359403 0 26 11.640597 26 26v114.200001c0 13.696661-11.103338 24.799999-24.799999 24.799999h-136.600004c-27.393322 0-49.599997-22.206675-49.599997-49.599997v-89.400003c0-14.359403 11.640597-26 26-26z" stroke-width="20"/></g><ellipse cx="733.5" cy="257" fill="#000" rx="17.5" ry="18"/><ellipse cx="794" cy="139" fill="#000" rx="13" ry="12"/><rect height="366" rx="18" stroke="#000" stroke-linejoin="round" stroke-width="20" width="690" x="134" y="297"/><g fill="#000"><ellipse cx="269" cy="798.5" rx="31" ry="30.5"/><ellipse cx="166" cy="798.5" rx="31" ry="30.5"/></g></g></svg>