<svg height="960" viewBox="0 0 960 960" width="960" xmlns="http://www.w3.org/2000/svg"><g fill="none" fill-rule="evenodd"><path d="m709.609064 857.908968c22.855136 7.858983 43.415195 17.242396 61.668409 28.176326l45.198922 27.074785-51.779906 9.737964c-57.388975 10.79283-152.066121 16.101957-284.696489 16.101957s-227.307514-5.309127-284.696489-16.101957l-52.183872-9.813936 45.691244-27.051431c18.61236-11.019419 39.54746-20.464652 62.79415-28.361745-29.732208-121.115141-44.605033-242.282241-44.605033-363.468048 0-123.029954 10.893801-255.509125 32.666161-397.4616652l.660514-4.287705c5.035957-32.5496071 31.517161-57.531928 64.30469-60.6649299 75.215185-7.1871629 133.787583-10.7885829 175.889758-10.7885829 41.682254 0 99.504908 3.5298398 173.64213 10.5745218l2.239234.2133739c32.791757 3.1333839 59.274995 28.1215504 64.306471 60.6761447 22.188144 143.5614406 33.291042 277.4705306 33.291042 401.7388426 0 123.063392-14.798602 244.310575-44.390936 363.706085z" stroke="#000" stroke-linejoin="round" stroke-width="40"/><path d="m480.908497 629.521176c36.450648 0 66 18.803448 66 42 0 23.195586-29.549352 42-66 42-36.450649 0-66-18.804414-66-42 0-23.196552 29.549351-42 66-42" fill="#000"/><g stroke="#000" stroke-linejoin="round"><path d="m480.460817 835.521176c124.37046 0 217.853019 21.872126 280.44768 65.61638-55.85809 12.255746-149.524757 18.38362-281 18.38362-131.475244 0-225.14191-6.127874-281-18.38362 63.331088-43.744254 157.181861-65.61638 281.55232-65.61638z" stroke-width="20"/><path d="m346.115783 55.1270019c4.992977-.2181385 9.305094-.4066178 12.788878-.6304967 25.595951-1.6475196 54.965841-2.9860097 87.295703-3.9791139 23.358975-.7175608 45.755551-.6898151 70.48678.0899343 31.159663.9816232 59.558537 2.2904541 84.40851 3.8891796 3.483784.2238789 7.795901.4123582 12.78792.6304967 6.433223.2812839 14.040474.6151888 21.624743 1.1251354 70.165023 218.5030047 77.244632 433.7626347 21.019534 639.8384437-10.746296 31.167971-29.84295 51.10181-56.759444 59.245647-8.360891 2.530598-22.11887 4.257527-40.891851 5.134865-41.011552 1.920193-95.514867 2.036916-149.538421.32051-23.038175-.730955-39.559815-2.566954-49.106227-5.455375-26.916494-8.143837-46.014105-28.077676-56.759444-59.245647-56.225098-206.075809-49.146446-421.335439 21.019534-639.8384437 7.584269-.5099466 15.191521-.8438515 21.623785-1.1251354z" stroke-width="20"/><path d="m203.047771 899.844911c114.169964-6.710116 115.76168-34.616178 277.860726-32.774829 162.099045 1.84135 192.29911 39.064713 275.854984 39.064713" stroke-linecap="round" stroke-width="12.5"/></g></g></svg>