<svg enable-background="new 0 0 1058.3 1098.6" viewBox="0 0 1058.3 1098.6" xmlns="http://www.w3.org/2000/svg"><path d="m126 641.3c.9-3.1 1.4-6.7 1.4-10.7 0-4.7-.7-8.9-2.1-12.6s-3.5-6.7-6.3-9.1c-2.1-1.8-4.7-3.1-7.8-3.8-2.2-.5-5.3-.8-9.5-.8h-18.1v53.1h19.1c3.2 0 6.1-.3 8.5-.9 2.5-.6 4.6-1.5 6.3-2.7 1.8-1.2 3.4-2.8 4.8-4.8 1.6-2 2.8-4.6 3.7-7.7zm-7.2-.6c-.9 2.8-2.2 5.1-3.9 6.7-1.2 1.2-2.8 2.1-4.8 2.8s-4.7 1-8.2 1h-11.3v-40.6h11.1c4.2 0 7.2.4 9.1 1.1 2.6 1 4.8 3 6.6 6s2.7 7.3 2.7 12.8c.1 4-.4 7.4-1.3 10.2z"/><path d="m146.1 654.8c3.6 2.3 8.2 3.5 13.9 3.5 5.5 0 10.2-1.5 14-4.5s6.5-7.4 7.9-13.2l-7-1.8c-1 4.5-2.8 7.8-5.5 10.1s-6 3.4-10 3.4c-3.2 0-6.2-.8-9-2.5s-4.8-4.2-6.1-7.5c-1.3-3.4-2-7.3-2-11.8 0-3.5.6-6.9 1.7-10.2s3-5.9 5.8-7.9c2.7-2 6.1-2.9 10.2-2.9 3.5 0 6.5.9 8.8 2.6 2.3 1.8 4.1 4.6 5.3 8.4l6.9-1.6c-1.4-4.9-3.9-8.7-7.6-11.4-3.6-2.7-8.1-4.1-13.4-4.1-4.7 0-9 1.1-12.8 3.2-3.9 2.1-6.9 5.3-9 9.4s-3.2 8.9-3.2 14.5c0 5.1.9 9.8 2.8 14.2 2 4.4 4.7 7.8 8.3 10.1z"/><path d="m212.4 604.3h7v53.1h-7z"/><path d="m273.5 657.4v-53.1h-6.7v41.7l-27.9-41.7h-7.2v53.1h6.8v-41.7l27.8 41.7z"/><path d="m94.1 973.4c22.6 0 41-18.4 41-41s-18.4-41-41-41-41 18.4-41 41 18.4 41 41 41zm0-78.4c20.6 0 37.4 16.8 37.4 37.4s-16.8 37.4-37.4 37.4-37.4-16.8-37.4-37.4 16.7-37.4 37.4-37.4z"/><path d="m271.5 973.4c22.6 0 41-18.4 41-41s-18.4-41-41-41-41 18.4-41 41 18.4 41 41 41zm0-78.4c20.6 0 37.4 16.8 37.4 37.4s-16.8 37.4-37.4 37.4-37.4-16.8-37.4-37.4 16.7-37.4 37.4-37.4z"/><path d="m1056.3 81.2c0-1.9-.7-3.7-2.1-5l-72.1-72.1c-1.3-1.3-3.1-2.1-5-2.1h-897.1c-1.9 0-3.7.7-5 2.1l-72.2 72.1c-1.3 1.3-2.1 3.1-2.1 5v713.6s-.7 5.3-.7 9.4v258.1c0 5.9 4.8 10.6 10.6 10.6h25.5v16c0 5.3 4.3 9.6 9.6 9.6h286c5.3 0 9.6-4.3 9.6-9.6v-16h13.6c5.9 0 10.6-4.8 10.6-10.6v-258c0-5.9-4.8-10.6-10.6-10.6h-340v-709.5l68-68h270.3v118.1c0 25 20.3 45.3 45.3 45.3h251c25 0 45.3-20.3 45.3-45.3v-118.1h279.3l68 68v708.6h-340.9c-5.9 0-10.6 4.8-10.6 10.6v196.9h-324.2v14.2h324.2v47.1c0 5.9 4.8 10.6 10.6 10.6h12.8v16.8c0 5.3 4.3 9.6 9.6 9.6h286c5.3 0 9.6-4.3 9.6-9.6v-16.8h26.2c5.9 0 10.6-4.8 10.6-10.6v-258.2c0-3.8.2-9 .2-9v-713.2zm-722 1007.8c0 1.4-1.1 2.5-2.5 2.5h-286c-1.4 0-2.5-1.1-2.5-2.5v-16h291zm24.2-284.7v258.1c0 2-1.6 3.5-3.5 3.5h-344.4c-2 0-3.5-1.6-3.5-3.5v-258.1c0-2 1.6-3.5 3.5-3.5h344.3c2-.1 3.6 1.5 3.6 3.5zm329.2-670.1c0 21.1-17.1 38.2-38.2 38.2h-251c-21.1 0-38.2-17.1-38.2-38.2v-118h327.4zm324.5 954.8c0 1.4-1.1 2.5-2.5 2.5h-286c-1.4 0-2.5-1.1-2.5-2.5v-16.8h291zm36.8-27.5c0 2-1.6 3.5-3.5 3.5h-344.3c-2 0-3.5-1.6-3.5-3.5v-258.1c0-2 1.6-3.5 3.5-3.5h344.3c2 0 3.5 1.6 3.5 3.5z"/><path d="m155.9 139.1c0-9.8-8-17.8-17.8-17.8s-17.8 8-17.8 17.8 8 17.8 17.8 17.8 17.8-8 17.8-17.8zm-32 0c0-7.9 6.4-14.2 14.2-14.2 7.9 0 14.2 6.4 14.2 14.2 0 7.9-6.4 14.2-14.2 14.2-7.8.1-14.2-6.3-14.2-14.2z"/><path d="m784.6 896.6c-22.6 0-41 18.4-41 41s18.4 41 41 41 41-18.4 41-41-18.4-41-41-41zm0 78.4c-20.6 0-37.4-16.8-37.4-37.4s16.8-37.4 37.4-37.4 37.4 16.8 37.4 37.4-16.7 37.4-37.4 37.4z"/><path d="m962.1 896.6c-22.6 0-41 18.4-41 41s18.4 41 41 41 41-18.4 41-41-18.4-41-41-41zm0 78.4c-20.6 0-37.4-16.8-37.4-37.4s16.8-37.4 37.4-37.4 37.4 16.8 37.4 37.4-16.8 37.4-37.4 37.4z"/><path d="m295.9 139.1c0-14.7-12-26.7-26.7-26.7s-26.7 12-26.7 26.7 12 26.7 26.7 26.7 26.7-12 26.7-26.7zm-26.7 23.2c-12.8 0-23.2-10.4-23.2-23.2s10.4-23.2 23.2-23.2 23.2 10.4 23.2 23.2-10.4 23.2-23.2 23.2z"/><path d="m98.9 754.3v-22.7h22.6v-9.5h-22.6v-22.6h-9.6v22.6h-22.7v9.5h22.7v22.7z"/><path d="m255.7 732.6h31.5v10.2h-31.5z"/><path d="m774.3 608.9c-2.1-1.8-4.7-3.1-7.8-3.8-2.2-.5-5.3-.8-9.5-.8h-18.3v53.1h19.3c3.2 0 6.1-.3 8.5-.9 2.5-.6 4.6-1.5 6.3-2.7 1.8-1.2 3.4-2.8 4.8-4.8 1.5-2 2.7-4.6 3.6-7.7s1.4-6.7 1.4-10.7c0-4.7-.7-8.9-2.1-12.6-1.3-3.7-3.4-6.8-6.2-9.1zm-.3 31.8c-.9 2.8-2.2 5.1-3.9 6.7-1.2 1.2-2.8 2.1-4.8 2.8s-4.7 1-8.2 1h-11.3v-40.6h11.2c4.2 0 7.2.4 9.1 1.1 2.6 1 4.8 3 6.6 6s2.7 7.3 2.7 12.8c0 4-.5 7.4-1.4 10.2z"/><path d="m805 612.4c2.7-2 6.1-2.9 10.2-2.9 3.5 0 6.5.9 8.8 2.6 2.3 1.8 4.1 4.6 5.3 8.4l6.9-1.6c-1.4-4.9-3.9-8.7-7.6-11.4-3.6-2.7-8.1-4.1-13.4-4.1-4.7 0-9 1.1-12.8 3.2-3.9 2.1-6.9 5.3-9 9.4s-3.2 8.9-3.2 14.5c0 5.1.9 9.8 2.8 14.2s4.6 7.8 8.2 10.1 8.2 3.5 13.9 3.5c5.5 0 10.2-1.5 14-4.5s6.5-7.4 7.9-13.2l-7-1.8c-1 4.5-2.8 7.8-5.5 10.1s-6 3.4-10 3.4c-3.2 0-6.2-.8-9-2.5s-4.8-4.2-6.1-7.5c-1.3-3.4-2-7.3-2-11.8 0-3.5.6-6.9 1.7-10.2 1.3-3.4 3.2-6 5.9-7.9z"/><path d="m876.3 654.7c3.9 2.4 8.4 3.6 13.4 3.6 4.6 0 8.9-1.1 12.9-3.3s7.1-5.4 9.2-9.6c2.2-4.2 3.3-9.1 3.3-14.4s-1-10-3.1-14.2-5.1-7.4-9-9.8c-3.9-2.3-8.4-3.5-13.3-3.5-7.5 0-13.6 2.5-18.3 7.5s-7.1 11.9-7.1 20.7c0 4.7 1 9.1 3 13.2 2.1 4.1 5.1 7.3 9 9.8zm.6-40.1c3.6-3.4 7.9-5.1 12.8-5.1 3.5 0 6.6.9 9.5 2.7 2.8 1.8 4.9 4.3 6.4 7.5s2.2 7 2.2 11.3c0 6.8-1.7 12.1-5.1 15.8s-7.8 5.6-13 5.6-9.5-1.8-12.9-5.5-5.2-8.7-5.2-15.1c0-8.1 1.8-13.8 5.3-17.2z"/><path d="m924.3 604.3v30.7c0 5.6.7 10.1 2 13.3s3.6 5.7 6.8 7.4 7.2 2.6 12.2 2.6c5.1 0 9.2-1 12.4-3 3.1-2 5.3-4.5 6.5-7.6s1.8-7.4 1.8-12.7v-30.6h-7v30.6c0 6.7-1.1 11.2-3.3 13.5s-5.9 3.5-11 3.5c-3 0-5.5-.6-7.6-1.8s-3.5-2.9-4.4-5.1-1.3-5.6-1.3-10.2v-30.6z"/><path d="m998.2 657.4v-46.9h17.5v-6.2h-42.1v6.2h17.5v46.9z"/><path d="m961.1 699.5h-9.7v22.6h-22.6v9.5h22.6v22.7h9.7v-22.7h22.6v-9.5h-22.6z"/><path d="m763.1 732.6h31.5v10.2h-31.5z"/><path d="m269.2 119.8c10.7 0 19.3 8.6 19.3 19.3s-8.6 19.3-19.3 19.3-19.3-8.6-19.3-19.3c0-10.6 8.7-19.3 19.3-19.3"/><path d="m138.1 125.6c7.5 0 13.5 6 13.5 13.5s-6 13.5-13.5 13.5-13.5-6-13.5-13.5c0-7.4 6.1-13.5 13.5-13.5"/></svg>