<svg height="960" viewBox="0 0 960 960" width="960" xmlns="http://www.w3.org/2000/svg"><g fill="none" fill-rule="evenodd"><path d="m623.972246 45.2151945c-.010252-16.5001373-10.806774-27.8663615-32.090069-33.7845309-16.888238-4.69601829-46.949199-8.32585811-67.733089-9.71130433-11.427735-.76228833-24.929245-1.32759726-40.136201-1.6805492-2.644943-.05272311-5.083387-.05125858-7.747369 0-15.198169.35295194-28.698947.91899313-40.128146 1.6805492-20.782426 1.38617849-50.843387 5.01601831-67.732357 9.71130433-21.284028 5.9181694-32.080549 17.2851259-32.088604 33.7164302-8.316339 248.4210522-8.421053 536.1625632-.311213 855.2303892.217483 8.569702.467185 12.922288 3.732357 18.187277 10.84778 17.489428 25.025171 28.848329 42.139679 33.761098l.283387.060778c32.615835 4.586179 65.632952 6.911854 98.136019 6.911854h.008787c32.511853 0 65.426453-2.328604 97.823341-6.919909l.281922-.060045c17.117437-4.914234 31.295561-16.270939 42.140412-33.754508 3.265171-5.265721 3.514142-9.618307 3.731625-18.187277 8.109107-319.071488 8.005125-606.812266-.310481-855.1615565zm-143.675606 909.9320825c-32.067369 0-64.637071-2.279542-96.823067-6.771259-.872128-139.344256-9.520183-260.834416-25.712769-361.097666-11.472402-76.667459-14.819588-200.697849-9.950755-368.631212 1.837986-44.586179 2.766499-76.808788 3.511945-102.700229.797437-27.6613275 1.372998-47.6470483 2.615652-65.76476 1.138673-14.2784439 2.384989-19.4189473 19.120183-23.3980778 13.379222-3.0681922 28.294005-5.5718078 44.329154-7.4405492 17.785263-2.0730434 37.476613-3.4277345 58.530709-4.0274599 3.320824-.1083753 6.001648-.1091076 8.456934 0 40.039542 1.139405 74.644943 4.9977116 102.845949 11.4658123 16.74325 3.9813273 17.989566 9.1218307 19.128238 23.3885584 1.242655 18.1272311 1.818216 38.1100229 2.615653 65.7676892.746178 25.892906 1.673958 58.116979 3.511945 102.695103 4.869565 167.94508 1.52238 291.975469-9.947826 368.633409-16.194051 100.278627-24.842838 221.765858-25.714234 361.103524-31.972174 4.49611-64.433501 6.777117-96.509657 6.777117-.002196 0-.005858 0-.008054 0zm139.834874-54.87524c-.202838 8.018306-.40714 11.74627-3.109199 16.104714-9.933913 16.015377-22.760275 26.57318-38.12833 31.448604.891167-139.001556 9.528238-260.190023 25.685675-360.239451 11.489977-76.790481 14.844485-200.944622 9.971259-369.024439-1.837987-44.578124-2.765767-76.795607-3.511945-102.682655-.797437-27.6818306-1.37373-47.6821967-2.620046-65.862151-1.146728-14.3685125-2.425263-20.9039817-20.726774-25.2558352-28.341601-6.5003204-63.083203-10.3762014-103.242837-11.5185355-2.491167-.1113043-5.224714-.1105721-8.595332 0-21.109748.6004577-40.861876 1.9595424-58.707185 4.0399085-16.10984 1.8767963-31.099314 4.3935927-44.560549 7.4808238-18.293456 4.350389-19.571259 10.8858581-20.718719 25.266087-1.245584 18.1697025-1.821876 38.1729977-2.620046 65.8584894-.745446 25.885584-1.673959 58.10087-3.511213 102.687048-4.873226 168.068833-1.518718 292.222243 9.973456 369.023707 16.15524 100.035515 24.793043 221.226179 25.683478 360.227003-15.365126-4.865904-28.190755-15.426636-38.128329-31.447872-2.70206-4.356979-2.906362-8.086407-3.109932-16.104714-8.106911-318.988009-8.002929-606.646774.311945-855.0553777.008787-14.6101602 9.511396-24.3536842 29.050435-29.7870938 16.606316-4.6176659 46.318719-8.19624716 66.896842-9.5685126 11.369153-.75789474 24.809886-1.32100687 39.939954-1.67249428 2.591488-.04906179 4.993318-.05052632 7.570161 0 15.138855.35148741 28.579588.91459954 39.948741 1.67249428 20.578856 1.37226544 50.290526 4.9508467 66.89611 9.5685126 19.540503 5.4334096 29.04238 15.1769336 29.052631 29.8551945 8.314142 248.336842 8.417392 535.995606.309749 854.986545z" fill="#000" fill-rule="nonzero"/><g fill="#000" transform="translate(389.999889 229)"><g transform="translate(104.642589)"><path d="m1.30267408 24.020378c-.64951945-1.635881-1.06251717-3.4760641-1.23679634-5.5183524l-.00073227-.0087872c-.0168421-.1947826-.03221968-.471579-.04466819-.7996339v-.0036613c-.01098398-.2855835-.01757437-.6070481-.02047728-.9358353-.00149068-.3236613.00143838-.6473226.0094933-.9438901.00878718-.3287872.02050343-.6092449.03514874-.8120824v-.0036613c.15743707-2.082563.55798627-3.9564302 1.19871854-5.62160185.65025171-1.68933639 1.54727688-3.15313502 2.68887871-4.39066362 1.14379863-1.2397254 2.53949657-2.26050343 4.18416476-3.05940504 1.61391305-.78352402 3.46727685-1.35322654 5.56009155-1.70691075.355881-.06077803.6663615-.10617849.9475515-.13839817.2775286-.03221968.5513959-.05345538.8391762-.06663616.2643478-.01171624.5404119-.01318077.844302-.00805492.3134096.00512586.6165675.01684211.9416934.03368422l38.2403661 1.90315789c.4349657.0212357.8538215.04320366 1.2221511.06443936.4657208.02709382.8999542.05565217 1.2851258.08567506.4042106.03148741.8201373.07029748 1.2536385.11789473.3859039.0424714.7981693.09665904 1.2455835.16622426 2.46627.3815103 4.6432952.96585812 6.5105721 1.75304348 1.898032.7989016 3.4819222 1.80796339 4.7333638 3.02425629 1.2287414 1.19505721 2.1389474 2.59881007 2.7123112 4.20906182.557254 1.564119.7930435 3.3178947.6919909 5.2613272.1010526 1.9434325-.1347369 3.6972082-.6919909 5.260595-.5740961 1.6102517-1.484302 3.0140045-2.7123112 4.2083295-1.2514416 1.2170252-2.8353318 2.2253547-4.7326316 3.0249885-1.8680091.7864531-4.044302 1.370801-6.510572 1.7523113v.0036613c-.3851717.0593135-.802563.1135011-1.2455836.1618306-.4342334.0475973-.8501601.0864074-1.2543707.1178948-.3859039.0300229-.8186727.0585812-1.2851258.085675-.3617392.0212357-.7871854.0424714-1.2221511.0644394l-38.2403661 1.9031579c-.3236613.0161098-.6275515.0278261-.9416934.0329519-.3046224.0051259-.5806865.0026037-.844302-.0087871-.2877803-.0131808-.5616476-.0344165-.8391762-.0666362-.2804577-.0322197-.5909382-.0783524-.9482838-.1376659-2.0723112-.3507552-3.91102973-.913135-5.51615558-1.6864073-1.63075515-.7857209-3.01766591-1.7889245-4.16-3.0074142-1.13867277-1.2133639-2.03789474-2.6515332-2.69693364-4.3101144"/><path d="m1.30267408 101.030596c-.64951945-1.6358813-1.06251717-3.4760643-1.23679634-5.5183527l-.00073227-.0087872c-.0168421-.1947826-.03221968-.4715789-.04466819-.7996338v-.0036614c-.01098398-.2855835-.01757437-.607048-.02047728-.9358352-.00149068-.3236613.00143838-.6473227.0094933-.9438902.00878718-.3287871.02050343-.6092448.03514874-.8120823v-.0036614c.15743707-2.0825629.55798627-3.9564302 1.19871854-5.6216018.65025171-1.6893364 1.54727688-3.153135 2.68887871-4.3906636 1.14379863-1.2397254 2.53949657-2.2605034 4.18416476-3.059405 1.61391305-.7835241 3.46727685-1.3532266 5.56009155-1.7069108.355881-.060778.6663615-.1061785.9475515-.1383982.2775286-.0322197.5513959-.0534553.8391762-.0666361.2643478-.0117163.5404119-.0131808.844302-.0080549.3134096.0051258.6165675.0168421.9416934.0336842l38.2403661 1.9031579c.4349657.0212357.8538215.0432036 1.2221511.0644393.4657208.0270938.8999542.0556522 1.2851258.0856751.4042106.0314874.8201373.0702975 1.2536385.1178947.3859039.0424714.7981693.0966591 1.2455835.1662243 2.46627.3815103 4.6432952.9658581 6.5105721 1.7530434 1.898032.7989016 3.4819222 1.8079634 4.7333638 3.0242563 1.2287414 1.1950572 2.1389474 2.5988101 2.7123112 4.2090618.557254 1.564119.7930435 3.3178948.6919909 5.2613273.1010526 1.9434325-.1347369 3.6972082-.6919909 5.2605949-.5740961 1.6102514-1.484302 3.0140044-2.7123112 4.2083294-1.2514416 1.217025-2.8353318 2.225355-4.7326316 3.024989-1.8680091.786453-4.044302 1.370801-6.510572 1.752311v.003661c-.3851717.059314-.802563.113501-1.2455836.161831-.4342334.047597-.8501601.086407-1.2543707.117895-.3859039.030023-.8186727.058581-1.2851258.085675-.3617392.021235-.7871854.042471-1.2221511.064439l-38.2403661 1.903158c-.3236613.01611-.6275515.027826-.9416934.032952-.3046224.005126-.5806865.002604-.844302-.008787-.2877803-.013181-.5616476-.034417-.8391762-.066636-.2804577-.03222-.5909382-.078353-.9482838-.137666-2.0723112-.350755-3.91102973-.913135-5.51615558-1.686408-1.63075515-.78572-3.01766591-1.788924-4.16-3.007414-1.13867277-1.213364-2.03789474-2.651533-2.69693364-4.310114"/><path d="m1.30267408 178.030596c-.64951945-1.635881-1.06251717-3.476064-1.23679634-5.518353l-.00073227-.008787c-.0168421-.194782-.03221968-.471579-.04466819-.799634v-.003661c-.01098398-.285584-.01757437-.607048-.02047728-.935835-.00149068-.323662.00143838-.647323.0094933-.94389.00878718-.328788.02050343-.609245.03514874-.812083v-.003661c.15743707-2.082563.55798627-3.95643 1.19871854-5.621602.65025171-1.689336 1.54727688-3.153135 2.68887871-4.390664 1.14379863-1.239725 2.53949657-2.260503 4.18416476-3.059405 1.61391305-.783524 3.46727685-1.353226 5.56009155-1.70691.355881-.060778.6663615-.106179.9475515-.138399.2775286-.032219.5513959-.053455.8391762-.066636.2643478-.011716.5404119-.013181.844302-.008055.3134096.005126.6165675.016842.9416934.033685l38.2403661 1.903157c.4349657.021236.8538215.043204 1.2221511.06444.4657208.027094.8999542.055652 1.2851258.085675.4042106.031487.8201373.070297 1.2536385.117895.3859039.042471.7981693.096659 1.2455835.166224 2.46627.38151 4.6432952.965858 6.5105721 1.753043 1.898032.798902 3.4819222 1.807964 4.7333638 3.024257 1.2287414 1.195057 2.1389474 2.59881 2.7123112 4.209061.557254 1.564119.7930435 3.317895.6919909 5.261328.1010526 1.943432-.1347369 3.697208-.6919909 5.260595-.5740961 1.610251-1.484302 3.014004-2.7123112 4.208329-1.2514416 1.217025-2.8353318 2.225355-4.7326316 3.024989-1.8680091.786453-4.044302 1.370801-6.510572 1.752311v.003661c-.3851717.059314-.802563.113501-1.2455836.161831-.4342334.047597-.8501601.086407-1.2543707.117895-.3859039.030023-.8186727.058581-1.2851258.085675-.3617392.021235-.7871854.042471-1.2221511.064439l-38.2403661 1.903158c-.3236613.01611-.6275515.027826-.9416934.032952-.3046224.005126-.5806865.002604-.844302-.008787-.2877803-.013181-.5616476-.034417-.8391762-.066636-.2804577-.03222-.5909382-.078353-.9482838-.137666-2.0723112-.350755-3.91102973-.913135-5.51615558-1.686408-1.63075515-.78572-3.01766591-1.788924-4.16-3.007414-1.13867277-1.213364-2.03789474-2.651533-2.69693364-4.310114"/><path d="m1.30267408 255.040813c-.64951945-1.635881-1.06251717-3.476064-1.23679634-5.518352l-.00073227-.008787c-.0168421-.194783-.03221968-.471579-.04466819-.799634v-.003661c-.01098398-.285584-.01757437-.607048-.02047728-.935836-.00149068-.323661.00143838-.647322.0094933-.94389.00878718-.328787.02050343-.609245.03514874-.812082v-.003661c.15743707-2.082563.55798627-3.956431 1.19871854-5.621602.65025171-1.689337 1.54727688-3.153135 2.68887871-4.390664 1.14379863-1.239725 2.53949657-2.260503 4.18416476-3.059405 1.61391305-.783524 3.46727685-1.353226 5.56009155-1.706911.355881-.060778.6663615-.106178.9475515-.138398.2775286-.032219.5513959-.053455.8391762-.066636.2643478-.011716.5404119-.013181.844302-.008055.3134096.005126.6165675.016842.9416934.033684l38.2403661 1.903158c.4349657.021236.8538215.043204 1.2221511.06444.4657208.027093.8999542.055652 1.2851258.085675.4042106.031487.8201373.070297 1.2536385.117894.3859039.042472.7981693.096659 1.2455835.166225 2.46627.38151 4.6432952.965858 6.5105721 1.753043 1.898032.798902 3.4819222 1.807963 4.7333638 3.024256 1.2287414 1.195058 2.1389474 2.59881 2.7123112 4.209062.557254 1.564119.7930435 3.317895.6919909 5.261327.1010526 1.943433-.1347369 3.697209-.6919909 5.260595-.5740961 1.610252-1.484302 3.014005-2.7123112 4.20833-1.2514416 1.217025-2.8353318 2.225355-4.7326316 3.024988-1.8680091.786454-4.044302 1.370801-6.510572 1.752312v.003661c-.3851717.059314-.802563.113501-1.2455836.161831-.4342334.047597-.8501601.086407-1.2543707.117894-.3859039.030023-.8186727.058582-1.2851258.085675-.3617392.021236-.7871854.042472-1.2221511.06444l-38.2403661 1.903158c-.3236613.01611-.6275515.027826-.9416934.032952-.3046224.005126-.5806865.002603-.844302-.008788-.2877803-.01318-.5616476-.034416-.8391762-.066636-.2804577-.032219-.5909382-.078352-.9482838-.137666-2.0723112-.350755-3.91102973-.913135-5.51615558-1.686407-1.63075515-.785721-3.01766591-1.788924-4.16-3.007414-1.13867277-1.213364-2.03789474-2.651533-2.69693364-4.310115"/><path d="m1.30267408 332.040813c-.64951945-1.635881-1.06251717-3.476064-1.23679634-5.518352l-.00073227-.008787c-.0168421-.194783-.03221968-.471579-.04466819-.799634v-.003661c-.01098398-.285584-.01757437-.607048-.02047728-.935836-.00149068-.323661.00143838-.647322.0094933-.94389.00878718-.328787.02050343-.609245.03514874-.812082v-.003661c.15743707-2.082563.55798627-3.956431 1.19871854-5.621602.65025171-1.689337 1.54727688-3.153135 2.68887871-4.390664 1.14379863-1.239725 2.53949657-2.260503 4.18416476-3.059405 1.61391305-.783524 3.46727685-1.353226 5.56009155-1.706911.355881-.060778.6663615-.106178.9475515-.138398.2775286-.032219.5513959-.053455.8391762-.066636.2643478-.011716.5404119-.013181.844302-.008055.3134096.005126.6165675.016842.9416934.033684l38.2403661 1.903158c.4349657.021236.8538215.043204 1.2221511.06444.4657208.027093.8999542.055652 1.2851258.085675.4042106.031487.8201373.070297 1.2536385.117894.3859039.042472.7981693.096659 1.2455835.166225 2.46627.38151 4.6432952.965858 6.5105721 1.753043 1.898032.798902 3.4819222 1.807963 4.7333638 3.024256 1.2287414 1.195058 2.1389474 2.59881 2.7123112 4.209062.557254 1.564119.7930435 3.317895.6919909 5.261327.1010526 1.943433-.1347369 3.697209-.6919909 5.260595-.5740961 1.610252-1.484302 3.014005-2.7123112 4.20833-1.2514416 1.217025-2.8353318 2.225355-4.7326316 3.024988-1.8680091.786454-4.044302 1.370801-6.510572 1.752312v.003661c-.3851717.059314-.802563.113501-1.2455836.161831-.4342334.047597-.8501601.086407-1.2543707.117894-.3859039.030023-.8186727.058582-1.2851258.085675-.3617392.021236-.7871854.042472-1.2221511.06444l-38.2403661 1.903158c-.3236613.01611-.6275515.027826-.9416934.032952-.3046224.005126-.5806865.002603-.844302-.008788-.2877803-.01318-.5616476-.034416-.8391762-.066636-.2804577-.032219-.5909382-.078352-.9482838-.137666-2.0723112-.350755-3.91102973-.913135-5.51615558-1.686407-1.63075515-.785721-3.01766591-1.788924-4.16-3.007414-1.13867277-1.213364-2.03789474-2.651533-2.69693364-4.310115"/></g><g transform="matrix(-1 0 0 1 76 0)"><path d="m1.30267408 24.020378c-.64951945-1.635881-1.06251717-3.4760641-1.23679634-5.5183524l-.00073227-.0087872c-.0168421-.1947826-.03221968-.471579-.04466819-.7996339v-.0036613c-.01098398-.2855835-.01757437-.6070481-.02047728-.9358353-.00149068-.3236613.00143838-.6473226.0094933-.9438901.00878718-.3287872.02050343-.6092449.03514874-.8120824v-.0036613c.15743707-2.082563.55798627-3.9564302 1.19871854-5.62160185.65025171-1.68933639 1.54727688-3.15313502 2.68887871-4.39066362 1.14379863-1.2397254 2.53949657-2.26050343 4.18416476-3.05940504 1.61391305-.78352402 3.46727685-1.35322654 5.56009155-1.70691075.355881-.06077803.6663615-.10617849.9475515-.13839817.2775286-.03221968.5513959-.05345538.8391762-.06663616.2643478-.01171624.5404119-.01318077.844302-.00805492.3134096.00512586.6165675.01684211.9416934.03368422l38.2403661 1.90315789c.4349657.0212357.8538215.04320366 1.2221511.06443936.4657208.02709382.8999542.05565217 1.2851258.08567506.4042106.03148741.8201373.07029748 1.2536385.11789473.3859039.0424714.7981693.09665904 1.2455835.16622426 2.46627.3815103 4.6432952.96585812 6.5105721 1.75304348 1.898032.7989016 3.4819222 1.80796339 4.7333638 3.02425629 1.2287414 1.19505721 2.1389474 2.59881007 2.7123112 4.20906182.557254 1.564119.7930435 3.3178947.6919909 5.2613272.1010526 1.9434325-.1347369 3.6972082-.6919909 5.260595-.5740961 1.6102517-1.484302 3.0140045-2.7123112 4.2083295-1.2514416 1.2170252-2.8353318 2.2253547-4.7326316 3.0249885-1.8680091.7864531-4.044302 1.370801-6.510572 1.7523113v.0036613c-.3851717.0593135-.802563.1135011-1.2455836.1618306-.4342334.0475973-.8501601.0864074-1.2543707.1178948-.3859039.0300229-.8186727.0585812-1.2851258.085675-.3617392.0212357-.7871854.0424714-1.2221511.0644394l-38.2403661 1.9031579c-.3236613.0161098-.6275515.0278261-.9416934.0329519-.3046224.0051259-.5806865.0026037-.844302-.0087871-.2877803-.0131808-.5616476-.0344165-.8391762-.0666362-.2804577-.0322197-.5909382-.0783524-.9482838-.1376659-2.0723112-.3507552-3.91102973-.913135-5.51615558-1.6864073-1.63075515-.7857209-3.01766591-1.7889245-4.16-3.0074142-1.13867277-1.2133639-2.03789474-2.6515332-2.69693364-4.3101144"/><path d="m1.30267408 101.030596c-.64951945-1.6358813-1.06251717-3.4760643-1.23679634-5.5183527l-.00073227-.0087872c-.0168421-.1947826-.03221968-.4715789-.04466819-.7996338v-.0036614c-.01098398-.2855835-.01757437-.607048-.02047728-.9358352-.00149068-.3236613.00143838-.6473227.0094933-.9438902.00878718-.3287871.02050343-.6092448.03514874-.8120823v-.0036614c.15743707-2.0825629.55798627-3.9564302 1.19871854-5.6216018.65025171-1.6893364 1.54727688-3.153135 2.68887871-4.3906636 1.14379863-1.2397254 2.53949657-2.2605034 4.18416476-3.059405 1.61391305-.7835241 3.46727685-1.3532266 5.56009155-1.7069108.355881-.060778.6663615-.1061785.9475515-.1383982.2775286-.0322197.5513959-.0534553.8391762-.0666361.2643478-.0117163.5404119-.0131808.844302-.0080549.3134096.0051258.6165675.0168421.9416934.0336842l38.2403661 1.9031579c.4349657.0212357.8538215.0432036 1.2221511.0644393.4657208.0270938.8999542.0556522 1.2851258.0856751.4042106.0314874.8201373.0702975 1.2536385.1178947.3859039.0424714.7981693.0966591 1.2455835.1662243 2.46627.3815103 4.6432952.9658581 6.5105721 1.7530434 1.898032.7989016 3.4819222 1.8079634 4.7333638 3.0242563 1.2287414 1.1950572 2.1389474 2.5988101 2.7123112 4.2090618.557254 1.564119.7930435 3.3178948.6919909 5.2613273.1010526 1.9434325-.1347369 3.6972082-.6919909 5.2605949-.5740961 1.6102514-1.484302 3.0140044-2.7123112 4.2083294-1.2514416 1.217025-2.8353318 2.225355-4.7326316 3.024989-1.8680091.786453-4.044302 1.370801-6.510572 1.752311v.003661c-.3851717.059314-.802563.113501-1.2455836.161831-.4342334.047597-.8501601.086407-1.2543707.117895-.3859039.030023-.8186727.058581-1.2851258.085675-.3617392.021235-.7871854.042471-1.2221511.064439l-38.2403661 1.903158c-.3236613.01611-.6275515.027826-.9416934.032952-.3046224.005126-.5806865.002604-.844302-.008787-.2877803-.013181-.5616476-.034417-.8391762-.066636-.2804577-.03222-.5909382-.078353-.9482838-.137666-2.0723112-.350755-3.91102973-.913135-5.51615558-1.686408-1.63075515-.78572-3.01766591-1.788924-4.16-3.007414-1.13867277-1.213364-2.03789474-2.651533-2.69693364-4.310114"/><path d="m1.30267408 178.030596c-.64951945-1.635881-1.06251717-3.476064-1.23679634-5.518353l-.00073227-.008787c-.0168421-.194782-.03221968-.471579-.04466819-.799634v-.003661c-.01098398-.285584-.01757437-.607048-.02047728-.935835-.00149068-.323662.00143838-.647323.0094933-.94389.00878718-.328788.02050343-.609245.03514874-.812083v-.003661c.15743707-2.082563.55798627-3.95643 1.19871854-5.621602.65025171-1.689336 1.54727688-3.153135 2.68887871-4.390664 1.14379863-1.239725 2.53949657-2.260503 4.18416476-3.059405 1.61391305-.783524 3.46727685-1.353226 5.56009155-1.70691.355881-.060778.6663615-.106179.9475515-.138399.2775286-.032219.5513959-.053455.8391762-.066636.2643478-.011716.5404119-.013181.844302-.008055.3134096.005126.6165675.016842.9416934.033685l38.2403661 1.903157c.4349657.021236.8538215.043204 1.2221511.06444.4657208.027094.8999542.055652 1.2851258.085675.4042106.031487.8201373.070297 1.2536385.117895.3859039.042471.7981693.096659 1.2455835.166224 2.46627.38151 4.6432952.965858 6.5105721 1.753043 1.898032.798902 3.4819222 1.807964 4.7333638 3.024257 1.2287414 1.195057 2.1389474 2.59881 2.7123112 4.209061.557254 1.564119.7930435 3.317895.6919909 5.261328.1010526 1.943432-.1347369 3.697208-.6919909 5.260595-.5740961 1.610251-1.484302 3.014004-2.7123112 4.208329-1.2514416 1.217025-2.8353318 2.225355-4.7326316 3.024989-1.8680091.786453-4.044302 1.370801-6.510572 1.752311v.003661c-.3851717.059314-.802563.113501-1.2455836.161831-.4342334.047597-.8501601.086407-1.2543707.117895-.3859039.030023-.8186727.058581-1.2851258.085675-.3617392.021235-.7871854.042471-1.2221511.064439l-38.2403661 1.903158c-.3236613.01611-.6275515.027826-.9416934.032952-.3046224.005126-.5806865.002604-.844302-.008787-.2877803-.013181-.5616476-.034417-.8391762-.066636-.2804577-.03222-.5909382-.078353-.9482838-.137666-2.0723112-.350755-3.91102973-.913135-5.51615558-1.686408-1.63075515-.78572-3.01766591-1.788924-4.16-3.007414-1.13867277-1.213364-2.03789474-2.651533-2.69693364-4.310114"/><path d="m1.30267408 255.040813c-.64951945-1.635881-1.06251717-3.476064-1.23679634-5.518352l-.00073227-.008787c-.0168421-.194783-.03221968-.471579-.04466819-.799634v-.003661c-.01098398-.285584-.01757437-.607048-.02047728-.935836-.00149068-.323661.00143838-.647322.0094933-.94389.00878718-.328787.02050343-.609245.03514874-.812082v-.003661c.15743707-2.082563.55798627-3.956431 1.19871854-5.621602.65025171-1.689337 1.54727688-3.153135 2.68887871-4.390664 1.14379863-1.239725 2.53949657-2.260503 4.18416476-3.059405 1.61391305-.783524 3.46727685-1.353226 5.56009155-1.706911.355881-.060778.6663615-.106178.9475515-.138398.2775286-.032219.5513959-.053455.8391762-.066636.2643478-.011716.5404119-.013181.844302-.008055.3134096.005126.6165675.016842.9416934.033684l38.2403661 1.903158c.4349657.021236.8538215.043204 1.2221511.06444.4657208.027093.8999542.055652 1.2851258.085675.4042106.031487.8201373.070297 1.2536385.117894.3859039.042472.7981693.096659 1.2455835.166225 2.46627.38151 4.6432952.965858 6.5105721 1.753043 1.898032.798902 3.4819222 1.807963 4.7333638 3.024256 1.2287414 1.195058 2.1389474 2.59881 2.7123112 4.209062.557254 1.564119.7930435 3.317895.6919909 5.261327.1010526 1.943433-.1347369 3.697209-.6919909 5.260595-.5740961 1.610252-1.484302 3.014005-2.7123112 4.20833-1.2514416 1.217025-2.8353318 2.225355-4.7326316 3.024988-1.8680091.786454-4.044302 1.370801-6.510572 1.752312v.003661c-.3851717.059314-.802563.113501-1.2455836.161831-.4342334.047597-.8501601.086407-1.2543707.117894-.3859039.030023-.8186727.058582-1.2851258.085675-.3617392.021236-.7871854.042472-1.2221511.06444l-38.2403661 1.903158c-.3236613.01611-.6275515.027826-.9416934.032952-.3046224.005126-.5806865.002603-.844302-.008788-.2877803-.01318-.5616476-.034416-.8391762-.066636-.2804577-.032219-.5909382-.078352-.9482838-.137666-2.0723112-.350755-3.91102973-.913135-5.51615558-1.686407-1.63075515-.785721-3.01766591-1.788924-4.16-3.007414-1.13867277-1.213364-2.03789474-2.651533-2.69693364-4.310115"/><path d="m1.30267408 332.040813c-.64951945-1.635881-1.06251717-3.476064-1.23679634-5.518352l-.00073227-.008787c-.0168421-.194783-.03221968-.471579-.04466819-.799634v-.003661c-.01098398-.285584-.01757437-.607048-.02047728-.935836-.00149068-.323661.00143838-.647322.0094933-.94389.00878718-.328787.02050343-.609245.03514874-.812082v-.003661c.15743707-2.082563.55798627-3.956431 1.19871854-5.621602.65025171-1.689337 1.54727688-3.153135 2.68887871-4.390664 1.14379863-1.239725 2.53949657-2.260503 4.18416476-3.059405 1.61391305-.783524 3.46727685-1.353226 5.56009155-1.706911.355881-.060778.6663615-.106178.9475515-.138398.2775286-.032219.5513959-.053455.8391762-.066636.2643478-.011716.5404119-.013181.844302-.008055.3134096.005126.6165675.016842.9416934.033684l38.2403661 1.903158c.4349657.021236.8538215.043204 1.2221511.06444.4657208.027093.8999542.055652 1.2851258.085675.4042106.031487.8201373.070297 1.2536385.117894.3859039.042472.7981693.096659 1.2455835.166225 2.46627.38151 4.6432952.965858 6.5105721 1.753043 1.898032.798902 3.4819222 1.807963 4.7333638 3.024256 1.2287414 1.195058 2.1389474 2.59881 2.7123112 4.209062.557254 1.564119.7930435 3.317895.6919909 5.261327.1010526 1.943433-.1347369 3.697209-.6919909 5.260595-.5740961 1.610252-1.484302 3.014005-2.7123112 4.20833-1.2514416 1.217025-2.8353318 2.225355-4.7326316 3.024988-1.8680091.786454-4.044302 1.370801-6.510572 1.752312v.003661c-.3851717.059314-.802563.113501-1.2455836.161831-.4342334.047597-.8501601.086407-1.2543707.117894-.3859039.030023-.8186727.058582-1.2851258.085675-.3617392.021236-.7871854.042472-1.2221511.06444l-38.2403661 1.903158c-.3236613.01611-.6275515.027826-.9416934.032952-.3046224.005126-.5806865.002603-.844302-.008788-.2877803-.01318-.5616476-.034416-.8391762-.066636-.2804577-.032219-.5909382-.078352-.9482838-.137666-2.0723112-.350755-3.91102973-.913135-5.51615558-1.686407-1.63075515-.785721-3.01766591-1.788924-4.16-3.007414-1.13867277-1.213364-2.03789474-2.651533-2.69693364-4.310115"/></g></g><g stroke="#000" stroke-linejoin="round"><path d="m616.984892 65.174549c-.009764-15.7553911-10.292585-26.6085922-30.563218-32.2596404-16.084693-4.48406-44.715349-7.9500642-64.510339-9.2729773-10.884001-.7278818-23.743108-1.2676751-38.226515-1.6046963-2.519096-.0503434-4.841519-.048945-7.378748 0-14.475038.3370212-27.333447.8775137-38.218843 1.6046963-19.793595 1.3236123-48.424251 4.7896165-64.509641 9.2729773-20.271331 5.6510482-30.554152 16.5049485-30.561824 32.1946135-7.920646 237.2083799-8.020378 511.9624579-.296405 816.6289159.207135 8.182902.444956 12.339031 3.554771 17.36638 10.331641 16.700029 23.83447 27.546238 40.134667 32.237265l.269903.058035c31.063969 4.379178 62.510127 6.599882 93.466692 6.599882h.008369c30.964935 0 62.313453-2.223501 93.168892-6.607573l.268509-.057336c16.302987-4.692425 29.806513-15.536537 40.135365-32.230972 3.109814-5.028049 3.346938-9.184177 3.554073-17.366381 7.723275-304.669953 7.624241-579.423332-.295708-816.563189z" stroke-width="40"/><path d="m345.643719 554.224242c27.272704 115.687687 40.909056 241.276684 40.909056 376.766994" stroke-width="20"/><path d="m573.999889 554.224242c27.272704 115.687687 40.909056 241.276684 40.909056 376.766994" stroke-width="20" transform="matrix(-1 0 0 1 1188.908834 0)"/></g><path d="m472.999889 56h18v37h-18z" fill="#000"/></g></svg>