<svg height="960" viewBox="0 0 960 960" width="960" xmlns="http://www.w3.org/2000/svg"><g fill="none" fill-rule="evenodd"><g transform="translate(155 157)"><g fill="#000"><path d="m59.7775 137.325-.0005604 143.862-50.7744396.0005v77.855l50.7744396-.0005.0005604 143.863c-20.920304-31.796496-34.9411584-57.688546-42.0625634-77.676149-7.1214049-19.987604-12.89807061-53.897221-17.32999699-101.728851 6.12177374-49.709718 12.92804169-85.473399 20.41880389-107.291045 7.4907622-21.817645 20.4820144-48.112297 38.9737565-78.883955z" stroke="#000" stroke-linejoin="round" stroke-width="10"/><path d="m428.7425 321.808369c0-24.304497 19.701372-44.005869 44.004131-44.005869 24.304497 0 44.005869 19.701372 44.005869 44.005869 0 24.302759-19.701372 44.004131-44.005869 44.004131-24.302759 0-44.004131-19.701372-44.004131-44.004131z" fill-rule="nonzero"/><path d="m132.555 321.808369c0-24.304497 19.700983-44.005869 44.005-44.005869s44.005 19.701372 44.005 44.005869c0 24.302759-19.700983 44.004131-44.005 44.004131s-44.005-19.701372-44.005-44.004131z" fill-rule="nonzero"/></g><circle cx="325.5" cy="323.5" r="323.2675" stroke="#000" stroke-linejoin="round" stroke-width="20"/><path d="m648.92256 137.325-.00056 143.862-50.77444.0005v77.855l50.77444-.0005.00056 143.863c-20.920304-31.796496-34.941158-57.688546-42.062563-77.676149-7.121405-19.987604-12.898071-53.897221-17.329997-101.728851 6.121774-49.709718 12.928042-85.473399 20.418804-107.291045 7.490762-21.817645 20.482014-48.112297 38.973756-78.883955z" fill="#000" stroke="#000" stroke-linejoin="round" stroke-width="10" transform="matrix(-1 0 0 1 1238.45256 0)"/></g><circle cx="480" cy="477" r="442" stroke="#000" stroke-linejoin="round" stroke-width="40"/></g></svg>