<svg height="960" viewBox="0 0 960 960" width="960" xmlns="http://www.w3.org/2000/svg"><g fill="none" fill-rule="evenodd"><g stroke="#000" stroke-linejoin="round"><circle cx="373" cy="269" r="65" stroke-width="20"/><circle cx="585" cy="269" r="65" stroke-width="20"/><circle cx="585" cy="269" r="34" stroke-linecap="round" stroke-width="12.5"/><path d="m263.610588 270.546653c6.851421 105.199083 26.479641 189.569978 58.336373 250.780447 31.750961 61.007478 76.55934 100.694407 133.181778 117.959452 7.760195 2.36679 12.146486 3.329919 24.48077 3.329919s16.722734-.963129 24.48077-3.329919c56.622438-17.267204 101.430817-56.954133 133.181778-117.959452 31.858891-61.210469 51.484952-145.581364 58.338531-250.780447-.308681-38.823136-7.140674-68.451206-39.431287-86.858616-30.829235-17.571691-83.635255-25.071566-176.569792-25.071566s-145.742716 7.497715-176.571951 25.071566c-32.288454 18.40741-39.118289 48.03548-39.42697 86.858616z" stroke-width="20"/><path d="m479.611708 935.308235h-.035823c-16.527537-.158935-32.701329-5.992518-48.071356-17.337339-15.10136-11.147831-29.844497-27.952402-43.819691-49.943624l-.067167-.111926c-9.065294-15.459221-27.498133-24.625961-54.785809-27.249507-3.597907-.346971-7.40851-.582015-11.331057-.705134h-6.586835c-58.381477 0-97.524113-40.584372-109.591767-67.862979-12.085566-27.316662-19.14033-91.73232-21.511322-138.595741l-.622414-12.25366c-3.232967-63.6859-6.577879-129.540926-6.577879-194.111042 0-89.059527 3.154606-180.538894 8.657815-250.987364 3.288939-42.124474 11.28404-70.578304 25.921949-92.260611 17.732064-26.2645577 45.774248-42.3393714 85.727364-49.1444729 43.824169-7.4609879 134.259934-11.4365998 182.693992-11.4365998s138.867583 3.9756119 182.693991 11.4365998c39.953116 6.8028629 67.995301 22.8799152 85.727365 49.1444729 14.637908 21.680068 22.63077 50.133899 25.921949 92.260611 5.500969 70.443993 8.655575 161.925599 8.655575 250.987364 0 64.583547-3.344912 130.452004-6.582357 194.151336l-.620174 12.215605c-2.370992 46.86342-9.425756 111.279078-21.509083 138.595741-12.067655 27.278607-51.21029 67.862979-109.591767 67.862979h-6.586835c-3.920309.12088-7.73315.358163-11.331058.705133-27.287676 2.621308-45.720514 11.790286-54.785808 27.249507l-.067167.111926c-13.975195 21.991223-28.718331 38.795794-43.819691 49.943625-15.370028 11.34482-31.54382 17.178404-48.071357 17.3351z" stroke-width="40"/></g><path d="m480 843c-22.39518 0-38 11.067729-38 21s15.607322 21 38 21c22.39518 0 38-11.067729 38-21s-15.607322-21-38-21z" fill="#000"/><circle cx="480" cy="108" fill="#000" r="28"/><path d="m373 235v68" stroke="#000" stroke-linecap="round" stroke-linejoin="round" stroke-width="12.5"/></g></svg>