<?xml version="1.0" encoding="UTF-8"?>
<svg width="960px" height="960px" viewBox="0 0 960 960" version="1.1" xmlns="http://www.w3.org/2000/svg" xmlns:xlink="http://www.w3.org/1999/xlink">
    <title>nl.klikaanklikuit/drivers/ACDB-9000C/assets/learnmode</title>
    <style type="text/css">
    	#pair {
    		animation: pair 2s infinite;
    	}

    	@keyframes pair {
    		0%, 20%, 60%, 100% {
    			fill: rgba(255,255,255,0);
    		}
    		40% {
    			fill: #0074CC;
    		}
    	}
    </style>
    <g id="nl.klikaanklikuit/drivers/ACDB-9000C/assets/learnmode" stroke="none" stroke-width="1" fill="none" fill-rule="evenodd">
        <path d="M474.880531,947.998538 C306.721195,947.902056 216.094352,943.029689 203,933.381438 L203,933.381438 L220.951044,40.2300974 L222.01414,40.1142546 C222.029545,39.9508932 222.057516,39.787862 222.097951,39.6251723 C222.032832,39.1472138 222,38.6672311 222,38.1857143 L222.778583,38.2078016 L222.778583,38.2078016 C233.015102,23.5816435 344.179755,12.0569966 479.991701,12.0002108 L480,12 C480.33833,12.0000681 480.669093,12 481,12 C617.30365,12 729.015283,23.551223 739.23737,38.2174204 L740,38.1857143 C740,38.6672311 739.967168,39.1472138 739.901927,39.6255778 C739.967209,39.887339 740,40.1503922 740,40.4142857 C740,41.2171284 739.696497,42.0121943 739.101392,42.7981777 L757,933.381438 C743.773382,943.127146 651.440049,948 480,948 Z" id="Combined-Shape" stroke="#000000" stroke-width="20" stroke-linecap="round" stroke-linejoin="round"></path>
        <ellipse id="Oval" stroke="#000000" stroke-width="10" cx="481" cy="670" rx="49" ry="28"></ellipse>
        <path d="M609,691 C636.061953,691 658,678.463973 658,663 C658,647.536027 636.061953,635 609,635 C581.938047,635 560,647.536027 560,663 C560,678.463973 581.938047,691 609,691 Z" id="Oval" stroke="#000000" stroke-width="10" transform="translate(609.000000, 663.000000) rotate(-5.000000) translate(-609.000000, -663.000000) "></path>
        <path d="M609,644 C621.037454,644 631.997807,646.774891 639.907804,651.546001 C643.098793,653.470724 645.759894,655.680135 647.523261,658.247936 C648.528572,659.711862 649.235294,661.283945 649.235294,663 C649.235294,664.716055 648.528572,666.288138 647.523261,667.752064 C645.759894,670.319865 643.098793,672.529276 639.907804,674.453999 C631.997807,679.225109 621.037454,682 609,682 C596.962546,682 586.002193,679.225109 578.092196,674.453999 C574.901207,672.529276 572.240106,670.319865 570.476739,667.752064 C569.471428,666.288138 568.764706,664.716055 568.764706,663 C568.764706,661.283945 569.471428,659.711862 570.476739,658.247936 C572.240106,655.680135 574.901207,653.470724 578.092196,651.546001 C586.002193,646.774891 596.962546,644 609,644 Z" id="pair" fill="#0074CC" transform="translate(609.000000, 663.000000) rotate(-5.000000) translate(-609.000000, -663.000000) "></path>
        <ellipse id="Oval" stroke="#000000" stroke-width="10" transform="translate(353.000000, 663.000000) rotate(5.000000) translate(-353.000000, -663.000000) " cx="353" cy="663" rx="49" ry="28"></ellipse>
        <path d="M207,821.525218 C298.722744,829.049319 390.051263,832.81137 480.98556,832.81137 C571.919856,832.81137 662.591336,829.049319 753,821.525218" id="Path-9" stroke="#000000" stroke-width="10" stroke-linecap="round" stroke-linejoin="round"></path>
        <path d="M345.791384,647.788077 L345.978815,647.803435 L369.787343,650.384875 C371.571524,650.578325 372.920288,652.089919 372.910239,653.884528 L372.889312,656.126283 L372.873103,657.196095 L372.82809,659.235535 L372.782618,660.678984 L372.746398,661.600996 L372.705249,662.491233 L372.658995,663.350084 L372.607462,664.177935 L372.550475,664.975178 L372.487857,665.7422 L372.419434,666.479389 L372.34503,667.187135 L372.264471,667.865827 L372.177581,668.515852 L372.084184,669.1376 L371.984106,669.73146 L371.87717,670.297819 C371.840363,670.482065 371.802384,670.661793 371.763203,670.837067 L371.642028,671.349593 L371.513471,671.835785 C371.352539,672.411306 371.174834,672.929248 370.978937,673.392759 C370.641967,676.523279 366.303041,679 361,679 C355.477153,679 351,676.313708 351,673 C351,669.686292 355.477153,667 361,667 C362.512264,667 363.946125,667.201411 365.231134,667.561963 L365.239233,667.495947 L365.239233,667.495947 L365.325185,666.809547 C365.354284,666.560742 365.382325,666.303267 365.409302,666.03714 L365.487043,665.21282 L365.558381,664.336694 L365.623293,663.408867 L365.681754,662.429443 L365.73374,661.398531 L365.779225,660.316233 L365.818185,659.182657 L365.850596,657.997908 L365.872,657.001 L349.101,655.182 L349.101539,657.637758 C349.101539,659.056385 348.856387,660.81934 348.368123,662.953053 L348.173632,663.770627 L347.956373,664.623269 C347.880162,664.913362 347.800159,665.209351 347.71637,665.511289 L347.453647,666.434996 L347.168228,667.394702 C347.118768,667.55767 347.068364,667.72215 347.017015,667.88815 L346.697596,668.902432 C346.642473,669.074535 346.586406,669.24817 346.529397,669.423344 L346.176032,670.4929 L345.800067,671.599692 L345.609308,672.150805 L345.386651,672.073705 C343.979781,674.365509 340.308021,676 336,676 C330.477153,676 326,673.313708 326,670 C326,666.686292 330.477153,664 336,664 C337.685926,664 339.274408,664.250325 340.667833,664.692407 L340.725572,664.497157 C340.763881,664.365721 340.801386,664.235745 340.838088,664.107234 L341.048668,663.353802 L341.239994,662.635826 C341.300563,662.402442 341.357927,662.175015 341.41209,661.953592 L341.564976,661.307383 C341.588857,661.202699 341.611939,661.099528 341.634222,660.997876 L341.758336,660.406236 C341.796513,660.215129 341.831498,660.030145 341.863295,659.85133 L341.949121,659.333443 L342.015837,658.852858 C342.063476,658.467993 342.091232,658.12228 342.099161,657.816458 L342.101539,657.637758 L342.101539,651.283041 C342.101539,649.263817 343.800762,647.677684 345.791384,647.788077 Z" id="Combined-Shape" fill="#000000"></path>
        <line x1="481" y1="665.181315" x2="481" y2="675.557025" id="Path-41" stroke="#000000" stroke-width="10" stroke-linecap="round"></line>
        <line x1="465" y1="670" x2="465" y2="675.557025" id="Path-41" stroke="#000000" stroke-width="10" stroke-linecap="round"></line>
        <line x1="497" y1="661" x2="497" y2="675.557025" id="Path-41" stroke="#000000" stroke-width="10" stroke-linecap="round"></line>
        <circle id="Oval" stroke="#000000" stroke-width="10" cx="609" cy="663" r="10"></circle>
    </g>
</svg>