<svg enable-background="new 0 0 367.7 1051.3" viewBox="0 0 367.7 1051.3" xmlns="http://www.w3.org/2000/svg"><g fill="#010101"><path d="m365.9 415.8c-7.1-103.7-36.5-210.8-78.5-286.4-31-55.8-54.5-92.2-71.8-111.3-15.3-16.7-24.1-18.1-31.7-18.1v14c4 0 9 0 21.3 13.6 16.4 18 39.9 54.6 70 108.7 41.1 73.9 69.8 178.8 76.8 280.5 1.3 19.3 1.9 38.5 1.7 57.6-21.3-3.3-85.1-11.8-169.8-11.8-72.9 0-146.5 8.9-169.8 12-.2-19.1.4-38.4 1.7-57.8 7-101.8 35.7-206.7 76.8-280.5 30.1-54.1 53.6-90.6 70-108.7 12.2-13.6 17.2-13.6 21.2-13.6v-14c-7.7 0-16.5 1.4-31.7 18.2-17.3 19.1-40.8 55.5-71.8 111.3-42 75.5-71.4 182.6-78.5 286.3-4.4 64.4-.6 127.5 11.3 187.5 13.7 68.6 38 133.1 72.4 191.8 3 5.2 8.5 13.3 14.5 15.7v42.9c1.6 3.6 2.8 7.1 4.9 10.1.4.6.8 1.2 1 1.6 1.3 2.2 2.6 4.7 3.5 7.1.8 2.1 1.5 4.3 1.8 6.4v.2.2c1.1 4.3 2.1 9.9 2.9 16.5.9 7.3 1.6 15.6 2.2 24.4.5 9.7.9 19.8 1.1 29.8.2 11.1.3 22 .1 31.8v3.4h.3l19.5 28.9h-.2l6.6 7.9 17.1 20.4.4.4c3.1 3.7 6.2 7.4 22.4 8.1h.3c16.1-.8 19.3-4.5 22.4-8.1l.4-.4 17.1-20.4 6.6-7.9h-.1l20-28.9c-.1 0-.2 0-.3 0v-3.4c-.2-9.8-.2-20.7.1-31.8.2-9.9.5-20.1 1.1-29.8.5-8.8 1.3-17.1 2.2-24.4.8-6.6 1.8-12.2 2.9-16.5v-.2-.2c.3-2.1 1-4.3 1.8-6.4 1-2.4 2.2-4.9 3.6-7.1.3-.4.6-1 1.1-1.7 1.9-3 3.1-5.8 4.7-9l-.3.1.1-.1v-44.1c6-2.5 11.5-10.6 14.5-15.7 34.4-58.7 58.7-123.2 72.4-191.8 12.3-59.8 16.1-122.9 11.7-187.3zm-163.3 621.6-.4.5c-2.3 2.6-4.5 5.3-18.1 6-13.6-.7-15.8-3.4-18.1-6l-.4-.5-11-13.1c1.7.1 3.6.2 5.5.3 3.5.1 7.3.2 11.4.3 4 0 8.3.1 12.6.1s8.6 0 12.6-.1c4.1 0 8-.1 11.4-.3 2-.1 3.8-.2 5.5-.3zm48.9-166.8c-1 2.5-1.7 5.1-2.2 7.8-1.2 4.6-2.2 10.4-3.1 17.1-.9 7.3-1.6 15.7-2.1 24.5-.6 9.3-.9 19.4-1.1 29.5-.2 9.7-.3 19.3-.1 28.1l-2.6.2c-2.1.2-4 .4-5.9.5-2.6.2-5 .4-7.4.5-2.7.2-5.3.3-7.8.5-2.9.1-5.7.2-8.5.4-3 .1-5.9.2-8.7.3-3.1.1-6.1.1-9 .2-3.1 0-6.1.1-9 .1s-5.9 0-9-.1c-2.9 0-5.9-.1-9-.2-2.9-.1-5.7-.2-8.7-.3-2.7-.1-5.6-.2-8.5-.4-2.5-.1-5.1-.3-7.8-.5-2.4-.1-4.9-.3-7.5-.5-1.8-.1-3.8-.3-5.8-.5l-2.6-.2c.1-6.1.1-12.6 0-19.3 7 .8 14.7 1.5 22.6 2 14.4.9 29.5 1.3 42.5 1.3v-5.7c-13.1 0-28.1-.4-42.3-1.2-8-.5-15.7-1.2-22.8-2 0-1 0-2.1-.1-3.1-.1-4.7-.2-9.5-.4-14.1 7.1.9 15 1.5 23.1 2 14.4.9 29.5 1.3 42.5 1.3v-5.7c-13.1 0-28.1-.4-42.3-1.2-8.2-.5-16.3-1.2-23.5-2.1-.1-3.3-.3-6.5-.5-9.6-.2-2.6-.3-5.2-.5-7.7 7.5.9 15.8 1.6 24.4 2.2 14.4.9 29.5 1.3 42.5 1.3v-6c-13.1 0-28.1-.4-42.3-1.2-8.8-.5-17.4-1.3-25-2.3-.3-3.9-.7-7.5-1.2-11-.3-2.3-.6-4.4-.9-6.5 8.1 1.1 17.4 1.9 26.9 2.5 14.4.9 29.5 1.3 42.5 1.3v-5.7c-13.1 0-28.1-.4-42.3-1.2-10-.6-19.7-1.5-28.2-2.7-.3-1.7-.7-3.3-1.1-4.8-.4-2.6-1.2-5.2-2.1-7.8-.6-1.6-1.4-3.2-2.1-4.7l2.4.3c3.7.5 7.6.9 11.7 1.3 7.9.7 16.6 1.3 25.7 1.7 10 .4 20.2.7 29.7.7 9.5 0 19.7-.3 29.7-.7 9-.4 17.8-.9 25.7-1.7 4.1-.3 8.2-.8 11.9-1.3l2.6-.3c-1 1.5-1.7 3.1-2.4 4.7zm.3-12.9c-3.7.5-7.7.9-11.9 1.3-8.2.8-17.1 1.3-25.9 1.7-10.2.4-20.5.6-30.1.7-9.5-.1-19.9-.3-30.1-.7-8.8-.4-17.7-.9-25.9-1.7-4.2-.4-8.1-.8-11.7-1.3-3.3-.5-6.4-1-9.2-1.5v-50.9c16.4 2.2 81.2 9.4 153.6-2.9v53.8c-2.7.6-5.6 1-8.8 1.5zm18.3-69.7c-1.3 2.3-3 4.6-4.5 6.5l-2.1.4c-83.8 15-158.5 3.1-159.2 3l-.8-.1v-.2c1.3 0 2 .4 2 .4-1.4-.9-5.3-5.6-7.9-10-33.6-57.3-57.4-120.4-70.7-187.4-7.7-38.4-11.9-78.2-12.7-118.7 27.6-2.6 131.8-12.3 169.7-12.3 76.4 0 140.8 7.2 169.7 11.8-.8 40.7-5 80.6-12.7 119.2-13.4 67-37.2 130.1-70.8 187.4z"/><path d="m166.5 724.5c.4 0 .7-.3.8-.6 0-.1 0-.2 0-.4 0-1.3 0-2.6 0-3.9 0-2.8 0-5.6 0-8.3 0-.1 0-.2 0-.3-.1-.4-.4-.7-.9-.7-.8 0-1.6 0-2.4 0-1 0-1.9 0-2.9 0-.4 0-.7-.3-.9-.6 0-.1 0-.3 0-.4 0-1.7 0-3.4 0-5.1 0-.5-.2-.8-.7-1-4.2 0-8.5 0-12.7 0-.1 0-.1 0-.2.1-.2.1-.4.3-.5.5 0 .1-.1.1-.1.2v5.7s0 0 .1.1c.2.5.5.7 1 .7h2.6 2.5c.2 0 .3 0 .5.1.3.2.5.5.5.8v5.1.2c0 .4.3.7.6.8h.4 5.1.3c.4.1.6.4.6.8v1.9 3.5c0 .3.2.6.5.8.1.1.3.1.5.1h5.2c0-.1.1-.1.1-.1z"/><path d="m182.1 707.3c0-1.1 0-2.1 0-3.2 0-.5-.2-.8-.7-.9-5.3 0-10.6 0-15.9 0-.5.1-.7.4-.7.9v1.6 1.6c0 .3.1.5.3.7s.4.2.6.2h4.9c.2 0 .2 0 .2.2v4.3 10.8.3c.1.4.4.7.9.7h1.5 2c.5 0 .9-.4.9-.9 0-.1 0-.2 0-.3 0-5 0-10 0-15 0-.3 0-.2.2-.2h4.9c.5.1.9-.3.9-.8z"/><path d="m216.9 716.3c-.5-.3-1.1-.5-1.7-.6-.5-.1-1.1-.2-1.6-.3-.3-.1-.6-.1-.8-.3-.4-.2-.4-.8 0-1.1.2-.1.3-.2.5-.2.5-.1 1.1-.1 1.6 0 .4.1.8.2 1.1.4.4.2.9.1 1.1-.3.3-.5.6-1 .9-1.6.2-.4 0-1-.4-1.2-1.2-.5-2.4-.8-3.6-.9-.9-.1-1.8 0-2.6.2-.7.2-1.5.4-2.1.8-.8.5-1.4 1.1-1.7 1.9-.4 1-.4 2-.2 3s.9 1.7 1.7 2.2c.5.3 1.1.5 1.6.7.6.2 1.2.3 1.8.5.2.1.5.2.7.3s.3.2.4.4.1.4-.1.5c-.1.1-.2.2-.4.3-.3.1-.6.2-.9.2-.7 0-1.3-.1-1.9-.3-.5-.2-1-.4-1.5-.7-.4-.3-1-.1-1.2.3-.3.5-.6 1.1-.9 1.6-.2.4-.1.9.3 1.2 1.5 1 3.2 1.5 4.9 1.6h1.1.1c.3 0 .5-.1.8-.1.8-.1 1.6-.3 2.3-.7 1.1-.5 1.9-1.3 2.3-2.5.3-.8.3-1.6.2-2.4-.2-1.5-.7-2.3-1.8-2.9z"/><path d="m227.9 710.6c-.4 0-.8 0-1.2 0h-.1s-.1 0-.1-.1 0-.1 0-.2c0-.9 0-1.8 0-2.7 0-.1 0-.1 0-.2 0-.5-.4-.8-.9-.8-.2 0-.4 0-.6 0-1 0-1.9 0-2.9 0-.2 0-.5.1-.6.2-.2.2-.3.4-.3.7v2.8c0 .2 0 .2-.2.2-.3 0-.6 0-.9 0-.5 0-.9.4-.9.9v2.5.2c.1.4.4.6.9.7h.8c.3 0 .2 0 .2.2v5.8.6c.1 1.2.7 2 1.8 2.5.7.4 1.5.5 2.4.6s1.8 0 2.7-.2c.2 0 .3-.1.5-.2.3-.2.4-.4.4-.7 0-.6 0-1.1 0-1.7 0-.4-.2-.6-.5-.8-.2-.1-.3-.1-.5-.1s-.4-.1-.6-.2c-.5-.2-.8-.6-.8-1.1 0-1.6 0-3.2 0-4.8 0-.1 0-.1.1-.2h.2 1.3c.3 0 .6-.1.8-.4 0-.1 0-.1.1-.2 0-1 0-2 0-3-.1-.1-.1-.2-.2-.3-.3.1-.6 0-.9 0z"/><path d="m153.1 718.1c-.1-.4-.4-.7-.9-.7-1.8 0-3.5 0-5.3 0-.4 0-.7.2-.8.6 0 .1 0 .1-.1.1v5.7s.1 0 .1.1c.2.4.4.6.9.6h3.6 1.7c.5 0 .9-.4.9-.9 0-1.8 0-3.5 0-5.3-.1 0-.1-.1-.1-.2z"/><path d="m190.4 720.4c.2 1.7 1.1 2.9 2.6 3.7.6.3 1.2.4 1.9.4.8 0 1.7 0 2.5-.2.6-.1 1.1-.3 1.6-.7.3-.2.5-.5.7-.8v.8c0 .4.3.8.7.9h.3 3.7c.5 0 1-.4.9-.9 0-1.1 0-2.1 0-3.2 0-2.9 0-5.9 0-8.8 0-.1 0-.1 0-.2 0-.3-.2-.6-.5-.7-.1-.1-.3-.1-.5-.1-1.2 0-2.5 0-3.7 0-.1 0-.1 0-.2 0-.4 0-.7.3-.8.7v.3 6.3.3c0 .7-.4 1.2-1 1.5s-1.3.2-1.8-.2-.7-.9-.7-1.5c0-2.2 0-4.3 0-6.5 0-.1 0-.2 0-.3 0-.4-.3-.7-.6-.7-.1 0-.2 0-.4 0-.6 0-1.1 0-1.7 0-.7 0-1.4 0-2.1 0-.5 0-.9.4-.9.9v8.3z"/><path d="m188.7 714.4c.1-.1.1-.3.1-.5 0-.9 0-1.8 0-2.7 0 0 0 0 0-.1 0-.5-.4-.9-.9-.9-.2 0-.4 0-.6 0-.5 0-.9.1-1.4.2-.6.2-1.1.4-1.4 1 0-.6-.4-1-1-1s-1.2 0-1.8 0c-.5 0-1.1 0-1.6 0-.4 0-.7.2-.8.6v.4 7.5 4.5c0 .6.5 1 1 1h1.7 1.8c.3 0 .5-.1.7-.3s.2-.4.2-.7c0-2 0-4 0-6.1 0-.2 0-.4.1-.6.3-1.2 1.2-2 2.5-2h.9c.1.2.4 0 .5-.3z"/><path d="m164.5 752.4h1.5v-6h5.1v-1.3h-5.1v-3.9h6.2v-1.4h-7.7z"/><path d="m173.9 739.8h1.4v12.6h-1.4z"/><path d="m185.3 746.6c0-1.4-.3-2.4-.8-3s-1.4-.9-2.7-.9c-2.4 0-3.8.9-4.1 2.6l1.3.2c.2-1.1 1.1-1.7 2.6-1.7.6 0 1.1.1 1.5.3s.6.5.7.8.2.9.2 1.6c-.6 0-1 0-1.2 0-1.9 0-3.3.3-4.1.9s-1.2 1.4-1.2 2.3c0 .8.3 1.4.8 2 .6.6 1.4.8 2.4.8 1.5 0 2.6-.6 3.3-1.9.1.8.1 1.4.2 1.7h1.4c-.1-.5-.2-1.1-.2-1.8v-3.9zm-2.2 3.9c-.6.6-1.3 1-2.1 1-.6 0-1.1-.2-1.5-.5-.3-.3-.5-.7-.5-1.2 0-.7.3-1.3.9-1.6.6-.4 1.5-.6 2.7-.6.3 0 .8 0 1.3.1v.6c.1.9-.2 1.6-.8 2.2z"/><path d="m199.5 743.3c-.5-.4-1-.5-1.7-.5-1.3 0-2.3.7-2.9 2.2-.1-.6-.4-1.1-.9-1.6-.5-.4-1-.7-1.7-.7-1.2 0-2.2.7-2.9 2v-1.8h-1.2v9.3h1.4v-5.6c0-.8.2-1.5.7-2s1-.8 1.6-.8c.4 0 .8.2 1.2.5s.6.9.6 1.7v6.1h1.4v-5.2c0-1 .3-1.8.8-2.3s1-.8 1.6-.8c.4 0 .8.1 1.1.4.3.2.5.5.6.8s.1.7.1 1.3v5.8h1.4v-5.8c0-.9-.1-1.5-.2-2-.2-.2-.5-.6-1-1z"/><path d="m210.1 744.1c-.7-.8-1.7-1.3-2.9-1.3s-2.3.5-3.1 1.4-1.2 2.1-1.2 3.6c0 1.4.4 2.6 1.2 3.5s1.8 1.3 3.1 1.3c1 0 1.8-.3 2.5-.8s1.2-1.2 1.4-2l-1.3-.3c-.5 1.2-1.3 1.8-2.5 1.8-.7 0-1.3-.2-1.9-.7s-.9-1.4-.9-2.8h6.8c-.1-1.6-.5-2.9-1.2-3.7zm-5.6 2.7c.1-.9.3-1.6.8-2.1s1.1-.8 1.8-.8c.5 0 1 .1 1.4.4s.7.6.8 1c.2.4.2.9.3 1.4h-5.1z"/></g></svg>