<svg height="960" viewBox="0 0 960 960" width="960" xmlns="http://www.w3.org/2000/svg"><g fill="#020303" fill-rule="evenodd"><path d="m778.680066 727.493317c.626339 5.337562.782924 8.557563.234877 9.107692-3.127347 3.139229-34.022405 4.708843-40.825146 2.038971-7.90101-3.060639-12.670323-9.026919-14.157879-17.663072-.626339-3.691541-.780749-20.806666-.626339-56.682939l.234877-51.423967 11.341527-2.512692c6.256869-1.336028 12.748615-2.43192 14.471048-2.35333l3.127347.154996.391462 19.627819.389288 19.625635 11.263234.237953c6.881033.07859 11.732989.550129 12.357153 1.098075.782924.628719 1.017802 3.139228.859042 10.362946l-.232703 9.498459-12.359328.237952-12.354978.233587.232702 22.29769c.315345 28.261788-.469754 26.613584 12.437621 26.849354 13.061785.314359 12.043983-.39295 13.216195 9.264871"/><path d="m695.231613 694.031319c.07735 30.902566-.077349 43.089555-.693999 43.795762-1.160245 1.495497-26.969271 1.574207-28.359417.159607-.696148-.71058-.928197-11.480782-.928197-43.483107 0-23.431639.232049-42.853423.541448-43.168265.309399-.236131 6.95503-.393551 14.836107-.314841l14.372009.238317z"/><path d="m695.25 623v16l-14.825725-.157953-14.902884-.240267-.240298-14.80089c-.079365-8.080089 0-15.201335.160933-15.761958.315254-.798665 3.882246-1.038932 15.143183-1.038932h14.664791z"/><path d="m633.25 658.855757v50.611282l-2.922298 6.120221c-6.94677 14.437612-21.000586 23.147745-41.296396 25.582742-31.267052 3.763772-55.585138-5.415468-64.982159-24.640162-4.738031-9.574164-4.975152-12.633184-4.738031-60.421092l.237121-43.15574 12.633285-2.511364c6.948966-1.335321 14.211897-2.432815 16.187906-2.354267l3.552426.157097.395202 49.042499.393006 49.042498 1.817928 3.296846c3.710506 6.903523 9.869068 9.179241 24.320282 8.7865 8.999624-.314194 10.657276-.549838 14.053816-2.275719 7.737174-3.844502 7.186087.312011 7.421013-54.377237.07904-26.366043.474242-48.257015.790403-48.494842.948485-.940398 27.003263-5.491835 29.68844-5.25619l2.448056.235645z"/><path d="m488.249333 714.531805c8.55016 13.067465 14.227207 22.647337 13.993726 23.279243-.311308 1.030425-3.26441 1.188952-17.102482 1.188952h-16.639845l-9.951046-17.816668-9.951046-17.893731-3.188745.237791-3.108756.235589-.391297 17.420351-.386973 17.422552-13.528926.235589c-9.250604.158527-13.838073-.079263-14.538516-.711169-1.554378-1.268216-1.632205-124.395222-.077827-125.661236.466962-.398519 5.677047-1.902323 11.42976-3.170539 5.752712-1.345277 11.894559-2.373501 13.604591-2.294237l3.110918.156325.386973 38.009039.391297 38.006838 3.186583.23779 3.186583.237791 10.342343-17.182561c5.674885-9.421345 10.960636-17.737405 11.583251-18.527838 1.165244-1.268215 2.254822-1.268215 15.548105-.475581 9.953208.631906 14.46285 1.186751 14.618504 1.820859.231319.552642-5.830539 10.213979-13.295445 21.535446-7.542733 11.32587-13.682419 20.747216-13.682419 20.985006 0 .317054 6.530983 10.45177 14.460689 22.724399"/><path d="m384.231135 694.186647c.079397 31.307257-.079397 43.02916-.714572 43.893155-.712366.866183-3.806638 1.023671-14.908965.866183l-13.960614-.236232-.23819-43.893155-.158794-43.816598 14.831774.157488 14.91117.238419z"/><path d="m384.25 623v16h-14.530404c-12.477219 0-14.611653-.157953-15.004723-1.279199-.632425-1.679644-.632425-29.521691.079053-30.160178.234964-.320356 7.029141-.560623 15.002527-.560623h14.453547z"/><path d="m333.083258 719.791688c1.193457 2.27683 3.582587 14.916182 3.104318 16.171385-1.35288 3.612803-24.604265 5.4967-32.885399 2.669763-5.495661-1.883896-10.114496-5.968219-12.820257-11.384149l-2.23192-4.475073v-54.953895-54.951713l11.150745-2.436186c6.131139-1.412377 12.740546-2.43182 14.728903-2.43182l3.584801.15499.398557 52.600662c.318846 40.58782.635478 52.98923 1.432592 54.325203 1.432592 2.591176 3.502875 3.377043 8.440556 3.377043 3.425378 0 4.539124.312163 5.097104 1.33379"/><path d="m273.25 736.80116v2.19884h-18.259698-18.340676l-18.890022-26.700512-18.890022-26.698328h-4.092728-4.171519l-.157581 26.462504-.236372 26.543296h-15.348826-15.346638l-.236372-62.82088c-.07879-34.55476 0-63.294712.236372-63.844968.236371-.783896 3.856357-.941112 15.504219-.783896l15.191245.23364.236372 25.285568.157581 25.36636h4.250309 4.25031l17.708164-25.36636 17.633751-25.285568 17.786955-.23364 17.867933-.157216v2.668304c0 2.19884-3.149431 6.910952-20.936386 30.78376-11.571259 15.549096-21.096155 28.58492-21.330338 29.135176-.15977.469464 9.91666 14.448584 22.510007 31.0174 16.922448 22.224224 22.82517 30.62436 22.90396 32.19652"/><path d="m553.359942 332.556735c-.568122.949654-11.109942 39.38311-11.109942 40.491407 0 .713894 3.89344.951858 15.001127.951858 10.864207 0 14.998873-.237964 14.998873-.951858 0-1.108297-10.539566-39.541753-11.026527-40.412085-.568122-.793215-7.376569-.872537-7.863531-.079322"/><path d="m680.728164 397.860333c-6.528684.779949-12.211651 3.358776-13.6703 6.172239-.612932 1.251394-.922602 4.062685-.768835 7.577885.307534 6.094027 1.307019 7.890733 5.606084 10.237097 3.073201 1.562069 13.593417 1.562069 17.512336-.158597l2.842551-1.171009v-11.718782-11.799166l-2.842551.078212c-1.612416.078212-5.5292.391061-8.679285.782121"/><path d="m830 437.814647h-14.492696-14.494874l-.233086-34.30689c-.235264-38.612676.078421-37.046738-6.112506-39.396734-3.91671-1.487532-13.943747-1.254493-17.703614.548841l-2.193619.938691v35.326166c0 19.422858-.313685 35.794423-.62737 36.341086-.54895.705652-3.995131.940869-14.725782.784058l-14.024346-.235218-.235264-39.2421-.156843-39.318327 3.134675-2.742025c5.247693-4.856803 13.786904-8.380708 24.519733-10.338675 8.147104-1.487532 25.931317-1.409127 33.294208.078406 10.656586 2.193184 18.333163 7.285205 22.249872 14.646637 1.801512 3.290866 1.801512 3.447677 1.801512 40.102386zm-108.600354-10.428229c-2.291791 4.242507-15.095496 10.21304-27.343283 12.727523-5.926136 1.25615-27.894807 1.334796-33.267221.078646-10.905233-2.435837-18.017914-6.914283-22.285083-14.140965-1.975379-3.379588-2.133585-4.478445-2.449997-13.356691-.316412-11.862419.632824-14.927423 6.163445-20.035036 7.270887-6.754807 11.933572-8.40637 33.425427-11.783773l16.042535-2.59313.235112-2.829067c.31861-3.927924-1.577666-7.226681-5.132908-8.878245-4.583581-2.197715-17.701502-1.80667-30.977628.786459-5.847033 1.179688-10.826129 1.80667-11.142541 1.492087-.870134-.941566-2.687306-14.140965-2.054482-15.633052 1.975379-5.186259 36.350042-9.900642 53.735132-7.464804 10.905232 1.572917 19.597777 7.54345 23.627637 16.343049 1.658967 3.534695 1.73807 4.790845 1.975379 33.704126.158206 19.560977-.079103 30.562661-.551524 31.582873zm-98.407261 9.530399c-.315567 1.022218-3.074594 1.179482-16.157508 1.179482-11.743943 0-15.918641-.235896-16.391993-1.022218-.315568-.469608-3.151295-10.132623-6.228081-21.366096l-5.592562-20.422512h-21.123318-21.121127l-5.594753 20.422512c-3.074595 11.233473-5.912513 20.896488-6.22589 21.366096-.473351.786322-4.650241 1.022218-16.394184 1.022218-13.080723 0-15.839749-.157264-16.155317-1.179482-.631136-1.491826 37.986471-125.368008 39.246551-126.230777 1.341163-.786321 51.148277-.786321 52.48944 0 1.338972.862769 39.877687 124.738951 39.248742 126.230777zm-154.340918 1.179482h-16.949333l-8.831979-15.559753c-11.824199-20.666219-11.271789-19.960447-14.81861-19.6458l-2.838773.235986-.394578 17.288129-.394578 17.288129-13.873814.235985c-11.037234.157324-14.112753 0-14.822994-.86528-.629133-.865281-.786965-17.364606-.708049-63.099923l.236747-61.92218 11.42962-2.514994c6.306678-1.413729 12.852294-2.514995 14.586247-2.436333l3.152243.157324.236747 37.877871.157831 37.954348h3.38899 3.391182l10.958318-17.681439c5.991015-9.743145 11.271789-17.996085 11.745283-18.308548.631325-.471971 29.16811.784434 30.272929 1.335067.789157.393309-1.497206 4.164708-13.402512 21.531499-7.488221 10.923074-13.558151 20.508895-13.558151 21.374176 0 .863095 6.464509 11.235536 14.426223 23.02389 8.119546 12.25814 14.191669 22.00347 13.95273 22.63058-.313471.86528-3.546821 1.101266-17.341719 1.101266zm-101.651467-115.501077v15.501077l-14.826819-.155162-14.903973-.232742-.238075-14.337365c-.079359-7.827042 0-14.72527.158717-15.268335.317434-.775809 3.884159-1.006396 15.142048-1.006396h14.668102zm-1.160252 71.321046-.237084 43.896531-13.735549.23625c-9.39558.1575-14.051661-.07875-14.762915-.708749-.948339-.70875-1.1042-8.259995-1.1042-43.581532 0-23.443421.237085-42.87497.551002-43.111219.237085-.315 7.026929-.55125 15-.55125h14.448998zm-48.057705 41.75341c-3.279217 3.297761-24.60064 4.634337-32.097233 2.120613-5.390077-1.884747-10.467433-6.597706-12.80849-11.703776l-1.87632-4.162605v-54.978704-54.978703l10.934342-2.513724c6.013345-1.334392 12.49577-2.35648 14.448098-2.35648l3.515928.157244.3909 52.622224c.310549 40.606143.623269 53.015335 1.405069 54.351911 1.405068 2.592346 3.435576 3.376383 8.356573 3.376383 5.077356 0 4.842816-.312305 7.029685 10.445823.857808 4.24341 1.170528 7.148061.701448 7.619794zm-61.782043 2.426621h-18.31975-18.317564l-18.789767-26.700512-18.870654-26.61972-4.088059-.078608h-4.166759l-.155215 26.462504-.236102 26.543296h-15.331314-15.331313l-.236102-63.842784-.157401-63.764176 15.488715.157216 15.567415.235824.236102 25.364176.155215 25.364176 4.32416-.235824 4.324161-.235824 17.532744-25.128352 17.532744-25.128352 17.847546-.235824 17.84536-.157216v2.59188c0 2.19884-3.379753 7.146776-20.912497 30.781576-11.479357 15.470488-21.069899 28.58492-21.306 29.135176-.157402.548072 9.905344 14.603616 22.484323 31.253224 16.118319 21.280928 22.880012 30.781576 22.880012 32.19652zm-255 102h958v-322h-958z"/></g></svg>