<svg height="960" viewBox="0 0 960 960" width="960" xmlns="http://www.w3.org/2000/svg"><g fill="none" fill-rule="evenodd"><g stroke="#000" stroke-linejoin="round"><path d="m65.338961 114.929736 92.642937-92.6315859h636.714126l92.642937 92.6315859v743.129361l-80.248886 80.239053h-649.108177l-92.642937-92.631586z" stroke-width="40"/><path d="m79.338961 721.29815h68.550577c9.889943 0 17.907325-8.021035 17.907325-17.915484v-450.169032c0-9.894449 8.017383-17.915484 17.907326-17.915484h292.80338-.337216 292.80338c9.889943 0 17.907326 8.021035 17.907326 17.915484v450.169032c0 9.894449 8.017383 17.915484 17.907325 17.915484h68.550577" stroke-width="20"/><circle cx="731.338961" cy="152" r="48" stroke-width="20"/></g><circle cx="370.338961" cy="147.29815" fill="#000" r="25"/><circle cx="467.338961" cy="147.29815" fill="#000" r="13"/><path d="m199.338961 741.29815h112v112h-112z" stroke="#000" stroke-linejoin="round" stroke-width="20"/><path d="m219.338961 761.29815h72v72h-72z" fill="#000"/><path d="m311.338961 741.29815h112v112h-112z" stroke="#000" stroke-linejoin="round" stroke-width="20"/><path d="m331.338961 761.29815h72v72h-72z" fill="#000"/><path d="m423.338961 741.29815h112v112h-112z" stroke="#000" stroke-linejoin="round" stroke-width="20"/><path d="m443.338961 761.29815h72v72h-72z" fill="#000"/><path d="m535.338961 741.29815h112v112h-112z" stroke="#000" stroke-linejoin="round" stroke-width="20"/><path d="m555.338961 761.29815h72v72h-72z" fill="#000"/><path d="m648.338961 741.29815h112v112h-112z" stroke="#000" stroke-linejoin="round" stroke-width="20"/><path d="m668.338961 761.29815h72v72h-72z" fill="#000"/></g></svg>