<svg height="960" viewBox="0 0 960 960" width="960" xmlns="http://www.w3.org/2000/svg"><g fill="none" fill-rule="evenodd"><path d="m615 69v608h-270v-608zm-197 540h-39c-8.284271 0-15 6.715729-15 15s6.715729 15 15 15h39c8.284271 0 15-6.715729 15-15s-6.715729-15-15-15zm82.5 0h-39c-8.284271 0-15 6.715729-15 15s6.715729 15 15 15h39c8.284271 0 15-6.715729 15-15s-6.715729-15-15-15zm81.5 0h-38c-8.284271 0-15 6.715729-15 15s6.715729 15 15 15h38c8.284271 0 15-6.715729 15-15s-6.715729-15-15-15zm-164-77h-39c-8.284271 0-15 6.715729-15 15s6.715729 15 15 15h39c8.284271 0 15-6.715729 15-15s-6.715729-15-15-15zm82.5 0h-39c-8.284271 0-15 6.715729-15 15s6.715729 15 15 15h39c8.284271 0 15-6.715729 15-15s-6.715729-15-15-15zm81.5 0h-38c-8.284271 0-15 6.715729-15 15s6.715729 15 15 15h38c8.284271 0 15-6.715729 15-15s-6.715729-15-15-15zm-163-77h-39c-8.284271 0-15 6.715729-15 15s6.715729 15 15 15h39c8.284271 0 15-6.715729 15-15s-6.715729-15-15-15zm81.5 0h-39c-8.284271 0-15 6.715729-15 15s6.715729 15 15 15h39c8.284271 0 15-6.715729 15-15s-6.715729-15-15-15zm81.5 0h-39c-8.284271 0-15 6.715729-15 15s6.715729 15 15 15h39c8.284271 0 15-6.715729 15-15s-6.715729-15-15-15zm14.052632-368.0485651h-233.052632v291.9470201h233.052632z" fill="#000"/><path d="m619.377967 20 36.622033 5.7083978v904.0389782l-35.615937 9.252624h-279.700063l-36.684-9.058769v-904.3638406l37.643266-5.5773904z" stroke="#000" stroke-linejoin="round" stroke-width="40"/></g></svg>