<svg enable-background="new 0 8.711 44.651 85.779" height="85.779" transform="rotate(180deg)" viewBox="0 8.711 44.651 85.779" width="44.651" xmlns="http://www.w3.org/2000/svg"><path d="m23.067 85.986c.424 0 .809.172 1.087.45s.45.662.45 1.087c0 .424-.172.809-.45 1.087s-.663.45-1.087.45c-.425 0-.809-.172-1.087-.45s-.45-.663-.45-1.087.172-.809.45-1.087.663-.45 1.087-.45"/><path d="m24.285 86.305c-.312-.312-.742-.504-1.218-.504s-.906.193-1.218.504c-.312.312-.505.742-.505 1.218s.193.906.505 1.218.742.505 1.218.505c.475 0 .906-.193 1.218-.505s.504-.742.504-1.218c0-.475-.192-.906-.504-1.218m-1.218-.774c.55 0 1.048.223 1.409.583.36.361.583.859.583 1.409s-.223 1.048-.583 1.409c-.361.361-.859.584-1.409.584s-1.048-.223-1.408-.584c-.361-.36-.584-.858-.584-1.409 0-.55.223-1.048.584-1.409.36-.36.858-.583 1.408-.583z"/><path d="m24.285 86.305c-.312-.312-.742-.504-1.218-.504s-.906.193-1.218.504c-.312.312-.505.742-.505 1.218s.193.906.505 1.218.742.505 1.218.505c.475 0 .906-.193 1.218-.505s.504-.742.504-1.218c0-.475-.192-.906-.504-1.218m-1.218-.774c.55 0 1.048.223 1.409.583.36.361.583.859.583 1.409s-.223 1.048-.583 1.409c-.361.361-.859.584-1.409.584s-1.048-.223-1.408-.584c-.361-.36-.584-.858-.584-1.409 0-.55.223-1.048.584-1.409.36-.36.858-.583 1.408-.583z"/><path d="m32.854 74.851c-.465-.997-1.31-1.819-2.42-2.223l-12.647-4.603c-1.11-.404-2.284-.317-3.281.147-.994.464-1.814 1.304-2.219 2.409l-.001.002-.003.01c-.404 1.111-.318 2.285.147 3.282s1.31 1.819 2.42 2.223l12.646 4.602c1.111.405 2.285.318 3.282-.147s1.819-1.309 2.223-2.42l.013-.037v-.001c.389-1.098.3-2.258-.16-3.244zm-9.858.93c0 .196-.159.354-.354.354s-.354-.159-.354-.354v-2.836c0-.196.159-.354.354-.354s.354.159.354.354z"/><path d="m30.775 71.695-12.611-4.59-.036-.013c-1.367-.497-2.813-.391-4.041.182-1.226.572-2.235 1.607-2.733 2.97l-.003.009c-.497 1.367-.391 2.813.182 4.042h-.001c.573 1.228 1.612 2.239 2.979 2.736l12.611 4.59.037.013c1.367.497 2.813.391 4.041-.182 1.225-.571 2.233-1.606 2.732-2.967l.004-.012c.498-1.367.391-2.813-.182-4.042h.001c-.574-1.227-1.613-2.238-2.98-2.736m-12.503-5.001 12.647 4.603c1.477.537 2.6 1.63 3.219 2.956h.001c.613 1.314.73 2.861.208 4.328v.001l-.013.037c-.538 1.478-1.63 2.601-2.956 3.22-1.315.613-2.861.73-4.328.208h-.001l-.036-.013-12.647-4.603c-1.477-.537-2.6-1.63-3.219-2.956h-.001c-.613-1.314-.73-2.861-.208-4.328v-.001l.013-.037c.538-1.478 1.63-2.601 2.956-3.22 1.315-.613 2.861-.73 4.328-.208h.001z"/><path d="m32.854 56.669c-.465-.997-1.31-1.819-2.42-2.223l-12.647-4.603c-1.11-.404-2.284-.317-3.281.147-.994.464-1.814 1.304-2.219 2.409l-.001.002-.003.01c-.404 1.111-.318 2.285.147 3.282s1.31 1.819 2.42 2.223l12.646 4.603c1.111.405 2.285.318 3.282-.147s1.819-1.309 2.223-2.42l.013-.037v-.001c.389-1.099.3-2.259-.16-3.245zm-8.808.913-.002.002c-.359.359-.855.581-1.402.581-.548 0-1.045-.222-1.403-.581l.001-.001c-.359-.359-.582-.855-.582-1.403s.222-1.045.581-1.403.855-.581 1.403-.581c.547 0 1.043.223 1.403.582l.001-.001c.359.359.581.855.581 1.403 0 .547-.222 1.043-.581 1.402z"/><path d="m23.544 55.277c-.229-.23-.548-.372-.901-.372-.352 0-.671.143-.902.374s-.374.55-.374.902c0 .353.143.673.372.902h.001c.231.231.55.374.902.374.353 0 .673-.143.902-.373l.001-.001c.23-.23.373-.549.373-.902 0-.352-.143-.672-.374-.902z"/><path d="m30.775 53.513-12.611-4.59-.036-.013c-1.367-.497-2.813-.391-4.041.182-1.226.572-2.235 1.607-2.733 2.97l-.003.009c-.497 1.367-.391 2.813.182 4.042h-.001c.573 1.228 1.612 2.239 2.979 2.736l12.611 4.59.037.013c1.367.497 2.813.391 4.041-.182 1.225-.571 2.233-1.606 2.732-2.967l.004-.012c.498-1.367.391-2.813-.182-4.042h.001c-.574-1.227-1.613-2.238-2.98-2.736m-12.503-5.001 12.647 4.603c1.477.537 2.6 1.63 3.219 2.956h.001c.613 1.314.73 2.861.208 4.328v.001l-.013.037c-.538 1.478-1.63 2.601-2.956 3.22-1.315.613-2.861.73-4.328.208h-.001l-.036-.013-12.647-4.603c-1.477-.538-2.6-1.63-3.219-2.956h-.001c-.613-1.315-.73-2.861-.208-4.328v-.001l.013-.037c.538-1.478 1.63-2.601 2.956-3.22 1.315-.613 2.861-.73 4.328-.208h.001z"/><path d="m42.829 9.561c.268 0 .511.109.686.284l.002.002c.175.176.284.418.284.686v82.135c0 .268-.109.511-.284.686l-.002.002c-.176.175-.418.284-.686.284h-41.007c-.267 0-.51-.11-.686-.286l-.001.001c-.176-.177-.285-.42-.285-.687v-82.135c0-.266.11-.51.286-.686s.419-.286.686-.286h13.979 27.028v-.425-.425h-27.453-1.441-12.112c-.502 0-.958.205-1.288.535-.33.329-.535.785-.535 1.287v82.135c0 .5.205.956.534 1.285v.002c.33.33.786.535 1.288.535h41.007c.499 0 .954-.205 1.285-.535l.001-.001.001-.001c.33-.33.535-.785.535-1.285v-82.135c0-.499-.205-.955-.535-1.285l-.001-.001-.001-.001c-.33-.33-.785-.535-1.285-.535"/><path d="m37.17 22.666-.956-.259v.704l.956-.259z"/><path d="m35.466 25.27h-.214s-.19.003-.19.289c0 0-.011.22.064.327h.553l-.038-.38c-.001 0-.05-.236-.175-.236z"/><path d="m33.219 47.271c-.43-5.394-.671-11.025-.709-16.744v-.688h7.327v.69c0 5.124-.222 10.608-.672 16.742zm1.495-18.216v-.618c0-.019.014-.035.034-.035h1.515s.19-.003.19-.289c0 0 .011-.22-.065-.327h-1.541-.099c-.019 0-.034-.014-.034-.034v-.623c0-.018.014-.034.034-.034l.273.002h1.432c.088 0 .115.034.115.034.305.307.303.918.303.918v.155c0 .921-.6.885-.6.885h-1.281l-.243.002c-.019-.001-.033-.017-.033-.036zm.348-2.48c-.088 0-.115-.034-.115-.034-.307-.307-.303-.918-.303-.918v-.155c0-.921.6-.883.6-.883h.214c.415 0 .529.589.529.589l.115.712.102-.003c.171 0 .198-.211.198-.211.038-.383-.091-.81-.091-.81-.019-.099.057-.093.057-.093l.273-.037c.065-.008.073.042.073.042.182.407.149 1.043.149 1.043 0 .762-.624.757-.624.757h-1.177zm-.346-2.341v-.691s.005-.032.038-.037l.96-.26v-.973l-.96-.259c-.034-.005-.038-.038-.038-.038v-.69s-.005-.073.077-.04l2.839.883c.038.038.038.038.038.077v1.107c0 .038 0 .038-.038.077l-2.839.883c-.082.034-.077-.039-.077-.039zm0-3.175v-.768l.806-.46v-.153l-.771-.002c-.019 0-.035-.016-.035-.035v-.621s.016-.034.035-.034h.538 2.304c.018 0 .034.016.034.035l.002.005.117.537v.038c0 .077-.04.077-.077.077h-1.621-.065v.153l.805.498s.038.011.038.05l-.038.653c-.006.035-.038.027-.038.027l-.958-.653-1.036.691c-.04 0-.04-.038-.04-.038zm.035-2.727c-.019 0-.035-.014-.035-.034v-.621c0-.019.016-.035.035-.035h1.964c.019 0 .034.016.034.035v.621c0 .019-.014.034-.034.034zm2.962-.692c.018 0 .034.016.034.034v.623c0 .019-.016.034-.034.034h-.661c-.019 0-.034-.014-.034-.034v-.623c0-.018.014-.034.034-.034zm-2.957-.453c-.089-.203-.077-.485-.077-.485 0-.624.557-.594.557-.594h2.359c.018 0 .034.016.034.034l.003.005.115.537v.038c0 .078-.038.078-.077.078h-2.301s-.192.011-.192.153v.118c0 .038 0 .073-.04.073l-.345.077c0-.001-.032-.003-.036-.034zm-.04-1.425v-.854l1.228-.872v-.192l-1.194-.002c-.019 0-.035-.014-.035-.034v-.66c0-.019.016-.034.035-.034h2.886c.019 0 .034.014.034.034v.66c0 .019-.014.034-.034.034l-1.155.002v.192l1.19.83v.819h-.115l-1.343-.998-1.42 1.075zm5.004 31.858c.458-5.888.691-11.87.691-17.782 0-5.912-.233-11.895-.691-17.782l-.02-.264h-7.014l-.021.265c-.484 6.214-.73 12.196-.73 17.782 0 5.586.246 11.568.73 17.782l.021.265h7.014z"/><path d="m36.787 38.331.038-.653c0-.038-.038-.048-.038-.048l-.805-.5v-.153h1.686c.037 0 .077 0 .077-.077v-.038l-.117-.537-.002-.005c0-.019-.016-.034-.034-.034h-2.304l-.538-.002c-.019 0-.035.034-.035.034v.623c0 .018.016.034.035.034l.771.002v.153l-.806.46v.768s0 .038.038.038l1.036-.69.958.652c.001 0 .033.008.04-.027z"/><path d="m34.749 31.144c-.019 0-.035-.016-.035-.035v-.66c0-.019.016-.034.035-.034h2.886c.019 0 .034.014.034.034v.66c0 .019-.014.035-.034.035h-1.155v.192l1.19.83v.819h-.115l-1.343-.996-1.42 1.073h-.077v-.854l1.228-.872v-.192z"/><path d="m37.052 35.629c-.019 0-.034-.014-.034-.034v-.623c0-.018.014-.034.034-.034h.661c.018 0 .034.016.034.034v.623c0 .019-.016.034-.034.034z"/><path d="m34.751 35.632c-.019 0-.035-.016-.035-.035v-.621c0-.019.016-.035.035-.035h1.964c.019 0 .034.016.034.035v.621c0 .019-.014.035-.034.035z"/><path d="m37.67 34.098h-2.301s-.192.011-.192.153v.118c0 .038 0 .073-.04.073l-.345.077s-.038 0-.038-.038l.008.021c-.097-.203-.083-.5-.083-.5 0-.624.557-.596.557-.596h2.359c.018 0 .034.016.034.035l.003.003.115.538v.038c0 .078-.039.078-.077.078z"/><path d="m38.178 45.861c.022 0 .043-.003.059-.011.018-.008.032-.021.045-.038.01-.016.016-.034.019-.053.003-.021.005-.045.005-.075v-.109h-.289v.093c0 .029.003.057.008.083.006.027.018.048.032.064.014.018.03.029.05.035.016.007.042.011.071.011zm-.613.308v-.214l.332-.265v-.115h-.332v-.158h.862v.265c0 .059-.003.105-.006.141-.005.034-.018.069-.038.104-.021.038-.046.065-.077.081-.03.018-.069.027-.117.027-.064 0-.115-.019-.155-.053-.042-.035-.072-.081-.096-.137zm.415.238c.195 0 .361-.069.5-.208.137-.137.206-.303.206-.498s-.069-.361-.206-.498c-.139-.139-.305-.208-.5-.208-.196 0-.362.069-.501.208-.137.137-.208.303-.208.498s.07.361.208.498c.138.139.304.208.501.208zm0 .108c-.225 0-.417-.08-.575-.238-.16-.16-.24-.351-.24-.576s.08-.417.24-.576c.158-.158.35-.238.575-.238.224 0 .415.08.573.238.16.16.238.351.238.576s-.078.417-.238.576c-.158.159-.35.238-.573.238z"/><path d="m37.052 42.839c-.019 0-.034-.016-.034-.034v-.623c0-.019.014-.034.034-.034h.661c.018 0 .034.014.034.034v.623c0 .018-.016.034-.034.034z"/><path d="m34.751 42.841c-.019 0-.035-.014-.035-.034v-.621c0-.019.016-.035.035-.035h1.964c.019 0 .034.016.034.035v.621c0 .019-.014.034-.034.034z"/><path d="m35.137 44.759c.04 0 .04-.035.04-.073v-.348c0-.141.192-.153.192-.153h.958v.498c0 .038 0 .077.038.077h.383c.038 0 .077-.038.077-.077v-.498h.845c.038 0 .077 0 .077-.077v-.038l-.115-.537-.003-.005c0-.019-.016-.034-.034-.034h-2.359s-.557-.03-.557.594c0 0-.014.498.083.703l-.008-.022c0 .038.038.038.038.038z"/><path d="m37.67 41.418c.038 0 .077 0 .077-.077v-.038l-.115-.616-.003-.003c0-.019-.016-.035-.034-.035h-2.121s-.299.024-.299-.462v-.208s-.011-.444.425-.444l2.07.003c.038 0 .077 0 .077-.077v-.04l-.115-.604-.003-.005c0-.019-.016-.035-.034-.035h-1.915s-1.043-.056-1.043 1.306.957 1.337.957 1.337z"/></svg>