<svg height="960" viewBox="0 0 960 960" width="960" xmlns="http://www.w3.org/2000/svg"><g fill="none" fill-rule="nonzero" stroke="#000"><path d="m221.715458 21c-26.861883 0-48.715458 21.8457849-48.715458 48.6971506v820.6047584c0 26.852306 21.853575 48.698091 48.715458 48.698091h516.569084c26.860942 0 48.715458-21.845785 48.715458-48.698091v-820.6047584c0-26.8523066-21.854516-48.6971506-48.715458-48.6971506z" stroke-width="40"/><g fill="#000"><path d="m485.050811 343.018859c-15.133213 0-29.251652-9.769129-39.753994-27.506547-10.238078-17.29057-15.876036-40.221982-15.876036-64.56985 0-24.347867 5.637958-47.279279 15.876036-64.568888 10.502342-17.737418 24.620781-27.506547 39.753994-27.506547 15.132252 0 29.250691 9.769129 39.753033 27.506547 10.238078 17.29057 15.876036 40.221021 15.876036 64.568888 0 24.347868-5.637958 47.27928-15.876036 64.56985-10.502342 17.737418-24.620781 27.506547-39.753033 27.506547zm0-178.705105c-27.670871 0-50.182343 38.861261-50.182343 86.627747 0 47.766487 22.511472 86.628709 50.182343 86.628709 27.66991 0 50.181381-38.861261 50.181381-86.628709 0-47.767447-22.511471-86.627747-50.181381-86.627747z" stroke-width="20"/><path d="m524.03988 295.529129 4.9797-2.876156c.529489-1.656697 1.027267-3.347027 1.495255-5.068108l-8.508349 4.888408c-.567927-.288288-2.478318-1.631711-3.872672-2.451411-.626547-.368048-1.120481-.658258-1.187748-.696697-.622703-.347868-1.055135-.603483-1.486607-.857177-.509309-.29982-1.017657-.59964-1.514474-.877357l.000961-.001922c-.295976-.166247-.597718-.34979-.91003-.54006-.442042-.269069-.903303-.54967-1.35015-.78991l-.003844-12.212853c1.00997-.561201 2.668589-1.535616 4.415616-2.562883 2.976096-1.74991 6.007927-3.675676 6.118438-3.66991.11051.006727 2.692613 1.632673 5.475556 3.260541 1.982462 1.159879 3.957237 2.314955 5.09021 2.944384l.01057 3.621862c.460301-2.446607.861021-4.939339 1.194475-7.475315-.906186-.542943-2.58979-1.563484-4.382943-2.622463-2.117958-1.251171-4.306066-2.543664-5.56973-3.236516l-.009609-12.083124.125885-.079759c.190271-.119159.411292-.257538.643844-.397838l-.000961-.000961 9.944985-5.720601c.117238.063424.27003.14991.420901.234475-.207567-6.681562-.856216-13.164204-1.895015-19.363364-1.033994-.629429-2.515796-1.538498-4.084084-2.454294-1.987267-1.160841-3.964925-2.316877-5.113273-2.951111l.017297-12.20997c.54967-.295976 1.156997-.66979 1.688408-.994595.227748-.139339.436277-.268108.668829-.405525.292132-.172012.955196-.56024 1.783544-1.042643-.402643-1.17045-.820661-2.322642-1.254054-3.457537-.14991.088408-.316156.185465-.503544.295976-1.561561.918678-4.085045 2.574414-4.227267 2.573453-.084565 0-3.735255-2.275555-7.003483-4.152312v-.005766c-1.522163-.873513-2.868469-1.653814-3.569009-2.072793l.01057-12.25994c.516997-.322883 1.181982-.688048 1.734535-.99075l.551591-.303664c.327688-.183544 1.287688-.743784 2.44949-1.4203.269069-.156637.552552-.32961.831231-.496817-.698619-1.010931-1.411652-1.992072-2.141021-2.937658-2.670511 1.591351-4.997958 3.202883-5.169009 3.185586-.060541-.006727-2.325526-1.403003-4.869189-2.904985-2.183304-1.28961-4.478078-2.644565-5.800361-3.356637l.000961-10.672432c-1.273273-.650571-2.566726-1.217538-3.879399-1.694175.086486.050931.17009.100901.242162.144145l-.016336 12.202282-5.313153 3.105826.001922.002883-.937898.549669c-1.547148.909069-4.155196 2.617658-4.308949 2.618619h-.004805c-.05958.000961-3.933213-2.406246-7.261982-4.316637-1.398198-.802402-2.623424-1.511591-3.306667-1.921922-.073994-3.383543-.032672-8.189309-.000961-11.79003l.003844-.417057c.119159-.071111.271952-.161441.414174-.245045-1.364564.486246-2.707988 1.072433-4.029309 1.746066.003844.684204.007688 1.37994.012492 2.089129.01922 2.904985.0394 5.964685-.01057 8.585226-1.183904.644804-3.231712 1.85081-5.271832 3.053934-2.733934 1.61057-5.153634 3.223063-5.303544 3.218258-.181621-.005766-2.602282-1.599039-5.291051-3.183664-.732252.948469-1.448168 1.934415-2.148708 2.949189 2.109309 1.253093 4.283964 2.544625 5.584144 3.230751l.001922 12.222463c-1.167568.619819-3.102943 1.768168-5.068108 2.933813-1.837358 1.08973-3.701622 2.195796-4.873033 2.842523l-5.157478-2.948228c-.507387 1.306907-.993633 2.64072-1.46066 3.996636l4.005285 2.300541c.043243 2.387988.022102 5.267027.001922 7.938498-.010571 1.474114-.021141 2.910751-.024985 3.616096l-8.826427 5.070991c-1.099339 6.234715-1.800841 12.764445-2.054534 19.502703.015375-.01057.035555-.02979.04997-.038438l8.536216 4.891291.001922-.002883c.132613.077838.365165.218138.6006.36036l-.00096.001922c.541021.325766 1.115675.671712 1.696096.976337l-.018259 12.192672c-1.137777.611172-3.023183 1.730691-4.947988 2.873274-1.961321 1.163723-3.872672 2.357237-4.867267 2.961681.347868 2.746427.771652 5.444805 1.267508 8.087448l.002883-3.525766c.799519-.503543 2.316876-1.360721 3.553633-2.058378.781261-.441081 1.466427-.828349 1.755676-1.000361l.211411-.126847c1.104144-.661141 4.825946-3.065465 4.947027-3.05009.123003.015376 2.432192 1.477958 4.090811 2.447568.651532.38054 1.168529.683243 1.430871.83027l.001922-.002883 4.491531 2.591712-.000961.002883.200841.117237c.147027.085526.29021.17009.47952.274835.003844.798559.013453 2.211171.022102 3.631471.019219 2.897298.039399 5.947388-.011532 8.560241-1.183904.644805-3.232672 1.851771-5.272792 3.053934-2.732973 1.61057-5.152673 3.223063-5.302583 3.218258-.194114-.006727-2.874234-1.778739-5.736937-3.445045-.908108-.528529-1.791231-1.042643-2.574414-1.495255.467988 1.723964.967687 3.418138 1.498138 5.078678 1.903663 1.13009 3.785225 2.24 4.956636 2.857898l.001922 9.84985c1.038799 2.215015 2.139099 4.3397 3.298018 6.367327l9.124325 5.228589v7.412853c1.178138 1.275195 2.387988 2.471591 3.628588 3.578618l.02018-10.983783c.698619-.423784 1.923844-1.135856 3.30955-1.931532l.002883.003844c3.323003-1.907508 7.168769-4.301261 7.228348-4.3003.104745.000961 3.223063 1.969009 6.331772 3.753513 1.771051 1.016697 3.412372 1.970931 4.247447 2.48024l-.000961 12.21958c-1.256936.762042-4.053333 2.397598-6.538378 3.826547-1.551952.891771-2.790631 1.688408-3.47003 2.107387 1.462583.612132 2.95015 1.115676 4.458859 1.501021l7.606006-4.352192c.643844.337297 2.871351 1.842162 5.361201 3.298018.61021.356516 1.213694.709189 1.793153 1.047447 1.531772-.392072 3.040481-.906186 4.524204-1.532733-.176816-.129729-.392072-.278678-.707267-.459339-1.621141-.925405-3.781381-2.179459-4.110991-2.376456l-.021141-.016337-5.257417-3.01069.011531-12.226307c1.192553-.646726 3.207688-1.838318 5.21994-3.027988 2.729129-1.613453 5.164204-3.239399 5.309309-3.232672.105706.004804 2.522523 1.546186 5.194955 3.123123 2.093934 1.235796 4.211892 2.486006 5.411172 3.134654.032672 1.33958.045165 3.010691.047087 4.750031.001922 2.107387-.014415 4.32048-.033634 6.186666 1.248288-1.114715 2.465826-2.31976 3.650691-3.605525l.01057-7.31964c.548709-.295976 1.155075-.667868 1.684565-.993634.228709-.139339.436276-.267147.671712-.406486.769729-.454535 4.076396-2.383183 6.386546-3.691051.133574-.075916.233514-.145105.345946-.217177 1.144505-2.005526 2.233273-4.106187 3.260541-6.295256zm-3.621862-30.72961-2.928048 1.723004c-3.337417 1.962282-7.565646 4.522282-7.645405 4.559759-.132613-.039399-3.80925-2.32072-7.053454-4.203243-1.530811-.887928-2.87039-1.671111-3.514234-2.061261v-12.275316c.486246-.305585 1.244444-.727447 1.79988-1.035915l.449729-.250811.010571-.004805c.534294-.302703 1.058979-.608288 1.72012-.994595 2.479279-1.446246 6.348108-3.924564 6.503784-3.906406.052853.006827 3.397958 2.012352 4.882643 2.881061v.004805l.627507.367087h.005766c.202763.117237.445886.262342 1.057057.618859l.001922-.003844c.585225.343063 1.168528.684204 1.951712 1.126246l-.000961.002883c.062462.035556.232552.126847.435315.235435l-.000961.001922c.56024.300781 1.436637.616937 1.697057.780301zm-45.921441-12.497297c0-.047087.002882-.066306.006726-.065345l.014415.02979c.022102.066306.058618.22006.098018.20084.131651-.063423.266186-.129729.461261-.243123l.000961.001922 10.187147-5.849369c.556397.275796 3.167327 2.009369 5.822463 3.578619 1.788348 1.057057 3.491171 2.063183 4.546306 2.633033l-.018258 12.199399c-.45934.247928-.913874.524685-1.353033.793754-.357478.218138-.707268.432432-.972493.58042-.734174.41033-1.32997.754354-1.917117 1.093574-.420901.243123-.824505.476636-1.10991.64h-.004805c-.084564.048048-.39976.235435-.827387.489129-1.356877.805285-3.546907 2.483123-4.076397 2.677237l-10.226546-5.879159-.000961.000961c-.192192-.113394-.295015-.169129-.401682-.224865-.13069-.069189-.176817.29021-.228708.248889zm-1.086847-3.665105-.005766.004805-.02018.011531-.30943.181622h-.004804c-.337298.19988-.43916.295976-.457418.289249-.265225-.097057-.768769-.41033-1.623063-.941741-.893694-.556397-2.135255-1.329009-3.892853-2.335136l-.002883.003844-4.509789-2.597477-.000961.000961c-.202763-.12012-.336337-.184505-.464145-.246006-.003843-.001922-.006726.006726-.01057.021141-.02018.087447-.036517.403603-.036517.197958v-.123003-12.470391c.608289-.357477 3.074114-1.723964 4.38006-2.447567l.000961.001922c.412253-.227748.721682-.39976.861021-.482403.414175-.245045 2.664745-1.554834 4.232072-2.449489.78991-.450691 1.015736-.761081 1.1791-.7803.229669.023063 2.73009 1.727807 5.511111 3.361441 1.936336 1.136817 3.840961 2.255375 4.969129 2.873273l.02018 12.620301c-.17009.175855-.767808.084564-1.72012.65057v.005766c-2.220781 1.321321-5.750391 3.312432-6.592192 3.785225-.417057.235436-.977298.56024-1.502943.863904zm17.482762-3.346066c-.818738-.476637-1.465465-.853333-1.846006-1.07051-.064384-.036517-.242162-.133574-.45069-.246967-.525646-.286367-1.344385-.733214-1.704745-.937898v-12.316637l.238318-.133574-.000961-.001921c.15952-.088409.302703-.16913.477598-.272913l.000961.002882 10.075676-5.765765c.643843.336336 2.869429 1.842162 5.359279 3.297057 1.954595 1.142582 3.877477 2.267868 4.986426 2.882883v12.221501c-1.182943.633273-3.122162 1.783544-5.079639 2.944385-2.757958 1.636516-5.418859 3.3009-5.487087 3.298021-.135496-.005769-4.026427-2.419703-6.56913-3.900544zm33.377058-19.500781c2.411051 1.366487 5.646606 3.253814 6.415375 3.713153.273874.163364.568889.32.881201.485286.52949.279639 1.074354.407447 1.247327.51988l-.032672 12.365645-10.662823 6.123243c-1.203123-.64-4.141742-2.359159-6.222222-3.576696-1.001322-.585225-1.813334-1.060901-2.118919-1.233874h-.005766l-.674595-.391111c-.306546-.176817-.62078-.358439-.833153-.477598-.054774-.030751-.159519-.085525-.274835-.144144-.13069-.067267-.319039.770691-.319039.303664v-13.220901c0-.042282.000961-.072072.002883-.092252.00961-.087448.037478.024985.073994.153753.037478.130691.082643.27964.124925.258499.151832-.073033.296937-.143183.467988-.245045.984024-.57946 4.72985-2.755075 7.521442-4.3397 1.483723-.841802 2.195795-1.47988 2.371651-1.47988v.005766c.15952-.001922.763003.54967 2.037238 1.272312zm-9.262703-19.651651c2.09009 1.233873 4.205165 2.482162 5.402522 3.129849.032673 1.340541.046126 3.011652.047195 4.752913.001814 2.602283-.02221 5.375616-.048156 7.444565-1.111831.598679-2.949189 1.693213-4.84036 2.82042-2.793513 1.663424-5.518799 3.423904-5.654294 3.438319-.161442-.020181-.430511-.348829-1.260781-.822583-1.621141-.925405-3.78042-2.178498-4.11003-2.375495l-.021141-.016337-5.257418-3.01069.011532-12.226307c1.191592-.646726 3.203844-1.837357 5.215135-3.026066 2.73009-1.614414 5.169009-3.241321 5.313153-3.234615.102823.003864 2.528288 1.548129 5.202643 3.126027zm-28.106186-18.347628c1.177177-.635195 3.148108-1.800841 5.13057-2.974174 2.447568-1.447207 4.602042-2.944385 5.171892-3.22979l8.556397 4.901862.001921-.001922.420901.256577c.534295.325765 1.236757.754354 1.847928 1.083003l-.002883 12.159039c-1.154114.62078-3.072192 1.765285-5.021021 2.927087-2.762762 1.647087-5.435195 3.343183-5.514955 3.339346-.097057-.004812-2.436036-1.488536-5.064264-3.037605-2.112192-1.245405-4.282042-2.524444-5.540901-3.204804zm-1.847928 15.221621c.106666.000962 3.211531 1.964205 6.316396 3.747748 1.774895 1.01958 3.421021 1.976697 4.258018 2.486006l-.000961 12.218619c-1.257898.762042-4.053333 2.397598-6.537417 3.825586-2.266907 1.303063-3.897658 2.422582-4.030271 2.422582-.1403 0-1.247327-.823543-3.079879-1.874835-2.678199-1.535615-6.031952-3.502702-7.492613-4.374294l.022102-12.221502c.696697-.4209 1.926727-1.133933 3.322042-1.935375 3.318198-1.904625 7.138979-4.295495 7.202403-4.294535zm-22.956397-15.201441c1.147388-.61982 3.068349-1.763363 5.021982-2.927087 2.765646-1.647087 5.408289-3.348949 5.505346-3.343198.081681.00482 2.351471 1.439534 4.913393 2.959775 2.148709 1.275195 4.382943 2.601321 5.678318 3.297057v12.203243c-.44012.24024-.883123.509309-1.326126.777417-.344024.208529-.689009.418979-.996516.591952l-.010571.005766-6.004084 3.45946-.001922-.002883c-.117237.066306-.354594.211411-.641922.387267-.655375.402643-1.283844 1.063784-1.476036 1.043604h-.005766c-.148949-.014415-2.376456-1.460661-4.007207-2.412012-.621742-.362283-1.112793-.648649-1.385705-.802403v-.000961l-5.265106-3.010691zm-12.433874 26.930931c.016337-1.824865.031712-3.648769.012493-5.461141v-.010571l-.000961-.024024c.034595-.016336.074955-.035555.123003-.062462.21045-.114354.468949-.255616.697658-.386306l.004804-.005766 6.091532-3.513273.021141-.010571c.78991-.471832 1.321321-.796637 1.766246-1.068589 1.143544-.698618 1.722042-1.052252 1.969009-1.111831.092253-.022103.028829.098018.270991.249849.208529.130691.453574.285406.763003.461262l-.000961.001922 9.472193 5.427507v12.212853c-.448769.243123-.906187.520841-1.354955.793754l.000961.002883c-.344024.209489-.683244.415135-.968649.575615-.456456.257538-1.236757.713994-2.194835 1.275195-1.763363 1.032072-4.106186 2.403364-5.483243 3.16925l-11.193273-6.446126c-.030751-2.012253-.013454-4.041802.003843-6.06943zm-10.318798 28.733694-.520841-.318078c-.527568-.322883-1.167568-.715916-1.744144-1.024385v-12.175375l7.409009-4.279159c.203723-.119159.528528-.300781.849489-.482403.365165-.205645.735135-.413213 1.230991-.71015.243123-.145105.336337-.198919.420901-.247928l.123964-.072072c1.243484.805286 3.585345 2.10931 5.913754 3.404685 2.027627 1.129129 4.045645 2.252492 5.229549 2.981862-.008648 1.432793.018259 2.919399.046126 4.418498.044205 2.445646.090331 4.926847-.026906 7.218739-.62943.377658-2.096817 1.230991-3.765045 2.193874-2.801202 1.617297-5.854175 3.4806-6.644085 3.935135zm12.565525 22.596036-.000961.001922c-.121081-.069189-.278678-.154715-.473754-.260421-.601561-.323844-1.579819-.397838-1.761441-.644804l.016336-12.57994c1.136817-.610211 3.010691-1.723964 4.926847-2.861742 2.794475-1.660541 5.551472-3.385466 5.617778-3.381628.074955.00385 3.380661 2.02379 6.522042 3.827514 1.723964.99075 3.300901 1.907507 4.081201 2.385105.073033 2.298618.044204 5.864745.019219 8.917718-.011531 1.39051-.022102 2.682042-.025945 3.327807l-10.597478 6.040601zm17.58943 42.441802c-.344985.209489-.690931.418979-.998439.592913l-.01057.005765-6.004084 3.458499-.001922-.002883c-.118199.066306-.356517.212372-.645766.39015-.656337.402643-1.287688 1.060901-1.477958 1.042643-.153754-.015376-2.361081-1.452012-3.991832-2.403364-.627507-.366126-1.127207-.657297-1.401081-.811051v-.000961l-5.266066-3.01069.001922-12.228229c1.151231-.62078 3.072192-1.764324 5.023904-2.927087 2.765645-1.647087 5.406366-3.347027 5.503423-3.342232.07976.004815 2.354355 1.440491 4.917237 2.961692 2.147748 1.274234 4.38006 2.60036 5.674475 3.295135v12.203243c-.439159.239279-.881201.508349-1.323243.776457zm3.154834-15.988469c-.059579.000961-3.931291-2.406246-7.261021-4.315676-1.399159-.802402-2.624384-1.512552-3.307627-1.922882-.073994-3.396036-.031712-8.222943-.000961-11.828469l.002883-.378619c2.547507-1.508708 10.499459-6.261621 10.566726-6.261621.091292.000961 3.632433 2.211171 6.870871 4.071591 1.588469.912913 3.002042 1.732613 3.708349 2.156397l-.016337 12.201321-5.313153 3.105826.001922.002883-.95039.556396c-1.55003.910991-4.152313 2.610931-4.301262 2.612853zm22.97946 15.196637c-1.153153.620781-3.071231 1.764324-5.019099 2.926126-2.763724 1.648048-5.438078 3.344144-5.517838 3.341265-.091291-.003848-2.43988-1.487571-5.065225-3.03568l.000961-.001921c-2.112192-1.245406-4.282042-2.524445-5.53994-3.203844l.014414-12.21958c1.176216-.635195 3.147147-1.800841 5.130571-2.973213 2.448528-1.448168 4.602042-2.945345 5.171892-3.22979l8.555435 4.901862.000961-.001922.426667.25946c.533333.324804 1.233874.752432 1.842162 1.08012zm-2.963604-18.097778c-2.183303-1.28961-4.478078-2.644565-5.799399-3.356637l.001922-12.23015 5.341982-3.055856.016336-.01057c.538138-.318078.967688-.56024 1.397237-.803364.526607-.297897 1.052253-.595795 1.618259-.933093l.004804-.004804.314235-.191232h.005765c.647688-.394955 1.68937-1.228108 1.840241-1.221422.119159.004846 2.608048 1.593314 5.352552 3.201002 2.034355 1.191591 4.077358 2.388949 5.251652 3.033754.025946 2.035315.053814 5.018138.051986 7.735735-.001055 1.682643-.014509 3.270151-.047181 4.473274-1.170451.628468-3.163484 1.81045-5.169009 2.999159-2.73009 1.618258-5.135376 3.289369-5.310271 3.271259-.061501-.008797-2.327447-1.405073-4.871111-2.907055zm27.732373 18.103544-5.315075 3.088528v.000961c-.114355.065345-.516997.302703-1.021502.598679-1.562522.919639-4.077357 2.57057-4.22054 2.56961-.083604 0-3.738139-2.277478-7.008289-4.155196v-.005766c-1.521201-.873513-2.866546-1.652852-3.565165-2.072792l.010571-12.257057c.516997-.322883 1.181982-.687088 1.734534-.990751.22006-.121081.425706-.233514.551592-.304625.323844-.181621 1.285766-.742823 2.443724-1.417417 2.492732-1.453934 5.613933-3.500781 5.803243-3.497901.143183.001925 2.525405 1.572135 5.325645 3.175979 2.122763 1.215615 4.233994 2.437958 5.25934 3.052973v12.214775z" stroke-width="5"/></g></g></svg>