<?xml version="1.0" encoding="UTF-8"?>
<svg width="960px" height="960px" viewBox="0 0 960 960" version="1.1" xmlns="http://www.w3.org/2000/svg" xmlns:xlink="http://www.w3.org/1999/xlink">
    <!-- Generator: Sketch 60 (88103) - https://sketch.com -->
    <title>drivers/acc-socket/assets/learnmode</title>
    <desc>Created with Sketch.</desc>
    <style type="text/css">
    	.pair {
    		animation: pulse 2s infinite;
    	}

    	@keyframes pulse {
    		0%, 20%, 80%, 100% {
    			fill: rgba(255,255,255,0);
    		}
    		50% {
    			fill: #0074CC;
    		}
    	}
    </style>
    <g id="/drivers/acc-socket/assets/learnmode" stroke="none" stroke-width="1" fill="none" fill-rule="evenodd">
        <path d="M180,54.7767388 C189.3913,43.0016063 215.853504,35.696455 259.386613,32.8612848 L260.711023,32.7767388 L700.288977,32.7767388 C744.610164,35.5493322 771.513838,42.8826656 781,54.7767388 L180,54.7767388 Z" id="Path" stroke="#000000" stroke-width="7.5" stroke-linejoin="round"/>
        <path d="M174,446.776739 C216.298706,455.443405 262.275002,459.776739 311.92889,459.776739 C361.582777,459.776739 417.820776,459.776739 480.642888,459.776739 L480.357112,459.776739 C543.179224,459.776739 599.417223,459.776739 649.07111,459.776739 C698.724998,459.776739 744.701294,455.443405 787,446.776739" id="Path-8" stroke="#000000" stroke-width="7.5" stroke-linejoin="round"/>
        <path d="M440.113481,515 L440.113481,459 L521.113481,459 L521.113481,515 L440.113481,515 Z" id="Combined-Shape" stroke="#000000" stroke-width="7.5" stroke-linejoin="round"/>
        <path d="M329.112356,730.808705 C343.275161,732.906887 359.433827,734.601985 377.588353,735.894 L377.5889,931 C377.5889,940.941125 369.530025,949 359.5889,949 L347.113481,949 C337.172356,949 329.113481,940.941125 329.113481,931 Z M632.116239,730.659143 L632.113481,931 C632.113481,940.830669 624.232698,948.820682 614.444147,948.997024 L614.113481,949 L601.638063,949 C591.807394,949 583.817381,941.119217 583.641039,931.330665 L583.638063,931 L583.641144,735.822096 C601.816213,734.508405 617.974578,732.787421 632.116239,730.659143 Z" id="Combined-Shape" stroke="#000000" stroke-width="7.5" stroke-linejoin="round"/>
        <rect id="Rectangle" stroke="#000000" stroke-width="7.5" stroke-linejoin="round" x="413" y="349.776739" width="135" height="58" rx="10"/>
        <rect class="pair" fill="#0074CC" x="421" y="358.776739" width="119" height="40" rx="4"/>
        <path d="M694.113481,516 L694.113481,705.198126 C694.113481,710.070828 691.289732,714.502317 686.872344,716.562095 C655.10985,731.372594 586.870901,738.851895 482.155495,739 L476.071467,739 L469.832315,738.982316 C368.641095,738.54979 302.481862,731.076384 271.354618,716.562095 C267.053478,714.556521 264.263201,710.302422 264.119325,705.581862 L264.113481,705.198126 L264.113481,516 L694.113481,516 Z M700.536753,33 C744.784194,35.3945125 771.643103,41.7278459 781.113481,52 L799.923063,52 C802.132202,52 803.923063,53.790861 803.923063,56 C803.923063,56.0619888 803.921622,56.1239692 803.918741,56.185891 L785.700209,447.788521 L779.508381,456.68627 C766.57712,475.207012 757.430329,487.885739 752.068008,494.722451 L751.629908,495.278654 C742.506446,506.810596 737.930487,507.680856 726.816968,510.368977 L725.988528,510.563491 C718.63378,512.240741 706.730814,513.695945 690.279629,514.929103 L689.325476,515 L271.901487,515 L270.003273,514.857713 C253.727019,513.616015 241.998985,512.152271 234.819168,510.46648 L231.033088,509.548169 C222.409436,507.407324 217.895122,505.630913 210.014949,495.803372 L208.933334,494.434207 C202.706521,486.463135 191.570994,470.914573 175.526754,447.788521 L157.308222,56.185891 C157.205557,53.9791388 158.911257,52.1069865 161.118009,52.0043218 C161.179931,52.001441 161.241911,52 161.3039,52 L181.113481,52 C190.489155,41.8305674 216.907329,35.5215731 260.368003,33.073017 L261.69021,33 L700.536753,33 Z" id="Combined-Shape" stroke="#000000" stroke-width="15" stroke-linejoin="round"/>
    </g>
</svg>