<svg enable-background="new 0 0 180.708 180.709" height="180.709" viewBox="0 0 180.708 180.709" width="180.708" xmlns="http://www.w3.org/2000/svg"><path d="m163.672 2.126h-146.636c-4.1 0-7.827 1.678-10.53 4.381-2.703 2.702-4.38 6.43-4.38 10.53v146.635c0 8.201 6.709 14.911 14.91 14.911h146.636c4.099 0 7.827-1.678 10.529-4.381 2.703-2.703 4.381-6.43 4.381-10.53v-146.635c0-8.202-6.709-14.911-14.91-14.911m-146.636-2.126h146.636c9.37 0 17.036 7.666 17.036 17.037v146.635c0 4.686-1.916 8.946-5.004 12.033-3.087 3.088-7.346 5.004-12.032 5.004h-146.636c-9.37 0-17.036-7.667-17.036-17.037v-146.635c0-4.686 1.916-8.946 5.003-12.033 3.087-3.088 7.347-5.004 12.033-5.004z"/><path d="m152.229 21.584h-123.751c-2.052 0-3.917.84-5.269 2.192s-2.192 3.218-2.192 5.269v123.752c0 2.051.84 3.917 2.192 5.269s3.217 2.192 5.269 2.192h123.751c2.052 0 3.917-.84 5.27-2.192 1.352-1.352 2.192-3.218 2.192-5.269v-123.752c0-2.051-.84-3.917-2.193-5.269-1.352-1.352-3.217-2.192-5.269-2.192m-123.751-.992h123.751c2.325 0 4.439.951 5.971 2.483s2.483 3.645 2.483 5.97v123.752c0 2.325-.951 4.439-2.483 5.97-1.532 1.532-3.646 2.483-5.971 2.483h-123.751c-2.325 0-4.439-.951-5.97-2.483-1.532-1.531-2.483-3.645-2.483-5.97v-123.752c0-2.325.951-4.438 2.483-5.97 1.531-1.532 3.645-2.483 5.97-2.483z"/><path d="m152.229 23.569h-123.751c-1.506 0-2.875.616-3.868 1.609s-1.609 2.362-1.609 3.868v123.751c0 1.506.616 2.875 1.609 3.868s2.362 1.609 3.868 1.609h123.751c1.506 0 2.876-.616 3.868-1.609.993-.993 1.609-2.362 1.609-3.868v-123.752c0-1.506-.616-2.875-1.609-3.868-.992-.992-2.362-1.608-3.868-1.608m-123.751-.993h123.751c1.78 0 3.397.728 4.57 1.9 1.172 1.172 1.899 2.79 1.899 4.569v123.751c0 1.779-.727 3.397-1.899 4.569-1.173 1.173-2.79 1.9-4.57 1.9h-123.751c-1.779 0-3.397-.727-4.569-1.9-1.172-1.172-1.9-2.79-1.9-4.569v-123.751c0-1.779.728-3.397 1.9-4.569s2.79-1.9 4.569-1.9z"/><path d="m89.857 23.073h.992v135.697h-.992z"/><g clip-rule="evenodd" fill="#fff" fill-rule="evenodd"><path d="m88.865 23.569h-60.387c-1.506 0-2.875.616-3.868 1.609s-1.609 2.362-1.609 3.868v61.322h65.864z"/><path d="m91.842 90.368h65.864v-61.323c0-1.506-.616-2.875-1.609-3.868-.992-.993-2.362-1.609-3.868-1.609h-60.387z"/><path d="m88.865 91.475h-65.864v61.322c0 1.506.616 2.875 1.609 3.868s2.362 1.609 3.868 1.609h60.387z"/><path d="m91.842 158.273h60.387c1.506 0 2.876-.616 3.868-1.609.993-.993 1.609-2.362 1.609-3.868v-61.321h-65.864z"/></g></svg>