<svg enable-background="new -89.285 -185.727 220.576 458.832" height="458.832" viewBox="-89.285 -185.727 220.576 458.832" width="220.576" xmlns="http://www.w3.org/2000/svg"><path d="m112.749-182.749c-.168 58.392-10.287 111.254-26.555 149.634-16.572 39.089-39.614 63.27-65.192 63.27s-48.62-24.181-65.192-63.27c-16.278-38.38-26.392-91.242-26.56-149.634h-2.163c-3.681 0-7.031 1.507-9.462 3.938-2.426 2.426-3.938 5.776-3.938 9.457v426.086c0 3.686 1.507 7.036 3.933 9.462s5.781 3.933 9.462 3.933h187.82c3.681 0 7.031-1.507 9.457-3.933 2.431-2.431 3.938-5.776 3.938-9.462v-426.086c0-3.686-1.507-7.036-3.933-9.457l-.005-.005c-2.421-2.426-5.776-3.933-9.457-3.933zm-180.52 0c.168 58.008 10.192 110.456 26.313 148.479 16.094 37.96 38.185 61.448 62.461 61.448 24.27 0 46.367-23.483 62.461-61.448 16.121-38.023 26.145-90.476 26.313-148.479zm-5.141-2.978h2.158 183.509 2.158c4.495 0 8.591 1.843 11.558 4.81l.005.005h.005c2.967 2.967 4.81 7.063 4.81 11.558v426.086c0 4.505-1.843 8.601-4.81 11.563-2.967 2.967-7.063 4.81-11.563 4.81h-187.83c-4.5 0-8.591-1.843-11.558-4.81l-.005-.005c-2.967-2.962-4.81-7.057-4.81-11.558v-426.086c0-4.505 1.843-8.596 4.81-11.563 2.962-2.966 7.057-4.81 11.563-4.81z"/><path d="m92.003 80.497c-18.169-18.169-43.274-29.411-71.005-29.411s-52.831 11.243-71.005 29.411c-18.169 18.169-29.411 43.274-29.411 71.005 0 27.726 11.243 52.836 29.411 71.005s43.274 29.411 71.005 29.411 52.836-11.243 71.005-29.411 29.411-43.274 29.411-71.005c0-27.726-11.243-52.831-29.411-71.005m-71.005-32.383c28.55 0 54.401 11.573 73.11 30.283 18.71 18.71 30.283 44.56 30.283 73.11s-11.573 54.401-30.283 73.11-44.56 30.283-73.11 30.283-54.401-11.573-73.11-30.283c-18.71-18.71-30.283-44.555-30.283-73.11 0-28.55 11.573-54.401 30.283-73.11s44.56-30.283 73.11-30.283z"/><path d="m59.64 137.707c3.807 0 7.262 1.544 9.756 4.043 2.494 2.494 4.043 5.949 4.043 9.756 0 3.812-1.544 7.262-4.043 9.756h-.005c-2.499 2.499-5.949 4.043-9.751 4.043s-7.252-1.544-9.751-4.043h-.005v-.005c-2.494-2.499-4.043-5.944-4.043-9.751 0-3.802 1.549-7.257 4.043-9.751 2.499-2.504 5.949-4.048 9.756-4.048m-79.254 0c3.807 0 7.262 1.544 9.756 4.043 2.494 2.494 4.043 5.949 4.043 9.756 0 3.812-1.549 7.262-4.043 9.756h-.005c-2.5 2.499-5.949 4.043-9.751 4.043s-7.252-1.544-9.751-4.043h-.005l-.005-.005c-2.494-2.499-4.043-5.944-4.043-9.751 0-3.802 1.549-7.257 4.043-9.751h-.005c2.504-2.504 5.954-4.048 9.766-4.048z"/><path d="m-67.703 159.877c1.407 15.065 6.564 29.049 14.53 40.995v-40.995zm14.53-16.751v-40.99c-7.966 11.946-13.122 25.924-14.53 40.995h14.53zm148.83-40.26v40.26h14.047c-1.381-14.761-6.354-28.476-14.047-40.26zm0 57.011v40.26c7.693-11.783 12.671-25.499 14.047-40.26zm-1.491 42.471v-43.211-.746h.746 14.918c.173-2.274.263-4.568.263-6.884s-.089-4.616-.263-6.884h-14.918-.746v-.746-43.211c-3.025-4.358-6.433-8.423-10.166-12.161-16.121-16.121-38.396-26.093-62.997-26.093s-46.876 9.977-62.997 26.093c-3.539 3.539-6.779 7.372-9.688 11.468v43.904.746h-.751-15.396c-.173 2.274-.263 4.568-.263 6.884s.089 4.61.263 6.884h15.401.74v.746 43.904c2.904 4.091 6.149 7.929 9.688 11.468 16.121 16.121 38.396 26.092 62.997 26.092s46.877-9.977 63.003-26.097c3.733-3.739 7.141-7.809 10.166-12.156zm-73.168-142.913c25.426 0 48.441 10.308 65.103 26.964 16.662 16.662 26.969 39.682 26.969 65.103 0 25.426-10.308 48.441-26.969 65.103-16.662 16.662-39.682 26.969-65.103 26.969-25.426 0-48.441-10.308-65.103-26.969-16.662-16.662-26.964-39.677-26.964-65.103 0-25.42 10.308-48.441 26.964-65.103 16.662-16.656 39.677-26.964 65.103-26.964z"/><path d="m-24.083-108.94c3.807 0 7.262 1.544 9.756 4.043 2.494 2.494 4.043 5.949 4.043 9.756 0 3.812-1.544 7.262-4.043 9.756l-.005-.005c-2.5 2.499-5.949 4.043-9.751 4.043s-7.252-1.544-9.751-4.043l-.005-.005-.005-.005c-2.494-2.5-4.043-5.944-4.043-9.751 0-3.802 1.549-7.257 4.043-9.751l-.005-.005c2.504-2.484 5.954-4.033 9.766-4.033" transform="translate(120px, 95px)"/></svg>