<svg height="960" viewBox="0 0 960 960" width="960" xmlns="http://www.w3.org/2000/svg"><g fill="none" fill-rule="evenodd"><ellipse cx="480" cy="504" rx="313" ry="434" stroke="#000" stroke-linejoin="round" stroke-width="40"/><path d="m575.715011 813.057102c1.707541-1.071663 3.916125.214686 3.82649 2.228668-.87404 19.638476-2.129612 35.494502-3.770357 47.581506l-.187391 1.35224c-.113827.804554-.611573 1.503597-1.334619 1.874364-30.062646 15.41568-62.010474 23.40612-94.749134 23.40612-32.738151 0-64.685921-7.990185-94.750062-23.405393-.723154-.370793-1.220952-1.069951-1.334723-1.874621-1.637611-11.582306-2.90483-26.790925-3.804609-45.63537l-.152062-3.297845c-.089353-2.007587 2.10644-3.29478 3.814547-2.23612 30.056269 18.628443 62.655116 28.369511 96.226909 28.369511 33.4104 0 65.858973-9.647515 95.783051-28.09196z" fill="#000"/><g stroke="#000" stroke-linejoin="round" stroke-width="20"><ellipse cx="480.5" cy="588.5" rx="121.5" ry="164.5"/><path d="m425-2c4.501776 29.7749405 8.501776 51.4416071 12 65"/><path d="m541 0c0 22.4137682-1.666667 43.4137682-5 63"/></g></g></svg>