<svg height="960" viewBox="0 0 960 960" width="960" xmlns="http://www.w3.org/2000/svg"><g fill="none" fill-rule="evenodd"><rect height="230.085797" rx="49.5" stroke="#000" stroke-linecap="round" stroke-linejoin="round" stroke-width="20" width="101.237751" x="428.716178" y="266.266293"/><rect fill="#000" height="185.091241" rx="26.5" width="54.197988" x="452.23606" y="288.763571"/><g stroke="#000" stroke-linecap="round" stroke-linejoin="round"><path d="m479.800746 939.423247-3.202376-.009654c-73.979778-.438188-149.359156-15.69149-188.984913-25.106428l-28.388944-7.281334-9.564066-66.617777c-13.017757-95.44083-34.714018-273.57542-34.714018-400.685681 0-121.057392 7.559885-248.224097 22.679654-381.5001148l2.992905-.8945466 3.092574-.9121317 4.005876-1.1648937 4.161608-1.1923705 4.31734-1.2198472 5.386374-1.5000859 4.65995-1.2802961 5.797507-1.5726246 5.002561-1.3407448 5.158293-1.3682217 6.395517-1.6781352 5.500904-1.4286705 7.962894-2.0462996 8.268129-2.100154 8.573365-2.1540085 6.310709-1.5715495 5.160695-1.2770229 3.935929-.9693074c20.815319-5.115942 78.85997-11.2026075 142.289157-11.1281005 61.416371.0886028 128.277869 6.1815547 147.429598 10.808883l5.245849 1.2885249 7.703667 1.9089399 7.479413 1.8693734 6.061538 1.5275868 8.224525 2.0924605 6.80665 1.7506739 5.500903 1.4286705 6.395518 1.6781352 5.158293 1.3682217 5.984385 1.6055966 4.815683 1.3077728 4.65995 1.2802961 4.504218 1.2528193 3.491248.9824721 5.049993 1.4407362 3.242076.9385094 3.142408.9209243 3.787851 1.1264263c.247332.0741792.493626.1481752.738882.221988 15.11977 133.2760178 22.679654 260.4427228 22.679654 381.5001148 0 123.478539-20.474185 295.107384-33.577664 392.305642l-9.210993 65.145164-1.16841 7.758502-.321016 2.09415-26.688727 6.875731c-39.140771 9.375305-115.633181 25.067493-190.68513 25.512031z" stroke-width="40"/><path d="m237.626083 58.2222582c53.513403 0 146.298796 73.0766128 242.174663 73.0766128" stroke-width="20"/><path d="m259.224513 907.025831c58.051813-15.108355 131.584826-22.662532 220.599038-22.662532" stroke-width="20"/><path d="m478.839419 58.2406365c53.604191 0 146.547 73.4802635 242.585526 73.4802635" stroke-width="20" transform="matrix(-1 0 0 1 1200.264364 0)"/><path d="m478.839419 906.786689c58.010169-15.43421 131.490433-23.151316 220.44079-23.151316" stroke-width="20" transform="matrix(-1 0 0 1 1178.119628 0)"/><path d="m464.5 131v136m0 228v389" stroke-width="20"/><path d="m495.5 132v135m0 228v389" stroke-width="20"/></g></g></svg>