<svg height="960" viewBox="0 0 960 960" width="960" xmlns="http://www.w3.org/2000/svg"><g fill="none" fill-rule="evenodd"><g stroke="#000" stroke-linejoin="round"><path d="m849.213033 41-.481466.4833877 65.482129 65.5939643-.000663 605.742648 14.787.000638v224.179362h-295.32143l-.00057-18.512h-51.533l.000972 18.512h-295.321429l-.000543-18.512h-174.323033l-65.0183168-65.129231-.4826832.482231.0000328-747.247.4824086.483352 65.4821286-65.5939643-.482537-.4833877z" stroke-width="40"/><path d="m574 20.5000001h294.931783l-.481607.4834623 65.549824 65.6040927v313.9124449" stroke-linecap="round" stroke-width="40"/><path d="m644 719.5h285v217h-285z" stroke-width="20"/><path d="m298 719.5h273v217h-273z" stroke-width="20"/></g><g fill="#000"><ellipse cx="850.500033" cy="860.5" rx="34.5" ry="33.5"/><ellipse cx="712.500033" cy="860.5" rx="34.5" ry="33.5"/></g><g fill="#000"><ellipse cx="503.500033" cy="861.5" rx="34.5" ry="33.5"/><ellipse cx="365.500033" cy="861.5" rx="34.5" ry="33.5"/></g><circle cx="178" cy="196.5" fill="#000" r="13"/><rect height="398" rx="22" stroke="#000" stroke-linejoin="round" stroke-width="20" width="635" x="152" y="266.5"/></g></svg>