<svg enable-background="new 0 0 581.1 1084.4" viewBox="0 0 581.1 1084.4" xmlns="http://www.w3.org/2000/svg"><path d="m260.4 708.3-1.2 4.4h3.2l-1.1-4.4z"/><path d="m272.4 716.2v1s0 .9 1.3.9c0 0 1 .1 1.5-.3v-2.5l-1.7.2c-.1-.1-1.1.1-1.1.7z"/><path d="m293.4 693.4c-27.2 0-54.7 1.1-81.7 3.2l-1.2.1v32.2l1.2.1c28.5 2.2 56 3.4 81.7 3.4s53.2-1.1 81.7-3.4l1.2-.1v-32.2l-1.2-.1c-27.1-2.1-54.6-3.2-81.7-3.2zm-64.7 26.2h-3.9l-4-5.6h-.9v5.5c0 .1-.1.2-.2.2h-3c-.1 0-.2-.1-.2-.2v-13.3c0-.1.1-.2.2-.2h3c.1 0 .2.1.2.2v5.3h.9l3.8-5.5h3.8v.5l-4.6 6.2 4.9 6.5zm6.5-.2c-.9.4-2.2.4-2.2.4-2.9 0-2.7-2.6-2.7-2.6v-10.8c0-.1.1-.2.2-.2l2.5-.5h.2c.4 0 .4.2.4.4v10.6s.1.9.7.9h.5c.2 0 .3 0 .3.2l.4 1.6c-.1-.1-.1 0-.3 0zm2.1-13.6c0-.1.1-.2.2-.2h2.9c.1 0 .2.1.2.2v3c0 .1-.1.2-.2.2h-2.9c-.1 0-.2-.1-.2-.2zm3.2 13.6c0 .1-.1.2-.2.2h-2.9c-.1 0-.2-.1-.2-.2v-9c0-.1.1-.2.2-.2h2.9c.1 0 .2.1.2.2zm12.5.2h-3.5l-2.1-3.7h-.7v3.5c0 .1-.1.2-.2.2h-2.9s-.2-.1-.2-.2v-2.4-10.6c0-.1.1-.2.2-.2l2.5-.5h.2c.4 0 .4.2.4.4v7.4.3h.7l2.3-3.7s.1-.2.2-.2l3 .2c.2 0 .1.2.1.2l-3 4.4 3.2 4.8c0 .1-.2.1-.2.1zm14.6 0h-3.2s-.1 0-.2-.2l-1.2-4.4h-4.5l-1.2 4.4c0 .2-.2.2-.2.2h-3.2s-.3 0-.2-.4l4.1-13c.2-.2.2-.2.4-.2h5.1c.2 0 .2 0 .4.2l4.1 13c.1.4-.2.4-.2.4zm10.8-1.6c0 .4-.2.5-.2.5-1.4 1.4-4.2 1.4-4.2 1.4h-.7c-4.2 0-4.1-2.8-4.1-2.8v-1c0-1.9 2.7-2.4 2.7-2.4l3.3-.5v-.5c0-.8-1-.9-1-.9-1.8-.2-3.7.4-3.7.4-.5.1-.4-.3-.4-.3l-.2-1.3c0-.3.2-.3.2-.3 1.9-.8 4.8-.7 4.8-.7 3.5 0 3.5 2.9 3.5 2.9zm11.4 1.6h-2.8c-.1 0-.2-.1-.2-.2v-7s0-.9-1.3-.9c0 0-1-.1-1.5.3v7.1.5c0 .1-.1.2-.2.2h-2.9c-.1 0-.2-.1-.2-.2v-1.3-6.6c0-.4.2-.5.2-.5 1.4-1.4 4.2-1.4 4.2-1.4h.7c4.2 0 4.1 2.8 4.1 2.8v5.9 1.1c0 .2-.1.2-.1.2zm3.6 10.1v-33.7h3.2c23.5 0 48.7 1 76.9 3.1v27.3c-24.8 2-50.7 3.1-76.9 3.3z"/><path d="m332.5 710.3s0-.1-.1-.2l-3-.2c-.2 0-.2.2-.2.2l-2.3 3.7h-.7v-7.8c0-.2 0-.4-.4-.4h-.2l-2.5.5c-.1 0-.2.1-.2.2v10.7 2.5c0 .1.2.2.2.2h2.9c.1 0 .2-.1.2-.2v-3.5h.7l2.1 3.7h3.5s.2 0 .2-.2l-3.2-4.8z"/><path d="m307.8 706.6v-.6h-3.8l-3.8 5.5h-.9v-5.3c0-.1-.1-.2-.2-.2h-3c-.1 0-.2.1-.2.2v13.3c0 .1.1.2.2.2h3c.1 0 .2-.1.2-.2v-5.5h.9l4 5.6h3.9v-.4l-4.9-6.5z"/><path d="m316.9 709h2.9c.1 0 .2-.1.2-.2v-3c0-.1-.1-.2-.2-.2h-2.9c-.1 0-.2.1-.2.2v3c.1.2.2.2.2.2z"/><path d="m319.8 710.3h-2.8c-.1 0-.2.1-.2.2v9c0 .1.1.2.2.2h2.9c.1 0 .2-.1.2-.2v-9c-.1-.2-.2-.2-.3-.2z"/><path d="m314.2 717.5h-.5c-.7 0-.7-.9-.7-.9v-10.6c0-.2 0-.4-.4-.4h-.2l-2.5.5c-.1 0-.2.1-.2.2v10.8s-.1 2.6 2.7 2.6c0 0 1.3.1 2.2-.3.2 0 .2-.2.2-.2l-.4-1.6c.1-.1-.1-.1-.2-.1z"/><path d="m367.5 704.4c.2-.2.2-.4.2-.7 0-.2 0-.4-.1-.5s-.2-.3-.4-.4-.3-.2-.5-.2-.4 0-.6 0h-1.2v4h.7v-1.6h.5l1.2 1.5h1l-1.5-1.7c.4-.1.6-.2.7-.4zm-1 0c-.1 0-.2 0-.4 0h-.4v-1.3h.5.3c.1 0 .2 0 .2.1l.2.2c0 .1.1.2.1.3s0 .2-.1.3c0 .1-.1.2-.2.2 0 .1-.1.2-.2.2z"/><path d="m368.9 702c-.7-.7-1.6-1.1-2.6-1.1s-1.9.4-2.6 1.1-1.1 1.6-1.1 2.6.4 1.9 1.1 2.6 1.6 1.1 2.6 1.1 1.9-.4 2.6-1.1 1.1-1.6 1.1-2.6-.4-1.9-1.1-2.6zm-.4 4.9c-.6.6-1.4 1-2.3 1s-1.7-.3-2.3-1c-.6-.6-1-1.4-1-2.3s.3-1.7 1-2.3c.6-.6 1.4-.9 2.3-.9s1.7.3 2.3.9 1 1.4 1 2.3-.3 1.7-1 2.3z"/><path d="m350.1 709h2.9c.1 0 .2-.1.2-.2v-3c0-.1-.1-.2-.2-.2h-2.9c-.1 0-.2.1-.2.2v3c0 .2.1.2.2.2z"/><path d="m352.9 710.3h-2.9c-.1 0-.2.1-.2.2v9c0 .1.1.2.2.2h2.9c.1 0 .2-.1.2-.2v-9c0-.2-.1-.2-.2-.2z"/><path d="m361.9 717.7c0-.2-.2-.2-.3-.2h-1.6c-.6 0-.7-.9-.7-.9v-4.4h2.3c.2 0 .4 0 .4-.2v-1.8c0-.2-.2-.4-.4-.4h-2.3v-3.8c0-.2 0-.4-.4-.4h-.2l-2.5.5c-.1 0-.2.1-.2.2v10.8s-.1 2.6 2.7 2.6c0 0 2.3.1 3.2-.4h-.1c.2 0 .2-.2.2-.2z"/><path d="m346.6 706c0-.2 0-.4-.4-.4h-.2l-2.8.5c-.1 0-.2.1-.2.2v9.7s.1 1.4-2.1 1.4h-1s-2 .1-2-2v-9.5c0-.2 0-.4-.4-.4h-.2l-2.8.5c-.1 0-.2.1-.2.2v8.8s-.3 4.8 6 4.8 6.1-4.4 6.1-4.4z"/><path d="m581.1 290.5c0-77.6-30.2-150.6-85.1-205.4-54.9-54.9-127.9-85.1-205.5-85.1s-150.5 30.2-205.4 85.1-85.1 127.8-85.1 205.4c0 14.1 1 28.2 3 42v.1.1.2c0 .2.1.5.1.7.1.6.2 1.3.3 1.9s.2 1.1.3 1.7c0 .3.1.6.1.9 1.1 6.8 2.6 13.9 4.3 21.4.1.3.2.6.2.9 5.6 23.6 14.6 52.1 27.2 79.1 9.5 20.3 20.9 40.9 32 60.8 20.7 37.2 42 75.7 51.5 113.6 11.1 61.4 17 128.9 18 206.4.1 6 2.6 12.7 7.6 20.6 5.6 8.9 10.8 16.5 15.8 23.2.3 6.9 1 12.3 3.6 16.9 1.6 3 5.1 5.2 11.6 9.1 1.4.8 3.2 1.9 4.6 2.8 1.3 1.8 2.6 3.7 3.6 5.6 1.2 2.2 2.1 4.5 2.6 6.7l.1.3.1.2c1.6 4.5 3 10.3 4.2 17.2 1.3 7.5 2.3 16.2 3.1 25.4.8 10.1 1.3 20.6 1.6 31 .3 11.5.4 22.9.1 33.1l-.1 3.6.5.1 27.7 30h-.2l9.4 8.2 24.3 21.2.1.1.6.5c4.4 3.8 8.9 7.6 31.9 8.5h.4c23-.8 27.4-4.7 31.9-8.5l.6-.5.1-.1 24.3-21.2 9.4-8.2h-.1l28.5-30.1c-.1 0-.2 0-.4 0l-.1-3.6c-.2-10.2-.2-21.6.1-33.1.2-10.3.8-20.9 1.6-31 .8-9.2 1.8-17.8 3.1-25.4 1.1-6.8 2.5-12.7 4.2-17.2l.1-.2.1-.3c.5-2.2 1.4-4.4 2.5-6.7 1.4-2.5 3.2-5.1 5.1-7.4l.1-.1c.9-.4 1.8-.9 2.6-1.2 7.4-3.4 11.4-5.4 13.2-8.8 2.5-4.6 3.3-10 3.6-16.9 5-6.7 10.2-14.3 15.8-23.2 5-7.9 7.5-14.6 7.6-20.6 1.1-77.5 7-145 18-206.4 9.5-37.9 30.8-76.4 51.5-113.6 11.1-19.9 22.5-40.6 32-60.8 18.2-38.9 28.8-80.7 32.6-106.8h-.2c2-13.9 3.1-28 3.1-42.2zm-486-195.4c52.2-52.2 121.6-80.9 195.4-80.9s143.2 28.7 195.4 80.9 80.9 121.6 80.9 195.4c0 38.9-7.9 76.4-23.5 111.7-165.1 4.4-335.1 4.4-505.8-.2-6.5-14.6-11.7-29.9-15.5-45.3-1.6-6.6-2.8-12.8-3.8-18.5 0-.1 0-.2-.1-.3-.1-.7-.2-1.4-.4-2-.1-.4-.1-.8-.2-1.2-.1-.5-.2-.9-.2-1.4-.1-.9-.3-1.8-.4-2.6v-.3c-1.9-13.1-2.8-26.5-2.8-39.8.1-73.9 28.8-143.3 81-195.5zm189.3 777.6c2.1.1 4.2.1 6.3.1h6.3v-.1c37.2-.5 73.9-2.7 109.4-6.7-.2 2.8-.6 5.5-1.3 7.3-1.5.9-5 2.6-7.2 3.6-5.1 2.4-8.4 4-10.5 5.9-.3 0-.6.1-.9.1-5.3.5-11 1-17 1.4-11.7.8-24.3 1.4-36.9 1.8-14.6.5-29.2.7-42.8.8-13.5-.1-28.3-.3-42.8-.8-12.6-.4-25.2-1-36.8-1.8-6-.4-11.6-.8-16.6-1.3-1.1-.1-2.1-.2-3.2-.3-1.8-1.3-4.1-2.8-7.3-4.7-2.1-1.3-5.5-3.3-6.8-4.3-.8-1.9-1.2-4.6-1.4-7.5 35.5 3.8 72.2 6 109.5 6.5zm32 197.2-.6.5c-3.2 2.7-6.4 5.5-25.8 6.3-19.4-.7-22.6-3.5-25.8-6.3l-.6-.5-15.7-13.6c2.4.1 5.1.2 7.9.3 5 .2 10.4.3 16.3.3 5.7.1 11.8.1 17.9.1s12.2-.1 17.9-.1c5.8-.1 11.3-.2 16.3-.3 2.8-.1 5.4-.2 7.8-.3zm69.7-173.5c-1.4 2.6-2.4 5.3-3.1 8.1-1.7 4.8-3.2 10.9-4.4 17.8-1.3 7.6-2.3 16.3-3 25.5-.8 9.7-1.3 20.2-1.6 30.7-.3 10.1-.4 20.1-.2 29.3l-3.7.3c-3 .2-5.7.4-8.4.6-3.6.2-7.2.4-10.6.6-3.8.2-7.5.4-11.1.5-4.2.2-8.2.3-12.1.4-4.2.1-8.4.2-12.4.3-4.4.1-8.7.2-12.8.2-4.4.1-8.7.1-12.8.1s-8.4-.1-12.8-.1c-4.1-.1-8.4-.1-12.8-.2-4.1-.1-8.2-.2-12.4-.3-3.9-.2-7.9-.3-12.1-.4-3.6-.2-7.3-.3-11.1-.5-3.4-.2-6.9-.4-10.6-.6-2.6-.2-5.4-.4-8.3-.6l-3.7-.3c.1-6.4.1-13.1 0-20 10 .9 20.9 1.5 32.1 2 20.6.9 42 1.3 60.5 1.3v-6c-18.7 0-40-.4-60.2-1.3-11.4-.5-22.4-1.2-32.5-2.1 0-1.1-.1-2.2-.1-3.2-.1-4.9-.3-9.9-.6-14.7 10.2.9 21.4 1.6 32.9 2.1 20.6.9 42 1.3 60.5 1.3v-6c-18.7 0-40-.4-60.2-1.3-11.7-.5-23.1-1.2-33.5-2.2-.2-3.4-.4-6.7-.7-10-.2-2.7-.5-5.4-.8-8 10.6 1 22.5 1.7 34.7 2.3 20.6.9 42 1.3 60.5 1.3v-6c-18.7 0-40-.4-60.2-1.3-12.5-.6-24.7-1.3-35.6-2.4-.5-4-1-7.8-1.7-11.4-.4-2.4-.8-4.6-1.3-6.7 11.6 1.1 24.7 2 38.3 2.6 20.6.9 42 1.3 60.5 1.3v-6c-18.7 0-40-.4-60.2-1.3-14.3-.6-28.1-1.6-40.1-2.8-.5-1.8-1-3.4-1.6-5-.6-2.7-1.7-5.4-3-8.1-.9-1.7-2-3.3-3-4.9l3.4.4c5.3.5 10.9 1 16.6 1.3 11.2.8 23.7 1.3 36.5 1.8 14.3.5 28.8.7 42.2.8h.1c13.5-.1 28-.3 42.3-.8 12.8-.4 25.3-1 36.5-1.8 5.9-.4 11.6-.8 16.9-1.4l3.6-.4c-.8 1.8-1.9 3.5-2.8 5.2zm21.9-39-1.1 1.5c-37.6 4.2-76.6 6.5-116.2 6.8-39.6-.3-78.6-2.6-116.3-6.8l-1.1-1.5c-4.8-6.3-9.9-13.8-15.4-22.3 23.4 6.2 65 11.5 126.4 11.9h6.2.1.1 6.2c61.3-.4 102.9-5.7 126.3-11.9-5.3 8.5-10.4 16-15.2 22.3zm93.2-363.9c-21.2 38.1-43 77.5-52.9 117.3l-.1.4c-11.2 62.2-17.2 130.6-18.3 208.9 0 1.3-.4 3.3-1.6 6.2-25.6 8.4-78.1 13.6-139.1 13.6-59.8-.1-111.1-5.3-136.2-13.6-1.2-2.9-1.6-4.9-1.6-6.2-1.1-78.4-7.1-146.7-18.3-208.9l-.1-.4c-9.9-39.8-31.8-79.2-52.9-117.3-11-19.7-22.3-40.1-31.5-60-3.8-8-7.2-16.2-10.3-24.3 86.1 2.3 172.1 3.4 257.4 3.4 83.3 0 165.9-1.1 247.3-3.3-3.1 8.1-6.5 16.2-10.2 24.2-9.3 19.8-20.6 40.2-31.6 60z"/></svg>