<svg height="960" viewBox="0 0 960 960" width="960" xmlns="http://www.w3.org/2000/svg"><g fill="none" fill-rule="evenodd"><g stroke="#000" stroke-linecap="round" stroke-linejoin="round"><path d="m480.5 22c131.848783 0 240.187535 10.9195516 252.361854 24.8770137l1.138146-.0467791c0 .577362-.049279 1.1524461-.147051 1.7250966.097852.313482.147051.6284521.147051.9446688 0 1.0958463-.590864 2.1767218-1.739917 3.2390818-14.775307 24.9234161-121.85707 44.2609182-251.760083 44.2609182s-236.984776-19.3375021-251.760267-44.2608402c-1.149128-1.062912-1.739733-2.1435538-1.739733-3.2391598 0-.3162167.049199-.6311868.146812-.9448252-.097533-.5724941-.146812-1.1475782-.146812-1.7249402.387124.0110914.773267.0218091 1.158448.0321566 12.23656-13.9511573 120.542994-24.8623912 252.341552-24.8623912z" stroke-width="20"/><path d="m474.991422 937.998569c-164.516895-.094421-253.180702-4.862677-265.991422-14.304768l17.562213-874.0669108.440619-.0485853.003182-.0853267c.012022-.1925811.042048-.3846951.089902-.576323-.063795-.4657235-.095916-.9332994-.095916-1.4023695l.762604.0215363c10.028361-14.2680944 119.08379-25.5073691 252.231586-25.5357681l.00581-.0000539c.172103.000017.336033 0 .5 0 133.408431 0 242.747338 11.2549131 252.753398 25.5449413l.746602-.0306556c0 .4690701-.032121.936646-.09595 1.4026453.06384.255228.09595.5115961.09595.7687833 0 .6028933-.176451 1.2012856-.524019 1.7945947l17.524019 872.213492c-12.940121 9.537466-103.273454 14.306199-271 14.306199z" stroke-width="40"/><path d="m208.946832 836.953872c90.283955 5.712205 180.56791 8.568308 270.851865 8.568308s180.56791-2.856103 270.851865-8.568308" stroke-width="20"/></g><rect fill="#000" height="166.844749" rx="25" width="54.170373" x="452.931604" y="513.607292"/></g></svg>