<svg height="960" viewBox="0 0 960 960" width="960" xmlns="http://www.w3.org/2000/svg"><g fill="none" fill-rule="evenodd" stroke="#000"><path d="m550.370082 766v-47.552303c5.05933-2.151203 9.697048-9.121101 12.226713-13.509555 29.006823-50.510248 49.497107-106.011287 61.049243-165.040298 10.371625-51.456777 13.575867-105.753142 9.865692-161.168133-5.986873-89.231902-30.777587-181.389441-66.192894-246.441821-26.139869-48.0148523-45.955576-79.3363687-60.54331-95.77156-8.036018-8.9508778-13.94551-12.7937855-18.80852-14.4192663-1.134865-.3793332-3.763036-1.0668211-5.893072-1.0668211s-3.825831-.0680459-4.716061 0c-5.921359.4526074-12.985042 3.0053659-24.126917 15.5721356-14.587734 16.4351913-34.403441 47.7567077-60.54331 95.7715598-35.415307 64.966332-60.206021 157.123871-66.192894 246.355773-3.710175 55.414991-.505933 109.711356 9.528404 161.340229 11.552135 59.029012 32.04242 114.53005 61.049242 165.040298 2.529665 4.474502 7.167384 11.4444 12.226713 13.509555v47.380207" stroke-linecap="round" stroke-linejoin="round" stroke-width="40"/><g transform="translate(417 767)"><g stroke-linecap="round" stroke-width="15"><path d="m8 50c19.1210332 5.4705648 76.0615265 14 110 14"/><path d="m8 23c19.1210332 5.4705648 76.0615265 14 110 14"/><path d="m11 77c21.7108231 5.4017926 74.7308793 13 107 13"/></g><path d="m0 1c3.84771081 15.9264378 5.77156621 35.1866083 5.77156621 57.7805115v51.5517305c19.92195429 42.703351 25.63412399 66.662809 56.72843379 66.667758 31.0943098.004879 37.0219179-24.426206 56.728434-66.667758 0-11.7739169 0-28.9578272 0-51.5517305 0-22.5939032 1.923855-41.8540737 5.771566-57.7805115" stroke-linejoin="round" stroke-width="30"/><path d="m121 99-6.15975 12.696852c-7.585357 24.87775-14.567312 37.451143-20.9458645 37.720178-9.2144391.388647-18.922883.58297-29.1253317.58297-.4351731 0-.8581278-.038295-1.2688642-.112733-.410434.074377-.8337197.112733-1.2692434.112733-10.2024487 0-19.9108926-.194323-29.1253317-.58297-6.3785521-.269035-13.3605071-12.842428-20.9458649-37.720178l-6.1597496-12.696852c16.691119 1.614781 35.4347678 2.422171 56.2309462 2.422171.4355237 0 .8588094.038356 1.2698571.112913.4101227-.074619.8330774-.112913 1.2682505-.112913 20.7961784 0 39.5398272-.80739 56.2309462-2.422171z" fill="#000" stroke-width="2"/></g><g stroke-linejoin="round" stroke-width="20"><path d="m412 711c30.497477 3.350982 53.74047 5.026472 69.728978 5.026472 15.988507 0 38.078848-1.67549 66.271022-5.026472v58.478823c-28.347507 3.014118-50.437848 4.521177-66.271022 4.521177-15.833175 0-39.076168-1.507059-69.728978-4.521177z"/><path d="m325 444c51.666667-7.333333 103.333333-11 155-11s103.333333 3.666667 155 11"/></g></g></svg>