<svg enable-background="new 0 0 811.7 1199.3" viewBox="0 0 811.7 1199.3" xmlns="http://www.w3.org/2000/svg"><path d="m805.8 29.4c-112.9-19-255-29.4-400-29.4s-287 10.4-399.9 29.4l-5.9 1v48.3l4.1 1.9c9.7 4.5 19.7 7.4 29.9 8.4-.8 112.2 4.9 210.8 16.9 293.1 12.3 84.3 31.7 154.1 57.6 207.4l.2.4c21.8 37.8 51.2 72.2 87.5 102.2l.3.2c15.2 11.3 22.1 28.9 21.3 54v.2.2c2.4 124.4 4.4 214.5 5.7 268.2.1 6 .9 9.2 5.2 14 5.4 5.9 19.7 21.1 34.7 34.6 23.8 21.3 33.5 23.8 38.8 23.8h22.5v96.8c0 8.4 6.9 15.3 15.3 15.3s15.3-6.9 15.3-15.3v-96.8h107.2v96.8c0 8.4 6.9 15.3 15.3 15.3s15.3-6.9 15.3-15.3v-96.8h16.3c5.3 0 15-2.5 38.8-23.8 15-13.5 29.3-28.7 34.7-34.6 4.3-4.7 5.1-8 5.2-14 1.3-53.7 3.3-143.8 5.7-268.2v-.2-.2c-.8-25.1 6.1-42.7 21.3-54l.3-.2c36.3-30 65.7-64.4 87.5-102.2l.2-.4c25.9-53.3 45.3-123 57.6-207.4 12.1-82.3 17.8-180.9 16.9-293.1 10.2-1.1 20.2-3.9 29.9-8.4l4.1-1.9v-48.3zm-8.3 40.1c-111.4-18.2-250.1-28.1-391.7-28.1-141.5 0-280.2 10-391.7 28.1v-27.1c111.2-18.2 250-28.2 391.7-28.2s280.5 10 391.7 28.2zm-210.6-15.5c-.6 32.2-1 59.5-1.4 85.9-.9 64.8-1.6 116.1-5.3 196-.9 19.3-3.7 30.5-9.5 37.4-5.9 7.1-15.7 10.2-31.8 10.2-11.6 0-24.6-5.2-39.7-11.2-23.5-9.3-52.6-21-93.4-21.2-40.7.2-69.9 11.8-93.4 21.2-15.1 6-28.1 11.2-39.7 11.2-16.1 0-25.9-3.1-31.8-10.2-5.8-6.9-8.7-18.1-9.5-37.4-3.7-80-4.4-131.2-5.3-196-.4-26.4-.7-53.7-1.4-85.9 58.5-3.6 119.5-5.5 181.1-5.5s122.7 1.9 181.1 5.5zm-77.5 1019.1h-166-41.1c-.7 0-7.5-.6-29.4-20.1-11-9.9-21.7-20.8-28.5-28 29.3 5.1 81.5 7.5 161.4 7.6 80-.1 132.1-2.5 161.4-7.6-29.4 31.3-51.5 48.1-57.8 48.1zm97.2-392c-18.7 14-27.8 36.1-26.9 65.6-2.4 124.3-4.4 214.3-5.7 268-.1 3.1-.1 3.1-1.5 4.7-.1.1-.2.3-.4.4-27.6 5.7-81 8.5-166.3 8.6-85.3-.1-138.7-2.9-166.3-8.6-.1-.1-.2-.3-.4-.4-1.4-1.6-1.4-1.6-1.5-4.7-1.3-53.7-3.3-143.7-5.7-268 .9-29.5-8.1-51.5-26.9-65.6-24.8-20.5-46.2-43.1-64-67.5 87.9 12.1 176.3 18.1 264.8 18.1 88.4 0 176.9-6 264.8-18.1-17.8 24.4-39.2 47-64 67.5zm163.8-605.8-7 .2.1 7c1.1 114.2-4.6 214.3-16.7 297.6-12.1 82.8-31 151.1-56.2 203-5.1 8.8-10.6 17.4-16.5 25.8-178 24.8-358.4 24.8-536.4 0-5.9-8.4-11.4-17-16.5-25.8-25.2-51.9-44.1-120.2-56.2-203-12.3-83.3-17.9-183.4-16.8-297.6l.1-7-7-.2c-3.8-.1-7.6-.5-11.4-1.2 57-8.7 120.7-15.4 187.8-19.7.6 32.1 1 59.3 1.4 85.6.9 64.9 1.6 116.2 5.3 196.3 1 21 4.3 33.4 11.2 41.6 7.4 8.8 18.9 12.7 37.2 12.7 12.9 0 26.5-5.4 42.3-11.7 22.9-9.1 51.4-20.5 90.7-20.7 39.4.2 67.9 11.5 90.8 20.7 15.8 6.3 29.4 11.7 42.3 11.7 18.4 0 29.8-3.9 37.2-12.7 6.9-8.2 10.2-20.7 11.2-41.6 3.7-80.1 4.4-131.4 5.3-196.3.4-26.3.7-53.5 1.4-85.6 67.2 4.3 130.8 11 187.8 19.7-3.8.7-7.6 1.1-11.4 1.2z"/><path d="m357.2 195-1.8 6.5h4.8l-1.8-6.5z"/><path d="m374.8 206.6v1.5s0 1.3 2 1.3c0 0 1.5.1 2.2-.4v-3.7l-2.6.3c0-.2-1.6.1-1.6 1z"/><path d="m285.2 177.7-1.8.1v47.6l1.8.1c42.2 3.3 82.8 5 120.7 5s78.5-1.7 120.7-5l1.8-.1v-47.6l-1.8-.1c-40-3.1-80.6-4.7-120.7-4.7-40.2 0-80.8 1.6-120.7 4.7zm25.1 34h-5.8l-5.9-8.3h-1.3v8.1c0 .1-.1.2-.2.2h-4.5c-.1 0-.2-.1-.2-.2v-19.6c0-.1.1-.2.2-.2h4.5c.1 0 .2.1.2.2v7.8h1.3l5.6-8.1h5.6v.8l-6.8 9.1 7.3 9.6zm9.7-.3c-1.4.6-3.3.5-3.3.5-4.2 0-4-3.8-4-3.8v-16c0-.1.1-.2.2-.2l3.6-.8h.3c.5 0 .5.3.5.5v15.6s.1 1.3 1 1.3h.8c.3 0 .5 0 .5.3l.5 2.3c.1.1.1.3-.1.3zm3.1-20.1c0-.1.1-.2.2-.2h4.2c.1 0 .2.1.2.2v4.5c0 .1-.1.2-.2.2h-4.2c-.1 0-.2-.1-.2-.2zm4.7 20.1c0 .1-.1.2-.2.2h-4.2c-.1 0-.2-.1-.2-.2v-13.3c0-.1.1-.2.2-.2h4.2c.1 0 .2.1.2.2zm18.5.3h-5.2l-3.1-5.5h-1v5.2c0 .1-.1.2-.2.2h-4.2s-.2-.1-.2-.2v-3.7-15.6c0-.1.1-.2.2-.2l3.6-.8h.3c.5 0 .5.3.5.5v11 .4h1l3.4-5.5s.1-.3.3-.3l4.4.3c.2 0 .2.3.2.3l-4.4 6.5 4.7 7c-.1.4-.3.4-.3.4zm21.5 0h-4.7s-.2 0-.2-.3l-1.8-6.5h-6.6l-1.8 6.5c0 .2-.3.3-.3.3h-4.7s-.5 0-.3-.5l6-19.3c.3-.3.3-.3.5-.3h7.5c.3 0 .3 0 .5.3l6 19.3c.4.5-.1.5-.1.5zm15.9-2.4c0 .6-.2.8-.2.8-2.1 2.1-6.2 2.1-6.2 2.1h-1.1c-6.3 0-6-4.1-6-4.1v-1.5c0-2.8 4-3.6 4-3.6l4.8-.8v-.7c0-1.2-1.4-1.3-1.4-1.3-2.6-.3-5.5.6-5.5.6-.7.1-.6-.4-.6-.4l-.2-1.9c-.1-.4.3-.5.3-.5 2.8-1.2 7.1-1 7.1-1 5.2 0 5.1 4.2 5.1 4.2zm16.8 2.4h-4.2c-.1 0-.2-.1-.2-.2v-10.3s0-1.3-2-1.3c0 0-1.5-.1-2.2.4v10.5.7c0 .1-.1.2-.2.2h-4.2c-.1 0-.2-.1-.2-.2v-1.9-9.7c0-.6.2-.8.2-.8 2.1-2.1 6.2-2.1 6.2-2.1h1.1c6.3 0 6 4.1 6 4.1v8.7 1.6c0 .2-.1.3-.3.3zm123.6-30.2v40.3c-36.6 2.9-74.8 4.6-113.6 4.8h-4.7v-49.7h4.7c34.8 0 72 1.5 113.6 4.6z"/><path d="m449.8 211.7h4.2c.1 0 .2-.1.2-.2v-5.2h1l3.1 5.5h5.2s.3 0 .3-.3l-4.7-7 4.4-6.5s.1-.2-.2-.3l-4.4-.3c-.3 0-.3.3-.3.3l-3.4 5.5h-1v-11.4c0-.2 0-.5-.5-.5h-.3l-3.6.8c-.1 0-.2.1-.2.2v15.6 3.7z"/><path d="m410 211.7h4.5c.1 0 .2-.1.2-.2v-8.1h1.3l5.9 8.3h5.8v-.5l-7.3-9.6 6.8-9.1v-.8h-5.6l-5.6 8.1h-1.3v-7.8c0-.1-.1-.2-.2-.2h-4.5c-.1 0-.2.1-.2.2v19.6s.1.1.2.1z"/><path d="m440.7 196h4.2c.1 0 .2-.1.2-.2v-4.5c0-.1-.1-.2-.2-.2h-4.2c-.1 0-.2.1-.2.2v4.5c0 .1.1.2.2.2z"/><path d="m444.9 197.9h-4.2c-.1 0-.2.1-.2.2v13.3c0 .1.1.2.2.2h4.2c.1 0 .2-.1.2-.2v-13.3c.1-.1 0-.2-.2-.2z"/><path d="m434.1 211.9s1.9.1 3.3-.5c.2 0 .2-.3.2-.3l-.5-2.3c0-.3-.2-.3-.5-.3h-.8c-1 0-1-1.3-1-1.3v-15.6c0-.3 0-.5-.5-.5h-.3l-3.7.8c-.1 0-.2.1-.2.2v16s-.2 3.8 4 3.8z"/><path d="m512.6 190.1h.8l1.8 2.3h1.5l-2.2-2.5c.4-.2.7-.4.9-.7s.4-.6.4-1.1c0-.3-.1-.6-.2-.8s-.3-.4-.6-.5c-.2-.1-.5-.2-.7-.3-.2 0-.6 0-1 0h-1.8v5.9h1.1zm0-2.8h.7.5s.2.1.4.1c.1.1.2.2.3.3s.1.2.1.4c0 .2 0 .4-.1.5 0 .1-.1.2-.2.3s-.2.2-.4.2-.4.1-.6.1h-.6v-1.9z"/><path d="m513.5 195c1.5 0 2.8-.5 3.9-1.6s1.6-2.4 1.6-3.9-.5-2.8-1.6-3.9-2.4-1.6-3.9-1.6-2.8.5-3.9 1.6-1.6 2.4-1.6 3.9.5 2.8 1.6 3.9 2.4 1.6 3.9 1.6zm-3.4-8.9c.9-.9 2.1-1.4 3.4-1.4s2.4.5 3.4 1.4c.9.9 1.4 2.1 1.4 3.4s-.5 2.5-1.4 3.4-2.1 1.4-3.4 1.4-2.4-.5-3.4-1.4c-.9-.9-1.4-2.1-1.4-3.4s.5-2.4 1.4-3.4z"/><path d="m489.6 196h4.2c.1 0 .2-.1.2-.2v-4.5c0-.1-.1-.2-.2-.2h-4.2c-.1 0-.2.1-.2.2v4.5c0 .1.1.2.2.2z"/><path d="m493.9 197.9h-4.2c-.1 0-.2.1-.2.2v13.3c0 .1.1.2.2.2h4.2c.1 0 .2-.1.2-.2v-13.3c0-.1-.1-.2-.2-.2z"/><path d="m502.5 211.9s3.2.1 4.7-.5c.2 0 .2-.2.2-.2l-.3-2.3c0-.3-.2-.3-.5-.3h-2.4c-1 0-1-1.3-1-1.3v-6.5h3.4c.3 0 .5 0 .5-.3v-2.6c0-.3-.3-.5-.5-.5h-3.4v-5.7c0-.3 0-.5-.5-.5h-.3l-3.6.8c-.1 0-.2.1-.2.2v16c-.1-.1-.3 3.7 3.9 3.7z"/><path d="m475.4 212.2c9.2 0 9.1-6.5 9.1-6.5v-14.1c0-.3 0-.5-.5-.5h-.3l-4.2.8c-.1 0-.2.1-.2.2v14.4s.2 2-3.1 2h-1.4s-3 .1-3-2.9v-14c0-.3 0-.5-.5-.5h-.3l-4.1.8c-.1 0-.2.1-.2.2v13c-.2 0-.6 7.1 8.7 7.1z"/></svg>