<svg height="960" viewBox="0 0 960 960" width="960" xmlns="http://www.w3.org/2000/svg"><g fill="none" fill-rule="evenodd"><rect height="622" rx="52" stroke="#000" stroke-linejoin="round" stroke-width="20" width="569" x="195" y="199.035928"/><path d="m195 291.035928c132.078547-1.333333 230.872687-2 296.38242-2 65.509734 0 156.38226.666667 272.61758 2" stroke="#000" stroke-linejoin="round" stroke-width="20"/><path d="m195 727.035928 282.406954 6 286.593046-6" stroke="#000" stroke-linejoin="round" stroke-width="20"/><path d="m258.807 702.332 18.697 31.667928-25.504.000072v-31.668072zm164.137 0 18.697 31.667928h-82.421l18.698-31.667928zm164.137 0 18.697 31.667928h-82.421l18.698-31.667928zm125.919-.000072v31.668072l-25.505-.000072 18.697-31.667928zm-207.601569-45.680397 22.539569 38.175469-22.924 38.829h-45.029l-22.925-38.83 22.540266-38.174469zm163.219569-.000531 22.347 37.85-23.117 39.155h-43.725l-22.926-38.83 22.54039-38.174469zm-327.356692.000531 22.539692 38.176469-22.925 38.828h-43.725l-23.117-39.155 22.347-37.85zm245.820692-46.986531 22.923 38.827-22.539309 38.178539h-45.795561l-22.54013-38.177539 22.924-38.828zm125.918-.000072v77.005l-7.579.000072-22.347-37.85 23.117-39.155zm-290.055.000072 22.923 38.827-22.539433 38.178539h-45.79556l-22.540007-38.177539 22.924-38.828zm-164.137 0 23.117 39.155-22.347 37.85-7.578-.000072v-77.005zm82.453308-45.680839 22.539692 38.176839-22.926 38.828h-43.723l-23.118-39.155 22.347-37.85zm164.137123 0 22.539569 38.175839-22.925 38.829h-45.027l-22.926-38.83 22.540266-38.174839zm163.219569-.000161 22.347 37.85-23.118 39.155h-43.723l-22.927-38.83 22.54039-38.174839zm-245.674-46.987 22.924 38.828-22.539433 38.178168h-45.79556l-22.540007-38.177168 22.925-38.829zm164.137 0 22.924 38.828-22.539309 38.178168h-45.795561l-22.54013-38.177168 22.925-38.829zm125.919-.000072v77.006l-7.579.000072-22.347-37.849 23.118-39.157zm-454.193.000072 23.118 39.156-22.347 37.85-7.578-.000072v-77.006zm82.454308-45.68021 22.539692 38.17721-22.926 38.828h-43.723l-23.118-39.156 22.347-37.85zm164.137123 0 22.539569 38.17621-22.925 38.829h-45.027l-22.926-38.83 22.540266-38.17521zm163.219569-.00079 22.347 37.85-23.118 39.156h-43.723l-22.927-38.83 22.54039-38.17521zm-81.537-46.986 22.924 38.827-22.539309 38.178797h-45.795561l-22.54013-38.177797 22.925-38.828zm125.919-.000072v77.005l-7.579.000072-22.347-37.85 23.118-39.155zm-290.056.000072 22.924 38.827-22.539433 38.178797h-45.79556l-22.540007-38.177797 22.925-38.828zm-164.137 0 23.118 39.155-22.347 37.85-7.578-.000072v-77.005zm409.811-45.681 22.347 37.85-23.117 39.155h-43.725l-22.926-38.83 22.54039-38.174581zm-327.356692.000419 22.539692 38.176581-22.925 38.828h-43.725l-23.117-39.155 22.347-37.85zm164.137123 0 22.539569 38.175581-22.924 38.829h-45.029l-22.925-38.83 22.540266-38.174581zm81.683569-46.986419 22.923 38.827-22.539309 38.178427h-45.795561l-22.54013-38.177427 22.924-38.828zm125.918-.000072v77.005l-7.579.000072-22.347-37.85 23.117-39.155zm-290.055.000072 22.923 38.827-22.539433 38.178427h-45.79556l-22.082007-37.401427 23.384-39.604zm-162.449579.000147 22.273579 37.724853-23.191 39.28-7.578-.000072v-77.005zm411.411579-41.662219 19.517 33.054072-23.577 39.932h-43.723l-22.927-38.83 20.168-34.156072zm-164.137 0 20.168 34.157072-22.925 38.829h-45.027l-22.926-38.83 20.168-34.156072zm-163.751 0 19.975 33.831072-22.733 38.502-44.49388.000741-22.732991-38.503945 19.972871-33.829868zm368.981 26-7.579.000072-15.351-26.000072 22.93-.000928zm-437.153-26-15.351 26.000072-8.496-.000072v-26.000928zm326.969 0-15.350309 26.000128h-45.795561l-15.35113-26.000128zm-164.137 0-15.350433 26.000128-44.493567-.000056-15.352-26.000072z" fill="#000"/><g stroke="#000" stroke-linejoin="round"><path d="m479.847589 83c140.040052 0 280.090856 17.788492 420.152411 53.365476v281.634452l30 .000072v427h-899v-427l30-.000072v-281.634452c139.191674-35.576984 278.807537-53.365476 418.847589-53.365476z" stroke-width="40"/><path d="m65 211.035928c139.209491-16 278.395623-24 417.558397-24 139.162773 0 278.309974 8 417.441603 24" stroke-width="20"/><path d="m713.5 722.035928v-430" stroke-width="20"/><path d="m251.5 722.035928v-430" stroke-width="20"/></g></g></svg>