<svg height="960" viewBox="0 0 960 960" width="960" xmlns="http://www.w3.org/2000/svg"><g fill="none" fill-rule="evenodd" stroke="#000" stroke-linejoin="round"><path d="m222.820016 22.1232349 562.839831 31.0906254c53.6258 2.9622276 97.0981 53.7634177 97.0981 113.4676337v626.637012c0 59.704216-43.4723 110.505406-97.0981 113.467634l-562.839831 31.090625c-53.6258 2.962228-97.0981-47.838962-97.0981-113.467633v-688.818264c0-65.6286708 43.4723-116.4298607 97.0981-113.4676331z" stroke-linecap="round" stroke-width="30"/><path d="m223.093478 22.1232349 562.813044 31.0906254c53.623247 2.9622276 97.093478 53.7634177 97.093478 113.4676337v626.637012c0 59.704216-43.470231 110.505406-97.093478 113.467634l-562.813044 31.090625c-5.654211.312347-11.195538.026937-16.584922-.810584l-.026962.933819c-2.356629-.647247-5.047701-1.525665-8.012653-2.617801-8.261672-2.187389-16.091604-5.694913-23.338672-10.34355-41.264844-20.819606-98.130269-61.324276-98.130269-100.629517v-688.818264c0-66.7751655 64.257105-95.1553425 113.027488-108.2226431 6.678662-2.5943486 13.700927-4.2962641 20.972666-5.0002847.597627-.1229924 1.187177-.2466069 1.770997-.3679402l.088137.2101473c3.363261-.2454108 6.777632-.2778578 10.23419-.0869124z" stroke-width="40"/><g stroke-width="20"><path d="m608.33718 281.725499c-18.569856-4.537094-39.397049-5.835349-51.649524-6.889524-8.168318-.702783-21.64536-1.136217-40.431127-1.300302-102.336233-3.059959-185.296141 93.88596-185.296141 216.534769 0 122.64881 82.959908 219.594729 185.296141 216.53477h34.932799c21.547275 0 34.178868 0 67.703651-10.505811"/><path d="m577.686228 702.487629c100.390227-3.001771 181.772586-98.104185 181.772586-212.417187 0-114.313001-81.382359-209.415415-181.772586-212.417186s-181.772586 92.100642-181.772586 212.417186 81.382359 215.418958 181.772586 212.417187z"/></g></g></svg>