<svg height="960" viewBox="0 0 960 960" width="960" xmlns="http://www.w3.org/2000/svg"><g fill="none" fill-rule="evenodd"><path d="m343.805179 135.480908c-12.681591 0-23-10.318409-23-23 0-12.6815908 10.318409-23.0000001 23-23.0000001 12.68159 0 23 10.3171849 23 23.0000001 0 12.682815-10.317185 23-23 23z" fill="#000" fill-rule="nonzero"/><g stroke="#000" stroke-linejoin="round"><path d="m256.438674 45.4809079c.553951 4.6034858 6.394041 10.8140382 7.366505 18.3755656 3.769059 29.2784382 4.392132 73.3022505 5.290166 102.7108745 3.126038 102.300729 4.710034 207.35818 4.710034 312.258603.008306 105.803673-1.575455 211.442264-4.705154 313.996654-2.001054 26.229132-2.004288 79.324243-5.295046 108.00812-1.49103 12.993104-6.724703 5.581215-7.461677 12.650183" stroke-width="20"/><path d="m702.130481 913.480908c-.555757-4.599242-5.154845-8.705221-6.130481-16.259299-3.782577-29.26132-5.667731-75.359376-6.568695-104.752142-3.086044-100.632063-4.641919-206.474992-4.626478-314.587362.015162-107.003134 1.572262-211.770358 4.626478-311.391097.900964-29.391425 2.592521-78.1349979 6.373874-107.3963184.976859-7.5554189 5.769545-9.0145395 6.324078-13.6137817" stroke-width="20"/><path d="m714.317085 77.9689417c-2.70671-11.5849664-8.784828-31.7243053-19.069835-36.4382897-.667155-.3067403-1.382228-.6085727-2.145218-.9091782-2.336887-1.1876983-4.74995-1.9152862-7.061036-2.3361338-39.053782-11.1039977-142.293326-17.5345006-206.254246-17.8044321-64.276681.2711584-168.297645 6.7715982-206.856283 17.9884762l-.002457-.0098157c-2.032182.4883305-3.867781 1.0993571-5.528913 1.8208102-1.102096.411032-2.11573.8281988-3.038444 1.2515003-10.282549 4.7127575-16.360667 24.8520964-19.068606 36.4382898-11.106971 47.5189753-13.486868 333.3150163-13.486868 401.5107393s2.379897 353.990537 13.488097 401.513193c2.707938 11.58374 8.784828 31.721852 19.068605 36.437063 1.497721.685871 3.237486 1.355792 5.200864 2.013443 1.028378.382812 2.115731.727588 3.266973 1.033101l.003686-.013496c38.476318 11.231601 142.620147 17.744311 206.953346 18.016696h.03686c64.43272-.273612 168.800162-6.804726 207.132728-18.069456l.004915.014724c.203956-.063802.40914-.130058.615552-.198768 2.999128-.901816 5.571916-1.834307 7.670445-2.795017 10.283778-4.712758 16.361896-24.852097 19.069835-36.437063 11.104514-47.510386 13.488094-333.315016 13.488094-401.513193 0-68.199404-2.38358-354.005261-13.488094-401.5131933z" stroke-width="40"/></g></g></svg>