<svg height="960" viewBox="0 0 960 960" width="960" xmlns="http://www.w3.org/2000/svg"><g fill="none" fill-rule="evenodd" stroke="#000"><path d="m386.85261 755c-2.759598-.611859-13.854626-16.189118-18.865882-24.548891-5.011257-8.359774-14.201598-28.397376-14.283862-33.329372-.822649-63.704956-5.676276-119.189918-14.807676-169.660684-7.815162-31.153778-25.337579-62.800756-42.366406-93.379135-9.1314-16.357789-18.509595-33.290978-26.324757-49.977566-10.365373-22.193985-17.769211-45.620969-22.376043-65.020155 0-.2466-.082265-.4932-.16453-.7398-1.398503-6.164996-2.632476-12.001192-3.537389-17.590788 0-.1644-.082265-.411-.082265-.657599-.082265-.4932-.16453-.9042-.246795-1.397399-.082264-.5754-.164529-1.0686-.246794-1.561799 0-.1644-.082265-.411-.082265-.5754v-.1644-.0822c-1.645297-11.343592-2.467946-22.933784-2.467946-34.523976 0-63.787156 24.843989-123.710915 70.0074-168.8386841 44.759371-44.7240471 104.062657-69.5063593 167.25966-69.9521519h3.403344c63.220416.4294464 122.548062 25.2133531 167.322196 69.9521519 45.163411 45.1277691 70.0074 105.0515281 70.0074 168.8386841 0 11.590192-.822649 23.180384-2.467946 34.523976v.0822.1644c0 .1644-.082265.411-.082265.5754-.082265.493199-.16453.986399-.246794 1.561799-.082265.493199-.16453.904199-.246795 1.397399 0 .246599-.082265.493199-.082265.657599-.904913 5.589596-2.138886 11.425792-3.537389 17.590788-.082265.2466-.16453.4932-.16453.7398-4.606832 19.399186-12.01067 42.82617-22.376043 65.020155-7.815162 16.686588-17.193357 33.619777-26.324757 49.977566-17.028827 30.578379-34.551244 62.225357-42.366406 93.379135-9.1314 50.470766-13.985027 105.955728-14.807676 169.660684-.082264 4.931996-9.272605 24.969598-14.283862 33.329372-5.011256 8.359773-16.106284 23.937032-18.865882 24.548891" stroke-linecap="round" stroke-linejoin="round" stroke-width="40"/><path d="m259 356c92.568279 6.666667 166.199471 10 220.893576 10s127.729579-3.333333 219.106424-10" stroke-linejoin="round" stroke-width="20"/><g transform="translate(384 755)"><path d="m9.91489362 26c29.09092128 5.698937 115.72072838 14.5844391 167.35504338 14.5844391" stroke-linecap="round" stroke-width="15"/><path d="m13.9788702 59.4425697c32.9613099 5.6867284 113.4562078 13.685729 162.4470948 13.685729" stroke-linecap="round" stroke-width="15"/><path d="m.63120567.85964912c5.81926691 16.49428748 8.72890036 36.44117038 8.72890036 59.84064878v53.3897841c30.12990707 44.225918 56.18981967 68.322131 78.17973777 72.288638.9690348.174793 4.5903793.586192 7.6161846.586192 3.7391663 0 6.9967646-.455916 8.3310176-.721937 21.839191-4.354275 47.660826-28.405239 77.464905-72.152893 0-12.193711 0-29.9903058 0-53.3897841 0-23.3994784 2.909633-43.3463613 8.7289-59.84064878" stroke-linejoin="round" stroke-width="40"/><path d="m183.77305 91-9.357577 12.94581c-11.523289 25.365549-22.129918 38.185479-31.819889 38.459789-13.998105.396267-28.746677.594401-44.2457165.594401-.6618079 0-1.3050143-.03913-1.929619-.11519-.6218122.076102-1.2646873.11519-1.9261444.11519-15.4990392 0-30.2476114-.198134-44.2457167-.594401-9.6899706-.27431-20.2966001-13.09424-31.8198884-38.459789l-9.35757701-12.94581c25.35629571 1.646443 53.83068981 2.4696645 85.42318211 2.4696645.661808 0 1.3050143.0391299 1.929619.1151902.6218122-.0761017 1.2646874-.1151902 1.9261444-.1151902 31.5924925 0 60.0668865-.8232215 85.4231825-2.4696645z" fill="#000" stroke-width="2"/></g><path d="m383 747c12.180382 5.333333 44.937133 8 98.270255 8 53.333121 0 84.57637-2.666667 93.729745-8" stroke-linecap="round" stroke-linejoin="round" stroke-width="20"/></g></svg>