<svg height="960" viewBox="0 0 960 960" width="960" xmlns="http://www.w3.org/2000/svg"><g fill="none" fill-rule="evenodd"><rect height="208" rx="29" stroke="#000" stroke-linejoin="round" stroke-width="20" width="111" x="425" y="128"/><circle cx="480" cy="180" fill="#000" r="22"/><path d="m22 250.42306 113.780223-116.500775 113.801006-110.922285h461.837542l113.801006 110.922285 113.780223 116.500775v459.15388l-113.780223 116.500775-113.801006 110.922285h-461.837542l-113.801006-110.922285-113.780223-116.500775z" stroke="#000" stroke-linejoin="round" stroke-width="40"/><g fill="#000"><path d="m271 777h48v52h-48z"/><path d="m363 777h48v52h-48z"/><path d="m455 777h48v52h-48z"/><path d="m547 777h48v52h-48z"/><path d="m639 777h48v52h-48z"/></g><path d="m244 751h469v182h-469z" stroke="#000" stroke-linejoin="round" stroke-width="20"/></g></svg>