<svg height="960" viewBox="0 0 960 960" width="960" xmlns="http://www.w3.org/2000/svg"><g fill="none" fill-rule="evenodd"><g transform="translate(283 480)"><g fill="#000"><path d="m41.925 87.75-.0003258 82.874-29.2496742.001v44.85l29.2496742-.001.0003258 82.876c-12.0515783-18.317036-20.1285846-33.232692-24.2310188-44.746969s-7.4302032-31.048621-9.98330698-58.603031c3.52657568-28.636322 7.44746868-49.238738 11.76267878-61.807249s11.7990925-27.716094 22.451647-45.442751z" fill-rule="evenodd" stroke="#000" stroke-linejoin="round" stroke-width="10"/><path d="m254.475 194.0255c0-14.001113 11.349387-25.3505 25.3495-25.3505 14.001113 0 25.3505 11.349387 25.3505 25.3505 0 14.000113-11.349387 25.3495-25.3505 25.3495-14.000113 0-25.3495-11.349387-25.3495-25.3495z" fill-rule="nonzero"/><path d="m83.85 194.0255c0-14.001113 11.3491632-25.3505 25.35-25.3505 14.000837 0 25.35 11.349387 25.35 25.3505 0 14.000113-11.349163 25.3495-25.35 25.3495-14.0008368 0-25.35-11.349387-25.35-25.3495z" fill-rule="nonzero"/></g><circle cx="195" cy="195" r="186.225" stroke="#000" stroke-width="15"/><path d="m381.314326 87.75-.000326 82.874-29.249674.001v44.85l29.249674-.001.000326 82.876c-12.051579-18.317036-20.128585-33.232692-24.231019-44.746969s-7.430203-31.048621-9.983307-58.603031c3.526576-28.636322 7.447469-49.238738 11.762679-61.807249s11.799092-27.716094 22.451647-45.442751z" fill="#000" fill-rule="evenodd" stroke="#000" stroke-linejoin="round" stroke-width="10" transform="matrix(-1 0 0 1 728.414326 0)"/></g><g stroke="#000" stroke-linejoin="round"><path d="m457.598529 189.517111v-.280499c.009455-16.444806.021432-38.966041 3.654051-59.808063.16893-.970085.346054-1.937019.531373-2.89891 2.150702-8.102325 9.502298-13.754537 17.902771-13.754537 8.653867 0 16.062823 5.868417 18.03388 14.275824.11346.6026.224399 1.206461.332187 1.812843 3.732212 20.998976 3.744189 43.755955 3.753013 60.372213l.000631.280499c.008824 15.450137.023322 41.308365-3.783901 59.89694-.177754.86608-.363703 1.717662-.557846 2.552226-2.295679 7.836953-9.598109 13.305108-17.778595 13.305108-8.099172 0-15.180354-5.168115-17.643703-12.868917-.26285-1.102455-.517505-2.266053-.756402-3.461168-3.710151-18.543822-3.696283-44.134157-3.687459-59.423559z" stroke-width="20"/><path d="m480.5 206c-6.892593 0-12.5 5.586347-12.5 12.453054v25.093892c0 6.866707 5.607407 12.453054 12.5 12.453054 6.892022 0 12.5-5.586347 12.5-12.453054v-25.093892c0-6.866707-5.607978-12.453054-12.5-12.453054z" stroke-linecap="round" stroke-width="12.5"/><path d="m492 148.453054c0-6.866707-5.607407-12.453054-12.5-12.453054s-12.5 5.586347-12.5 12.453054v25.093892c0 6.866707 5.607407 12.453054 12.5 12.453054 6.892022 0 12.5-5.586347 12.5-12.453054z" fill="#000" stroke-linecap="round" stroke-width="12.5"/><path d="m231.126776 503.201996c52.692003-115.409438 79.038004-275.202899 79.038004-479.3803808" stroke-width="20"/><rect height="918" rx="151" stroke-width="40" width="511" x="222" y="21"/><path d="m644.83522 503.201996c52.692003-115.409438 79.038004-275.202899 79.038004-479.3803808" stroke-width="20" transform="matrix(-1 0 0 1 1368.708444 0)"/></g></g></svg>